<svg width="1725" height="1507" viewBox="0 0 1725 1507" fill="none" xmlns="http://www.w3.org/2000/svg">
<path d="M253.156 1384.21C589.76 1547.32 1135.49 1547.32 1472.06 1384.21C1808.63 1221.1 1808.66 956.63 1472.06 793.524C1135.45 630.417 589.722 630.417 253.156 793.524C-83.4111 956.63 -83.4492 1221.1 253.156 1384.21Z" fill="#F5F5F5"/>
<path d="M1464.6 99.5308L1454.82 103.337V81.7927C1454.82 64.7398 1441.23 60.6669 1426.46 69.1934C1418.69 74.274 1412.23 81.1121 1407.61 89.1537C1402.98 97.1953 1400.31 106.214 1399.81 115.48V118.601C1397.74 117.954 1395.54 117.79 1393.39 118.12C1391.24 118.449 1389.19 119.265 1387.4 120.504C1381.81 124.155 1377.15 129.073 1373.81 134.86C1370.47 140.647 1368.54 147.139 1368.18 153.811V155.219L1354.59 163.099C1350.9 165.499 1347.83 168.735 1345.63 172.545C1343.43 176.354 1342.16 180.63 1341.92 185.024C1341.92 193.093 1347.59 196.443 1354.59 192.332L1464.67 128.764C1468.35 126.358 1471.41 123.119 1473.61 119.31C1475.8 115.501 1477.07 111.229 1477.31 106.839C1477.24 98.7695 1471.64 95.496 1464.6 99.5308Z" fill="#F0F0F0"/>
<path d="M327.381 381.893L316.343 361.11L325.25 335.455V319.734L298.034 335.455V351.442L309.72 371.692C309.896 372.008 310.179 372.251 310.519 372.377L327.381 381.893Z" fill="#2D485C"/>
<path opacity="0.1" d="M327.381 381.893L316.343 361.11L325.25 335.455V319.734L298.034 335.455V351.442L309.72 371.692C309.896 372.008 310.179 372.251 310.519 372.377L327.381 381.893Z" fill="black"/>
<path d="M315.086 361.148L326.772 381.437C326.941 381.724 327.189 381.957 327.486 382.108C327.783 382.26 328.117 382.323 328.449 382.291C328.781 382.259 329.097 382.133 329.359 381.928C329.622 381.722 329.82 381.447 329.932 381.132L342.303 345.466V329.745L315.086 345.466V361.148Z" fill="#2D485C"/>
<path d="M259.398 277.787L352.009 224.269C354.535 222.991 357.325 222.325 360.155 222.325C362.985 222.325 365.776 222.991 368.301 224.269L374.962 228.075C377.334 229.633 379.307 231.726 380.722 234.185C382.136 236.645 382.954 239.402 383.108 242.235V312.464C382.957 315.293 382.141 318.046 380.725 320.5C379.31 322.954 377.335 325.039 374.962 326.586L282.351 380.143C279.818 381.418 277.022 382.082 274.186 382.082C271.351 382.082 268.554 381.418 266.021 380.143L259.398 376.337C257.014 374.798 255.029 372.716 253.606 370.261C252.183 367.806 251.364 365.048 251.214 362.215V291.909C251.373 289.078 252.196 286.324 253.618 283.87C255.04 281.416 257.02 279.333 259.398 277.787Z" fill="#2D485C"/>
<path opacity="0.5" d="M259.398 277.787L352.009 224.269C354.535 222.991 357.325 222.325 360.155 222.325C362.985 222.325 365.776 222.991 368.301 224.269L374.962 228.075C377.334 229.633 379.307 231.726 380.722 234.185C382.136 236.645 382.954 239.402 383.108 242.235V312.464C382.957 315.293 382.141 318.046 380.725 320.5C379.31 322.954 377.335 325.039 374.962 326.586L282.351 380.143C279.818 381.418 277.022 382.082 274.186 382.082C271.351 382.082 268.554 381.418 266.021 380.143L259.398 376.337C257.014 374.798 255.029 372.716 253.606 370.261C252.183 367.806 251.364 365.048 251.214 362.215V291.909C251.373 289.078 252.196 286.324 253.618 283.87C255.04 281.416 257.02 279.333 259.398 277.787Z" fill="white"/>
<path d="M382.994 242.273C382.994 237.058 379.188 234.926 374.848 237.553L282.237 290.843C279.856 292.394 277.875 294.485 276.453 296.945C275.031 299.405 274.209 302.166 274.053 305.003V375.422C274.053 380.637 277.86 382.731 282.237 380.142L374.848 326.624C377.221 325.077 379.196 322.991 380.611 320.538C382.026 318.084 382.843 315.331 382.994 312.502V242.273Z" fill="#2D485C"/>
<path d="M350.639 316.042C348.685 315.23 346.69 314.518 344.663 313.911C340.666 312.54 337.05 313.644 333.967 319.278C333.432 320.517 332.516 321.554 331.353 322.238C330.19 322.923 328.839 323.219 327.496 323.084C324.364 323.038 321.301 322.156 318.625 320.53C315.948 318.904 313.754 316.592 312.27 313.835C311.493 312.419 311.251 310.773 311.586 309.194C311.921 307.615 312.812 306.209 314.097 305.232C315.031 304.482 315.8 303.547 316.357 302.486C316.914 301.425 317.246 300.261 317.332 299.065C317.332 295.868 309.263 287.875 306.141 287.875C304.758 287.944 303.43 288.435 302.335 289.283C295.026 294.384 291.981 301.502 294.722 307.592C303.401 325.673 318.626 334.922 339.6 336.331C340.672 336.339 341.742 336.25 342.797 336.064C348.386 333.291 352.683 328.462 354.788 322.589C356.348 317.641 353.037 317.108 350.448 315.928L350.639 316.042Z" fill="white"/>
<path d="M327.115 281.708C342.341 278.51 349.535 283.23 351.476 297.961C351.476 299.294 351.134 301.768 353.151 300.969C355.169 300.169 354.788 298.304 354.788 296.858C354.788 282.241 342.303 273.372 327.572 278.244C326.468 278.815 324.146 278.701 323.994 281.251C323.994 282.964 325.859 281.974 327.115 281.708Z" fill="white"/>
<path d="M330.122 284.867C328.637 285.21 326.696 285.248 326.315 287.418C325.935 289.587 328.143 288.674 329.513 288.484C338.991 287.151 342.303 289.397 343.863 298.228C344.092 299.522 343.635 301.806 345.957 300.626C347.67 299.713 347.061 298.114 347.213 296.82C347.213 287.76 339.6 282.355 330.084 284.677L330.122 284.867Z" fill="white"/>
<path d="M330.997 291.909C330.475 292.042 329.991 292.298 329.587 292.656C329.184 293.013 328.871 293.462 328.675 293.965C328.143 295.716 329.284 295.678 330.426 295.449C334.233 294.65 336.364 296.211 336.745 299.941C336.745 300.931 337.544 301.54 338.534 301.083C339.09 300.786 339.538 300.32 339.812 299.752C340.085 299.184 340.171 298.544 340.057 297.923C340 296.868 339.698 295.841 339.174 294.924C338.65 294.006 337.919 293.224 337.038 292.64C336.158 292.056 335.153 291.685 334.104 291.558C333.056 291.431 331.991 291.552 330.997 291.909Z" fill="white"/>
<path d="M251.214 362.176C251.364 365.01 252.183 367.767 253.606 370.223C255.029 372.678 257.014 374.76 259.398 376.298L266.021 380.105C268.321 381.262 270.84 381.918 273.413 382.03C275.985 382.141 278.551 381.706 280.943 380.752C277.136 382.198 274.167 380.028 274.167 375.385V305.194C274.265 302.343 275.09 299.565 276.565 297.124L253.727 283.877C252.253 286.305 251.428 289.071 251.329 291.909L251.214 362.176Z" fill="#2D485C"/>
<path opacity="0.1" d="M251.214 362.176C251.364 365.01 252.183 367.767 253.606 370.223C255.029 372.678 257.014 374.76 259.398 376.298L266.021 380.105C268.321 381.262 270.84 381.918 273.413 382.03C275.985 382.141 278.551 381.706 280.943 380.752C277.136 382.198 274.167 380.028 274.167 375.385V305.194C274.265 302.343 275.09 299.565 276.565 297.124L253.727 283.877C252.253 286.305 251.428 289.071 251.329 291.909L251.214 362.176Z" fill="black"/>
<path d="M1478.53 401.497L1467.45 380.714L1476.36 355.058V339.337L1449.14 355.248V370.931L1460.83 391.219C1461.02 391.528 1461.3 391.768 1461.63 391.905L1478.53 401.497Z" fill="#2D485C"/>
<path opacity="0.1" d="M1478.53 401.497L1467.45 380.714L1476.36 355.058V339.337L1449.14 355.248V370.931L1460.83 391.219C1461.02 391.528 1461.3 391.768 1461.63 391.905L1478.53 401.497Z" fill="black"/>
<path d="M1410.51 307.82L1503.12 254.53C1505.65 253.234 1508.44 252.558 1511.28 252.558C1514.12 252.558 1516.92 253.234 1519.45 254.53L1526.07 258.336C1528.45 259.887 1530.43 261.978 1531.86 264.438C1533.28 266.898 1534.1 269.659 1534.26 272.496V332.143C1534.11 334.977 1533.29 337.735 1531.86 340.19C1530.44 342.645 1528.46 344.727 1526.07 346.265L1433.58 399.594C1431.04 400.869 1428.25 401.533 1425.41 401.533C1422.57 401.533 1419.78 400.869 1417.25 399.594L1410.62 395.787C1408.25 394.236 1406.28 392.15 1404.87 389.697C1403.45 387.244 1402.63 384.493 1402.48 381.666V321.942C1402.62 319.126 1403.43 316.382 1404.82 313.931C1406.22 311.479 1408.16 309.387 1410.51 307.82Z" fill="#2D485C"/>
<path opacity="0.5" d="M1410.51 307.82L1503.12 254.53C1505.65 253.234 1508.44 252.558 1511.28 252.558C1514.12 252.558 1516.92 253.234 1519.45 254.53L1526.07 258.336C1528.45 259.887 1530.43 261.978 1531.86 264.438C1533.28 266.898 1534.1 269.659 1534.26 272.496V332.143C1534.11 334.977 1533.29 337.735 1531.86 340.19C1530.44 342.645 1528.46 344.727 1526.07 346.265L1433.58 399.594C1431.04 400.869 1428.25 401.533 1425.41 401.533C1422.57 401.533 1419.78 400.869 1417.25 399.594L1410.62 395.787C1408.25 394.236 1406.28 392.15 1404.87 389.697C1403.45 387.244 1402.63 384.493 1402.48 381.666V321.942C1402.62 319.126 1403.43 316.382 1404.82 313.931C1406.22 311.479 1408.16 309.387 1410.51 307.82Z" fill="white"/>
<path d="M1433.58 399.594C1429.08 402.182 1425.43 400.089 1425.43 394.874V335.227C1425.57 332.38 1426.38 329.608 1427.8 327.134C1429.21 324.66 1431.19 322.556 1433.58 320.99L1526.07 267.7C1530.6 265.074 1534.26 267.205 1534.26 272.42V332.067C1534.11 334.901 1533.29 337.659 1531.86 340.114C1530.44 342.569 1528.46 344.651 1526.07 346.189" fill="#2D485C"/>
<path d="M1402.36 381.627C1402.52 384.455 1403.34 387.206 1404.75 389.659C1406.17 392.112 1408.14 394.198 1410.51 395.749L1417.13 399.556C1419.44 400.714 1421.96 401.371 1424.54 401.482C1427.12 401.594 1429.69 401.158 1432.09 400.203C1428.28 401.649 1425.32 399.48 1425.32 394.836V335.227C1425.41 332.376 1426.24 329.598 1427.71 327.157L1404.87 313.911C1403.43 316.348 1402.62 319.11 1402.51 321.942L1402.36 381.627Z" fill="#2D485C"/>
<path opacity="0.1" d="M1402.36 381.627C1402.52 384.455 1403.34 387.206 1404.75 389.659C1406.17 392.112 1408.14 394.198 1410.51 395.749L1417.13 399.556C1419.44 400.714 1421.96 401.371 1424.54 401.482C1427.12 401.594 1429.69 401.158 1432.09 400.203C1428.28 401.649 1425.32 399.48 1425.32 394.836V335.227C1425.41 332.376 1426.24 329.598 1427.71 327.157L1404.87 313.911C1403.43 316.348 1402.62 319.11 1402.51 321.942L1402.36 381.627Z" fill="black"/>
<path d="M1466.2 380.6L1477.92 400.888C1478.09 401.175 1478.34 401.408 1478.63 401.559C1478.93 401.711 1479.27 401.774 1479.6 401.742C1479.93 401.71 1480.24 401.584 1480.51 401.379C1480.77 401.174 1480.97 400.898 1481.08 400.583L1493.41 364.917V349.196L1466.2 364.917V380.6Z" fill="#2D485C"/>
<path d="M1454.63 339.414C1452.4 340.877 1450.56 342.842 1449.24 345.149C1447.91 347.457 1447.15 350.043 1447.01 352.699C1447.01 357.609 1450.44 359.588 1454.63 357.152C1456.85 355.685 1458.7 353.715 1460.02 351.4C1461.35 349.086 1462.1 346.492 1462.24 343.83C1462.31 338.957 1458.89 336.978 1454.63 339.414Z" fill="white"/>
<path d="M1483.06 323.046C1480.83 324.505 1478.98 326.468 1477.66 328.777C1476.34 331.085 1475.58 333.673 1475.45 336.331C1475.45 341.241 1478.87 343.22 1483.06 340.784C1485.28 339.313 1487.13 337.341 1488.45 335.027C1489.77 332.714 1490.53 330.123 1490.67 327.461C1490.67 322.589 1487.17 320.61 1483.06 323.046Z" fill="white"/>
<path d="M1511.23 306.678C1509.01 308.144 1507.16 310.109 1505.84 312.416C1504.52 314.723 1503.76 317.308 1503.61 319.963C1503.61 324.873 1507.08 326.852 1511.23 324.416C1513.45 322.943 1515.29 320.971 1516.61 318.657C1517.93 316.344 1518.7 313.754 1518.84 311.094C1518.92 306.221 1515.45 304.242 1511.23 306.678Z" fill="white"/>
<path d="M490.146 200.136L555.464 162.414C558.601 160.819 562.071 159.988 565.59 159.988C569.109 159.988 572.578 160.819 575.715 162.414L583.975 167.21C586.928 169.128 589.385 171.718 591.144 174.768C592.904 177.818 593.917 181.241 594.1 184.757V260.087C593.911 263.602 592.896 267.023 591.136 270.072C589.377 273.121 586.924 275.712 583.975 277.635L518.694 315.357C515.541 316.92 512.069 317.733 508.55 317.733C505.031 317.733 501.559 316.92 498.406 315.357L490.146 310.561C487.193 308.643 484.736 306.053 482.976 303.003C481.216 299.953 480.203 296.53 480.021 293.013V217.645C480.215 214.137 481.233 210.723 482.992 207.681C484.751 204.639 487.202 202.054 490.146 200.136Z" fill="#2D485C"/>
<path opacity="0.5" d="M490.146 200.136L555.464 162.414C558.601 160.819 562.071 159.988 565.59 159.988C569.109 159.988 572.578 160.819 575.715 162.414L583.975 167.21C586.928 169.128 589.385 171.718 591.144 174.768C592.904 177.818 593.917 181.241 594.1 184.757V260.087C593.911 263.602 592.896 267.023 591.136 270.072C589.377 273.121 586.924 275.712 583.975 277.635L518.694 315.357C515.541 316.92 512.069 317.733 508.55 317.733C505.031 317.733 501.559 316.92 498.406 315.357L490.146 310.561C487.193 308.643 484.736 306.053 482.976 303.003C481.216 299.953 480.203 296.53 480.021 293.013V217.645C480.215 214.137 481.233 210.723 482.992 207.681C484.751 204.639 487.202 202.054 490.146 200.136Z" fill="white"/>
<path d="M594.1 184.758C594.1 178.287 589.57 175.66 583.975 178.896L518.694 216.58C515.745 218.505 513.288 221.096 511.523 224.144C509.758 227.191 508.733 230.611 508.531 234.128V309.571C508.531 316.042 513.099 318.631 518.694 315.433L583.975 277.711C586.923 275.789 589.377 273.198 591.136 270.149C592.896 267.1 593.911 263.679 594.1 260.164V184.758Z" fill="#2D485C"/>
<path d="M480.021 293.051C480.203 296.568 481.216 299.991 482.976 303.041C484.736 306.091 487.193 308.681 490.146 310.599L498.406 315.395C501.268 316.818 504.396 317.624 507.59 317.762C510.783 317.9 513.969 317.366 516.943 316.194C512.185 317.983 508.531 315.319 508.531 309.533V234.127C508.654 230.604 509.676 227.171 511.5 224.154L482.99 207.672C481.17 210.705 480.149 214.149 480.021 217.683V293.051Z" fill="#2D485C"/>
<path opacity="0.1" d="M480.021 293.051C480.203 296.568 481.216 299.991 482.976 303.041C484.736 306.091 487.193 308.681 490.146 310.599L498.406 315.395C501.268 316.818 504.396 317.624 507.59 317.762C510.783 317.9 513.969 317.366 516.943 316.194C512.185 317.983 508.531 315.319 508.531 309.533V234.127C508.654 230.604 509.676 227.171 511.5 224.154L482.99 207.672C481.17 210.705 480.149 214.149 480.021 217.683V293.051Z" fill="black"/>
<path d="M523.833 239.304L579.369 207.101C580.854 206.264 582.072 207.101 582.072 208.662V246.346C582.015 247.282 581.741 248.193 581.272 249.005C580.803 249.818 580.152 250.51 579.369 251.028L523.833 283.23C522.348 284.068 521.13 283.23 521.13 281.67V243.986C521.187 243.049 521.461 242.139 521.93 241.326C522.399 240.514 523.05 239.821 523.833 239.304Z" fill="white"/>
<path d="M520.978 240.864L554.17 251.637L581.919 205.541L555.084 255.519L520.978 240.864Z" fill="#2D485C"/>
<path d="M490.146 523.037L555.464 485.353C558.601 483.758 562.071 482.927 565.59 482.927C569.109 482.927 572.578 483.758 575.715 485.353L583.975 490.111C586.921 492.036 589.373 494.628 591.132 497.676C592.891 500.725 593.908 504.144 594.1 507.659V583.065C593.911 586.58 592.896 590.001 591.136 593.05C589.377 596.099 586.924 598.69 583.975 600.613L518.694 638.296C515.55 639.891 512.075 640.723 508.55 640.723C505.025 640.723 501.549 639.891 498.406 638.296L490.146 633.538C487.197 631.616 484.743 629.025 482.984 625.976C481.225 622.927 480.209 619.506 480.021 615.991V540.623C480.21 537.103 481.225 533.676 482.984 530.621C484.743 527.566 487.196 524.968 490.146 523.037Z" fill="#2D485C"/>
<path opacity="0.5" d="M490.146 523.037L555.464 485.353C558.601 483.758 562.071 482.927 565.59 482.927C569.109 482.927 572.578 483.758 575.715 485.353L583.975 490.111C586.921 492.036 589.373 494.628 591.132 497.676C592.891 500.725 593.908 504.144 594.1 507.659V583.065C593.911 586.58 592.896 590.001 591.136 593.05C589.377 596.099 586.924 598.69 583.975 600.613L518.694 638.296C515.55 639.891 512.075 640.723 508.55 640.723C505.025 640.723 501.549 639.891 498.406 638.296L490.146 633.538C487.197 631.616 484.743 629.025 482.984 625.976C481.225 622.927 480.209 619.506 480.021 615.991V540.623C480.21 537.103 481.225 533.676 482.984 530.621C484.743 527.566 487.196 524.968 490.146 523.037Z" fill="white"/>
<path d="M594.1 507.507C594.1 501.074 589.57 498.447 583.975 501.683L518.694 539.367C515.744 541.303 513.294 543.909 511.541 546.971C509.788 550.034 508.783 553.467 508.607 556.991V632.397C508.607 638.829 513.175 641.456 518.77 638.22L584.051 600.537C587 598.614 589.453 596.023 591.213 592.974C592.972 589.925 593.987 586.504 594.176 582.989L594.1 507.507Z" fill="#2D485C"/>
<path d="M480.021 615.991C480.209 619.506 481.225 622.927 482.984 625.976C484.743 629.025 487.197 631.616 490.146 633.539L498.406 638.297C501.261 639.74 504.389 640.561 507.584 640.705C510.78 640.849 513.97 640.314 516.943 639.134C512.185 640.923 508.531 638.221 508.531 632.473V556.991C508.654 553.468 509.676 550.035 511.5 547.018L482.99 530.536C481.17 533.569 480.149 537.013 480.021 540.547V615.991Z" fill="#2D485C"/>
<path opacity="0.1" d="M480.021 615.991C480.209 619.506 481.225 622.927 482.984 625.976C484.743 629.025 487.197 631.616 490.146 633.539L498.406 638.297C501.261 639.74 504.389 640.561 507.584 640.705C510.78 640.849 513.97 640.314 516.943 639.134C512.185 640.923 508.531 638.221 508.531 632.473V556.991C508.654 553.468 509.676 550.035 511.5 547.018L482.99 530.536C481.17 533.569 480.149 537.013 480.021 540.547V615.991Z" fill="black"/>
<path d="M551.315 557.448C547.835 559.95 544.989 563.234 543.006 567.035C541.023 570.835 539.958 575.048 539.896 579.335C539.896 587.747 544.997 591.629 551.315 587.975C554.793 585.478 557.637 582.202 559.62 578.407C561.604 574.613 562.67 570.407 562.735 566.126C562.773 557.714 557.634 553.831 551.315 557.448Z" fill="white"/>
<path d="M531.217 561.33L535.975 558.589V560.987L531.217 563.69V561.33Z" fill="white"/>
<path d="M573.317 540.242L564.334 545.571C562.621 546.523 561.25 545.571 561.25 543.211C561.25 540.851 559.88 539.9 558.167 540.89L544.502 548.769C543.555 549.438 542.779 550.321 542.237 551.346C541.694 552.371 541.401 553.509 541.381 554.669C541.371 555.826 541.086 556.965 540.55 557.99C540.014 559.016 539.242 559.9 538.297 560.569L529.314 565.784C528.372 566.455 527.602 567.339 527.066 568.364C526.53 569.39 526.244 570.527 526.231 571.684V605.942C526.231 608.226 527.601 609.292 529.314 608.302L573.317 582.799C574.264 582.129 575.04 581.246 575.582 580.221C576.124 579.196 576.418 578.058 576.438 576.899V542.64C576.438 540.319 575.03 539.253 573.317 540.242ZM551.315 590.221C544.083 594.408 538.183 589.955 538.183 580.324C538.261 575.403 539.489 570.568 541.769 566.205C544.05 561.843 547.319 558.075 551.315 555.202C558.586 551.015 564.448 555.468 564.448 565.137C564.448 574.805 558.586 586.072 551.315 590.221ZM564.866 553.565C564.219 553.946 563.686 553.565 563.686 552.69C563.694 552.249 563.804 551.816 564.009 551.426C564.214 551.036 564.508 550.7 564.866 550.444C565.514 550.063 566.046 550.444 566.046 551.319C566.039 551.76 565.929 552.192 565.724 552.582C565.519 552.973 565.225 553.309 564.866 553.565Z" fill="white"/>
<path d="M490.146 363.09L555.464 325.406C558.601 323.812 562.071 322.98 565.59 322.98C569.109 322.98 572.578 323.812 575.715 325.406L583.975 330.164C586.921 332.089 589.373 334.681 591.132 337.729C592.891 340.778 593.908 344.198 594.1 347.712V423.118C593.911 426.633 592.896 430.054 591.136 433.103C589.377 436.152 586.924 438.743 583.975 440.666L518.694 478.35C515.55 479.945 512.075 480.776 508.55 480.776C505.025 480.776 501.549 479.945 498.406 478.35L490.146 473.592C487.197 471.669 484.743 469.078 482.984 466.029C481.225 462.98 480.209 459.559 480.021 456.044V380.638C480.212 377.124 481.229 373.704 482.988 370.655C484.747 367.607 487.199 365.015 490.146 363.09Z" fill="#2D485C"/>
<path opacity="0.5" d="M490.146 363.09L555.464 325.406C558.601 323.812 562.071 322.98 565.59 322.98C569.109 322.98 572.578 323.812 575.715 325.406L583.975 330.164C586.921 332.089 589.373 334.681 591.132 337.729C592.891 340.778 593.908 344.198 594.1 347.712V423.118C593.911 426.633 592.896 430.054 591.136 433.103C589.377 436.152 586.924 438.743 583.975 440.666L518.694 478.35C515.55 479.945 512.075 480.776 508.55 480.776C505.025 480.776 501.549 479.945 498.406 478.35L490.146 473.592C487.197 471.669 484.743 469.078 482.984 466.029C481.225 462.98 480.209 459.559 480.021 456.044V380.638C480.212 377.124 481.229 373.704 482.988 370.655C484.747 367.607 487.199 365.015 490.146 363.09Z" fill="white"/>
<path d="M594.1 347.636C594.1 341.203 589.57 338.576 583.975 341.812L518.694 379.496C515.744 381.432 513.294 384.038 511.541 387.1C509.788 390.163 508.783 393.595 508.607 397.12V472.525C508.607 478.958 513.175 481.585 518.77 478.349L584.051 440.665C587 438.743 589.453 436.152 591.213 433.103C592.972 430.054 593.987 426.633 594.176 423.118L594.1 347.636Z" fill="#2D485C"/>
<path d="M480.021 456.043C480.209 459.558 481.225 462.979 482.984 466.028C484.743 469.077 487.197 471.668 490.146 473.591L498.406 478.349C501.261 479.792 504.389 480.613 507.584 480.757C510.78 480.902 513.97 480.366 516.943 479.187C512.185 480.976 508.531 478.273 508.531 472.525V397.119C508.654 393.596 509.676 390.163 511.5 387.147L482.99 370.665C481.175 373.685 480.153 377.116 480.021 380.637V456.043Z" fill="#2D485C"/>
<path opacity="0.1" d="M480.021 456.043C480.209 459.558 481.225 462.979 482.984 466.028C484.743 469.077 487.197 471.668 490.146 473.591L498.406 478.349C501.261 479.792 504.389 480.613 507.584 480.757C510.78 480.902 513.97 480.366 516.943 479.187C512.185 480.976 508.531 478.273 508.531 472.525V397.119C508.654 393.596 509.676 390.163 511.5 387.147L482.99 370.665C481.175 373.685 480.153 377.116 480.021 380.637V456.043Z" fill="black"/>
<path d="M535.747 387.375V433.053C532.233 434.103 529.142 436.236 526.913 439.148C524.684 442.06 523.433 445.602 523.338 449.268C523.338 454.597 527.144 456.881 531.712 454.102C534.406 452.372 536.701 450.09 538.447 447.406C540.192 444.722 541.348 441.698 541.837 438.534V396.663L568.482 381.437V414.135C567.081 414.577 565.728 415.164 564.448 415.886C562.232 417.348 560.438 419.365 559.243 421.736C558.048 424.106 557.493 426.748 557.634 429.398C557.634 434.727 561.441 437.011 566.008 434.233C568.436 432.646 570.456 430.51 571.905 427.997C573.353 425.483 574.189 422.664 574.344 419.768V365.107L535.747 387.375Z" fill="white"/>
<path d="M490.146 40.1883L555.464 2.46632C558.601 0.871682 562.071 0.0405273 565.59 0.0405273C569.109 0.0405273 572.578 0.871682 575.715 2.46632L583.975 7.22439C586.924 9.15526 589.378 11.7534 591.137 14.8085C592.896 17.8636 593.911 21.29 594.1 24.8102V100.216C593.911 103.731 592.896 107.152 591.136 110.201C589.377 113.25 586.924 115.841 583.975 117.764L518.694 155.486C515.541 157.049 512.069 157.862 508.55 157.862C505.031 157.862 501.559 157.049 498.406 155.486L490.146 150.69C487.197 148.767 484.743 146.176 482.984 143.127C481.225 140.078 480.209 136.657 480.021 133.142V57.736C480.203 54.2195 481.216 50.7963 482.976 47.7463C484.736 44.6964 487.193 42.1064 490.146 40.1883Z" fill="#2D485C"/>
<path opacity="0.5" d="M490.146 40.1883L555.464 2.46632C558.601 0.871682 562.071 0.0405273 565.59 0.0405273C569.109 0.0405273 572.578 0.871682 575.715 2.46632L583.975 7.22439C586.924 9.15526 589.378 11.7534 591.137 14.8085C592.896 17.8636 593.911 21.29 594.1 24.8102V100.216C593.911 103.731 592.896 107.152 591.136 110.201C589.377 113.25 586.924 115.841 583.975 117.764L518.694 155.486C515.541 157.049 512.069 157.862 508.55 157.862C505.031 157.862 501.559 157.049 498.406 155.486L490.146 150.69C487.197 148.767 484.743 146.176 482.984 143.127C481.225 140.078 480.209 136.657 480.021 133.142V57.736C480.203 54.2195 481.216 50.7963 482.976 47.7463C484.736 44.6964 487.193 42.1064 490.146 40.1883Z" fill="white"/>
<path d="M594.1 24.81C594.1 18.3391 589.57 15.7126 583.975 18.9481L518.694 56.632C515.754 58.5611 513.31 61.1545 511.558 64.2028C509.805 67.2511 508.795 70.6688 508.607 74.1798V149.7C508.607 156.171 513.175 158.759 518.77 155.562L583.975 117.726C586.918 115.807 589.369 113.222 591.128 110.18C592.887 107.138 593.905 103.724 594.1 100.216V24.81Z" fill="#2D485C"/>
<path d="M480.021 133.104C480.209 136.619 481.225 140.04 482.984 143.089C484.743 146.138 487.197 148.729 490.146 150.652L498.406 155.448C501.268 156.871 504.396 157.677 507.59 157.815C510.783 157.953 513.969 157.418 516.943 156.247C512.185 158.036 508.531 155.372 508.531 149.586V74.18C508.654 70.6569 509.676 67.2238 511.5 64.2071L482.99 47.7251C481.17 50.7578 480.149 54.2019 480.021 57.7361V133.104Z" fill="#2D485C"/>
<path opacity="0.1" d="M480.021 133.104C480.209 136.619 481.225 140.04 482.984 143.089C484.743 146.138 487.197 148.729 490.146 150.652L498.406 155.448C501.268 156.871 504.396 157.677 507.59 157.815C510.783 157.953 513.969 157.418 516.943 156.247C512.185 158.036 508.531 155.372 508.531 149.586V74.18C508.654 70.6569 509.676 67.2238 511.5 64.2071L482.99 47.7251C481.17 50.7578 480.149 54.2019 480.021 57.7361V133.104Z" fill="black"/>
<path d="M571.604 93.2124C570.106 92.2861 568.555 91.4473 566.96 90.7001C563.801 89.1395 560.946 90.7001 558.624 97.2853C557.33 101.092 555.465 102.31 553.561 102.081C550.731 101.667 548.092 100.406 545.992 98.4624C543.892 96.5191 542.431 93.9853 541.799 91.195C541.199 89.4787 541.017 87.6438 541.268 85.8429C541.52 84.0421 542.198 82.3274 543.246 80.8414C544.861 78.63 545.74 75.9668 545.758 73.2285C545.758 69.4221 539.477 59.9059 537.041 59.944C536.442 60.0163 535.864 60.2086 535.34 60.5094C534.817 60.8103 534.36 61.2135 533.996 61.6949C531.228 64.5676 529.243 68.1019 528.23 71.9604C527.217 75.8188 527.21 79.8725 528.21 83.7343C534.948 105.317 545.416 112.625 561.745 114.186C562.581 114.177 563.412 114.062 564.219 113.843C566.779 112.555 569.05 110.761 570.895 108.569C572.74 106.377 574.121 103.833 574.954 101.092C576.172 95.1156 573.621 94.5066 571.604 93.1743V93.2124Z" fill="white"/>
<path d="M855.299 1338.23C987.992 1338.23 1095.56 1286.96 1095.56 1223.73C1095.56 1160.49 987.992 1109.23 855.299 1109.23C722.605 1109.23 615.035 1160.49 615.035 1223.73C615.035 1286.96 722.605 1338.23 855.299 1338.23Z" fill="#EBEBEB"/>
<path d="M1133.44 255.443C1151.52 236.792 1177.21 223.736 1194.91 237.287C1212.61 250.838 1212.8 284.22 1201.38 300.778C1184.29 326.167 1133.32 368.685 1133.32 368.685L1133.44 255.443Z" fill="#FFA8A7"/>
<path d="M761.051 534.875C761.051 534.875 799.115 488.398 804.026 463.58V747.313H761.051V534.875Z" fill="#F28F8F"/>
<path d="M1017.15 995.418C1018.86 956.973 1048.93 942.127 1077.63 888.837C1111.63 825.764 1115.39 757.096 1119.12 697.791H789.675V995.494L1017.15 995.418Z" fill="#FFA8A7"/>
<path d="M846.963 904.443L1115.28 749.521C1116.99 731.744 1118.06 714.349 1119.09 697.715H1095.3L818.3 839.239L846.963 904.443Z" fill="#F28F8F"/>
<path d="M807.642 898.277L800.371 894.09C797.26 892.055 794.671 889.317 792.813 886.097C790.955 882.877 789.88 879.265 789.675 875.553V238.695C789.877 234.987 790.951 231.38 792.81 228.165C794.668 224.951 797.259 222.22 800.371 220.195L1094.12 50.732C1097.43 49.0622 1101.08 48.1924 1104.79 48.1924C1108.5 48.1924 1112.16 49.0622 1115.47 50.732L1122.74 54.9572C1125.85 56.9819 1128.44 59.7124 1130.3 62.9269C1132.16 66.1413 1133.23 69.749 1133.44 73.4566V710.162C1133.23 713.874 1132.16 717.486 1130.3 720.706C1128.44 723.926 1125.85 726.665 1122.74 728.7L829.034 898.277C825.716 899.948 822.053 900.817 818.338 900.817C814.623 900.817 810.96 899.948 807.642 898.277Z" fill="#455A64"/>
<path d="M832.65 251.142L792.797 228.303C790.887 231.5 789.813 235.126 789.675 238.847V875.553C789.88 879.265 790.955 882.877 792.813 886.097C794.671 889.317 797.26 892.055 800.371 894.09L807.642 898.277C810.96 899.948 814.623 900.818 818.338 900.818C822.053 900.818 825.716 899.948 829.034 898.277L832.65 896.184V251.142Z" fill="#263238"/>
<path d="M818.338 255.215V891.959C818.338 898.772 823.096 901.513 829.034 898.125L1122.74 728.548C1125.85 726.512 1128.44 723.774 1130.3 720.554C1132.16 717.334 1133.23 713.722 1133.44 710.01V73.3044C1133.44 66.4908 1128.64 63.7121 1122.74 67.1379L829.034 236.716C825.919 238.738 823.327 241.468 821.468 244.683C819.609 247.898 818.537 251.507 818.338 255.215Z" fill="#37474F"/>
<path d="M841.824 295.487L1110.03 140.678C1115.09 137.747 1119.2 140.107 1119.2 145.969V654.055C1119.02 657.234 1118.1 660.327 1116.5 663.084C1114.91 665.841 1112.69 668.185 1110.03 669.928L841.9 824.736C836.838 827.667 832.727 825.269 832.727 819.445V311.36C832.891 308.186 833.8 305.095 835.381 302.337C836.961 299.58 839.168 297.233 841.824 295.487Z" fill="white"/>
<path d="M975.888 168.466C979.694 166.182 983.044 168.047 983.044 172.615C982.91 175.095 982.192 177.508 980.949 179.658C979.705 181.808 977.971 183.633 975.888 184.986C972.081 187.27 968.731 185.442 968.731 180.875C968.865 178.389 969.583 175.971 970.826 173.815C972.069 171.659 973.804 169.826 975.888 168.466Z" fill="#263238"/>
<path d="M955.218 204.246C969.759 196.177 995.719 180.76 1010.07 172.31C1012.51 170.864 1014.45 171.853 1014.45 174.518C1014.34 176.002 1013.88 177.44 1013.11 178.716C1012.35 179.992 1011.29 181.07 1010.03 181.864L955.104 213.61C952.63 215.019 950.65 214.029 950.65 211.364C950.779 209.897 951.261 208.482 952.057 207.242C952.852 206.002 953.937 204.974 955.218 204.246Z" fill="#263238"/>
<path d="M941.324 212.277C943.532 210.983 945.359 212.011 945.359 214.599C945.275 215.994 944.866 217.35 944.166 218.56C943.465 219.769 942.492 220.798 941.324 221.565C939.117 222.821 937.29 221.794 937.29 219.243C937.365 217.846 937.77 216.487 938.471 215.276C939.172 214.066 940.15 213.038 941.324 212.277Z" fill="#263238"/>
<path d="M975.888 763.871C983.805 759.304 990.2 762.996 990.2 772.131C989.935 777.102 988.501 781.941 986.014 786.253C983.527 790.566 980.058 794.231 975.888 796.949C967.97 801.517 961.575 797.787 961.575 788.689C961.84 783.718 963.274 778.88 965.761 774.567C968.248 770.255 971.717 766.59 975.888 763.871Z" fill="#263238"/>
<path d="M814.189 441.35C823.363 445.613 833.222 473.362 830.176 500.198C827.969 519.23 814.189 551.166 803.189 564.337C792.188 577.507 775.782 601.069 775.363 617.856C774.945 634.642 774.145 681.88 796.223 718.727C818.3 755.573 867.518 838.287 854.157 920.964H689.414C689.285 893.364 685.17 865.928 677.195 839.505C666.27 806.047 655.232 767.183 653.976 734.714C652.719 702.245 677.309 578.915 684.427 560.454C693.449 536.968 719.142 521.59 746.739 494.717C778.028 464.189 791.084 430.616 814.189 441.35Z" fill="#FFA8A7"/>
<path d="M727.554 1258.71C797.479 1299.06 910.835 1299.06 980.76 1258.71C1050.68 1218.36 1050.65 1152.89 980.76 1112.51C910.873 1072.12 797.479 1072.16 727.554 1112.51C657.63 1152.85 657.63 1218.32 727.554 1258.71Z" fill="#FFA8A7"/>
<path d="M675.101 1185.59C675.101 1163.21 685.417 1042.73 687.206 1013.23C689.413 976.614 689.413 940.681 689.413 920.964H1018.86C1016.51 959.525 1016.51 998.195 1018.86 1036.76C1022.93 1093.55 1033.17 1144.25 1033.17 1185.47L675.101 1185.59Z" fill="#FFA8A7"/>
<path opacity="0.2" d="M782.671 511.656C783.813 509.714 805.891 481.47 811.334 470.279C816.777 459.088 816.016 446.451 800.828 440.018C784.955 444.624 771.594 470.47 746.853 494.717C750.92 500.321 756.333 504.811 762.593 507.772C768.854 510.732 775.759 512.068 782.671 511.656Z" fill="white"/>
<path d="M1024.61 967.288C1012.62 987.386 980.645 1033.63 894.582 1042.92C894.582 1042.92 968.731 1052.7 1017.23 1000.14V995.418C1017.6 985.614 1020.12 976.013 1024.61 967.288Z" fill="#F28F8F"/>
<path d="M1181.93 648.345C1172.95 663.571 1133.44 692.005 1133.44 692.005V603.619L1181.93 648.345Z" fill="#F28F8F"/>
<path d="M1163.55 571.531C1141.73 569.552 1125.48 579.906 1125.48 598.671V632.32C1125.46 636.541 1126.35 640.716 1128.09 644.563C1129.82 648.41 1132.37 651.839 1135.54 654.618C1138.72 657.397 1142.45 659.462 1146.5 660.671C1150.54 661.881 1154.8 662.208 1158.98 661.63H1159.85C1188.52 656.986 1188.13 630.798 1188.48 617.057C1188.82 603.315 1182.96 573.32 1163.55 571.531Z" fill="#FFA8A7"/>
<path d="M1184.56 430.273C1175.12 446.489 1133.44 476.332 1133.44 476.332V383.302L1184.56 430.273Z" fill="#F28F8F"/>
<path d="M1165.18 349.462C1142.34 347.369 1130.12 357.456 1124.99 378.087C1122.9 389.82 1122.9 401.83 1124.99 413.563C1127.16 428.789 1141.66 447.288 1160.35 444.51H1161.26C1191.48 439.599 1194.91 423.346 1194.91 397.157C1194.91 370.969 1185.66 351.442 1165.18 349.462Z" fill="#FFA8A7"/>
<path d="M1186.57 514.32C1173.67 537.159 1133.28 563.804 1133.28 563.804V476.75L1186.57 514.32Z" fill="#F28F8F"/>
<path d="M1164.69 441.617C1143.68 439.676 1132.64 448.888 1127.96 467.73C1126.02 478.453 1126.02 489.437 1127.96 500.161C1129.9 514.168 1143.18 530.917 1160.23 528.404H1161.07C1188.67 523.913 1191.79 509.106 1191.79 485.163C1191.79 461.22 1183.38 443.292 1164.69 441.617Z" fill="#FFA8A7"/>
<path d="M752.563 488.779C750.685 490.758 748.744 492.738 746.739 494.717C750.806 500.322 756.219 504.811 762.48 507.772C768.74 510.732 775.645 512.068 782.558 511.656C775.972 500.369 765.189 492.145 752.563 488.779Z" fill="#F28F8F"/>
<path d="M857.24 324.264V319.772C857.269 319.24 857.422 318.722 857.686 318.26C857.95 317.797 858.319 317.403 858.762 317.107L859.181 316.879C860.057 316.384 860.704 316.879 860.704 317.754V322.246C860.684 322.78 860.535 323.301 860.27 323.765C860.005 324.229 859.631 324.622 859.181 324.911L858.762 325.139C857.925 325.634 857.24 325.253 857.24 324.264Z" fill="#2D485C"/>
<path d="M864.206 320.267V312.464C864.235 311.937 864.388 311.425 864.652 310.968C864.917 310.512 865.285 310.124 865.728 309.837L866.147 309.571C866.984 309.076 867.669 309.571 867.669 310.446V318.25C867.64 318.776 867.487 319.289 867.223 319.745C866.958 320.202 866.59 320.589 866.147 320.876L865.728 321.142C864.891 321.637 864.206 321.219 864.206 320.267Z" fill="#2D485C"/>
<path d="M871.172 316.232V305.155C871.204 304.629 871.358 304.118 871.622 303.662C871.887 303.206 872.254 302.818 872.694 302.529L873.113 302.3C873.951 301.806 874.636 302.3 874.636 303.176V314.215C874.607 314.747 874.454 315.264 874.19 315.727C873.925 316.189 873.557 316.584 873.113 316.879L872.694 317.107C871.857 317.602 871.172 317.184 871.172 316.232Z" fill="#2D485C"/>
<path d="M878.1 312.235V293.203C878.127 292.666 878.283 292.144 878.555 291.68C878.826 291.216 879.205 290.825 879.66 290.539L880.079 290.31C880.916 289.815 881.602 290.31 881.602 291.186V310.218C881.57 310.744 881.415 311.255 881.151 311.711C880.887 312.167 880.52 312.555 880.079 312.844L879.622 313.111C878.785 313.568 878.1 313.377 878.1 312.235Z" fill="#2D485C"/>
<path d="M896.865 302.643C896.865 302.643 896.865 302.415 896.865 302.148V299.332L889.062 303.823C888.605 304.09 888.415 303.823 888.415 303.595V302.605C888.392 302.416 888.392 302.224 888.415 302.034C888.476 301.82 888.565 301.615 888.682 301.425L896.865 286.732C896.969 286.528 897.097 286.336 897.246 286.161C897.401 285.995 897.58 285.853 897.779 285.743L898.883 285.134C899.187 285.134 899.454 284.867 899.606 285.134C899.758 285.4 899.796 285.362 899.796 285.666V295.487L901.547 294.459C901.643 294.383 901.753 294.328 901.871 294.295C901.988 294.262 902.111 294.253 902.233 294.269C902.233 294.269 902.423 294.536 902.423 294.84V295.525C902.428 295.779 902.362 296.03 902.233 296.248C902.05 296.498 901.817 296.706 901.547 296.857L899.796 297.847V300.664C899.797 300.93 899.732 301.191 899.606 301.425C899.407 301.673 899.161 301.88 898.883 302.034L897.551 302.796C897.322 302.643 897.094 302.719 896.865 302.643ZM897.17 296.629V289.663L891.498 299.903L897.17 296.629Z" fill="#2D485C"/>
<path d="M906.191 295.601C904.669 294.992 903.907 293.279 903.907 290.463C903.933 287.754 904.739 285.111 906.229 282.85C907.86 280.368 910.067 278.318 912.662 276.874C913.693 276.26 914.776 275.738 915.898 275.313C916.676 275.025 917.504 274.896 918.334 274.932C918.334 274.932 918.562 274.932 918.562 274.932C918.585 275.045 918.585 275.162 918.562 275.275L917.839 276.912C917.791 277.073 917.682 277.21 917.534 277.292H917.23C915.809 277.433 914.441 277.902 913.233 278.663C911.456 279.65 909.952 281.063 908.856 282.774C907.774 284.493 907.219 286.491 907.257 288.521C907.257 290.691 907.752 291.985 908.779 292.328C909.51 292.516 910.274 292.536 911.013 292.384C911.751 292.232 912.446 291.914 913.043 291.452C913.702 291.072 914.35 290.653 914.984 290.196C915.514 289.778 916.022 289.333 916.507 288.864V284.296L913.233 286.161C912.928 286.352 912.7 286.428 912.548 286.352C912.396 286.275 912.358 286.123 912.358 285.781V285.172C912.352 284.893 912.417 284.618 912.548 284.372C912.743 284.145 912.975 283.952 913.233 283.801L918.448 280.794C918.79 280.794 919.057 280.528 919.209 280.794C919.361 281.061 919.438 281.099 919.438 281.479V287.988C919.48 288.176 919.48 288.371 919.438 288.559C919.372 288.755 919.269 288.937 919.133 289.092C917.379 291.096 915.293 292.782 912.967 294.079C912.039 294.852 910.941 295.393 909.763 295.658C908.584 295.922 907.36 295.903 906.191 295.601Z" fill="#2D485C"/>
<path d="M969.645 249.01V259.63C969.645 260.429 970.216 260.772 970.901 260.353L980.15 255.062C980.508 254.82 980.804 254.498 981.016 254.121C981.227 253.745 981.348 253.324 981.368 252.892V242.234C981.368 241.435 980.836 241.13 980.15 241.511L970.901 246.84C970.538 247.08 970.236 247.401 970.018 247.778C969.8 248.154 969.672 248.576 969.645 249.01Z" fill="#2D485C"/>
<path d="M979.085 240.027C979.123 239.567 979.032 239.105 978.821 238.694C978.61 238.283 978.288 237.939 977.892 237.701C977.496 237.464 977.041 237.342 976.579 237.349C976.117 237.356 975.667 237.493 975.279 237.743C974.349 238.344 973.578 239.159 973.028 240.119C972.478 241.079 972.167 242.157 972.119 243.263V247.069H973.68V243.263C973.728 242.432 973.97 241.624 974.386 240.903C974.803 240.183 975.382 239.57 976.078 239.114C976.257 239.01 976.461 238.956 976.668 238.956C976.875 238.956 977.078 239.01 977.258 239.114C977.524 239.114 977.677 239.647 977.677 240.218V244.024H979.237L979.085 240.027Z" fill="#2D485C"/>
<path d="M1096.13 172.805C1095.7 172.603 1095.23 172.515 1094.76 172.548C1094.28 172.582 1093.83 172.736 1093.43 172.995L1072.99 184.795C1072.08 185.391 1071.32 186.195 1070.77 187.141C1070.23 188.087 1069.92 189.149 1069.87 190.238V198.841C1069.83 199.316 1069.92 199.792 1070.13 200.22C1070.33 200.649 1070.65 201.014 1071.05 201.277C1071.37 201.474 1071.74 201.58 1072.11 201.582C1072.69 201.555 1073.25 201.385 1073.75 201.087L1094.19 189.287C1095.11 188.694 1095.87 187.89 1096.41 186.944C1096.95 185.997 1097.26 184.934 1097.31 183.844V175.241C1097.35 174.767 1097.26 174.292 1097.05 173.865C1096.84 173.437 1096.53 173.071 1096.13 172.805ZM1071.77 199.983C1071.61 199.842 1071.49 199.663 1071.42 199.464C1071.35 199.265 1071.32 199.051 1071.35 198.841V190.238C1071.41 189.41 1071.65 188.605 1072.07 187.886C1072.49 187.167 1073.06 186.552 1073.75 186.089L1094.19 174.289C1094.45 174.142 1094.73 174.052 1095.03 174.023H1095.37C1095.54 174.16 1095.66 174.337 1095.74 174.536C1095.82 174.736 1095.85 174.952 1095.83 175.165V183.958C1095.78 184.788 1095.53 185.595 1095.12 186.315C1094.7 187.035 1094.12 187.648 1093.43 188.107L1072.99 199.907C1072.83 199.992 1072.66 200.042 1072.48 200.055C1072.31 200.068 1072.13 200.044 1071.96 199.983H1071.77Z" fill="#2D485C"/>
<path d="M1072.19 199.184C1072.19 199.184 1072.19 198.993 1072.19 198.803V190.2C1072.25 189.523 1072.45 188.868 1072.79 188.281C1073.14 187.695 1073.61 187.193 1074.17 186.813L1094.61 175.013C1094.72 174.987 1094.84 174.987 1094.95 175.013V183.958C1094.9 184.637 1094.7 185.296 1094.37 185.889C1094.03 186.481 1093.57 186.992 1093.01 187.384L1072.57 199.184H1072.19Z" fill="#2D485C"/>
<path d="M1098.34 174.746C1099.1 174.289 1099.71 175.355 1099.71 177.106V178.705C1099.77 179.444 1099.67 180.186 1099.43 180.886C1099.19 181.587 1098.8 182.23 1098.3 182.778L1096.93 183.653V175.545L1098.34 174.746Z" fill="#2D485C"/>
<path d="M909.313 391.448C910.752 391.851 912.264 391.931 913.738 391.681C915.212 391.431 916.613 390.857 917.839 390.002C924.5 386.195 929.906 378.773 930.324 365.793C927.487 370.632 923.581 374.76 918.905 377.859C909.807 383.112 903.451 382.122 903.451 372.53C903.451 362.938 911.064 353.117 920.161 347.864C930.476 341.888 939.193 343.715 939.193 359.284C939.302 366.787 937.436 374.187 933.781 380.741C930.127 387.296 924.812 392.773 918.372 396.625C912.015 400.431 907.333 400.66 904.174 399.632L909.313 391.448ZM930.096 359.969C929.068 352.356 925.262 351.176 920.085 354.183C917.74 355.534 915.777 357.458 914.379 359.775C912.981 362.092 912.194 364.725 912.091 367.429C912.091 372.834 915.174 373.862 920.504 370.779C924.636 368.128 927.955 364.387 930.096 359.969Z" fill="#2D485C"/>
<path d="M954.533 339.642C958.035 337.625 960.699 338.462 960.699 341.698C960.488 343.616 959.818 345.455 958.744 347.059C957.671 348.662 956.226 349.983 954.533 350.909C951.031 352.927 948.252 352.127 948.252 348.892C948.487 346.961 949.18 345.115 950.272 343.506C951.365 341.898 952.825 340.573 954.533 339.642ZM954.533 364.346C958.035 362.329 960.699 363.166 960.699 366.401C960.488 368.32 959.818 370.159 958.744 371.763C957.671 373.366 956.226 374.687 954.533 375.613C951.031 377.631 948.252 376.831 948.252 373.596C948.487 371.665 949.18 369.819 950.272 368.21C951.365 366.602 952.825 365.277 954.533 364.346Z" fill="#2D485C"/>
<path d="M969.188 343.03C968.865 336.265 970.365 329.537 973.533 323.551C976.7 317.564 981.418 312.539 987.192 309C998.193 302.643 1005.2 306.754 1005.2 322.208C1005.2 337.663 998.193 350.338 987.192 356.695C976.191 363.052 969.188 358.56 969.188 343.03ZM996.023 327.537C996.023 314.519 992.217 312.502 987.192 315.509C982.168 318.516 978.361 324.721 978.361 337.739C978.361 350.757 982.168 352.965 987.192 350.186C992.217 347.407 996.137 340.518 996.137 327.537H996.023Z" fill="#2D485C"/>
<path d="M1012.09 318.326C1011.76 311.561 1013.26 304.833 1016.43 298.847C1019.6 292.86 1024.32 287.835 1030.09 284.296C1041.13 277.939 1048.13 282.05 1048.13 297.504C1048.13 312.959 1041.13 325.634 1030.09 331.991C1019.05 338.348 1012.09 333.856 1012.09 318.326ZM1038.96 302.833C1038.96 289.815 1035.15 287.798 1030.09 290.805C1025.03 293.812 1021.26 300.017 1021.26 313.035C1021.26 326.053 1025.07 328.261 1030.09 325.482C1035.12 322.703 1038.96 315.813 1038.96 302.833Z" fill="#2D485C"/>
<path opacity="0.8" d="M868.203 487.866L1083.38 363.547C1087.95 360.92 1091.64 363.052 1091.64 368.305V431.873C1091.49 434.729 1090.66 437.508 1089.22 439.983C1087.79 442.457 1085.78 444.557 1083.38 446.109L868.089 570.466C863.521 573.092 859.829 570.961 859.829 565.708V502.14C860.003 499.269 860.852 496.481 862.307 494C863.762 491.52 865.782 489.418 868.203 487.866Z" fill="#2D485C"/>
<path d="M883.771 495.402L911.482 479.415C915.669 476.978 919.095 478.958 919.095 483.83V515.804C918.955 518.45 918.193 521.025 916.87 523.32C915.547 525.616 913.701 527.566 911.482 529.013L883.771 545.038C879.545 547.474 876.158 545.495 876.158 540.622V508.648C876.297 505.998 877.059 503.417 878.382 501.116C879.705 498.814 881.551 496.857 883.771 495.402Z" fill="#F0F0F0"/>
<path d="M938.013 464.075L1014.87 419.958C1017.38 418.512 1019.43 419.577 1019.43 422.356C1019.31 423.892 1018.84 425.378 1018.04 426.699C1017.25 428.02 1016.16 429.139 1014.87 429.969L938.089 474.276C935.539 475.761 933.483 474.657 933.483 471.878C933.569 470.312 934.024 468.789 934.811 467.433C935.599 466.076 936.696 464.926 938.013 464.075Z" fill="#F0F0F0"/>
<path d="M938.013 483.868L1071.96 406.293C1074.47 404.808 1076.53 405.912 1076.53 408.691C1076.41 410.227 1075.94 411.715 1075.14 413.036C1074.35 414.357 1073.26 415.476 1071.96 416.304L937.899 493.879C935.349 495.364 933.293 494.26 933.293 491.481C933.423 489.93 933.918 488.431 934.739 487.108C935.559 485.785 936.681 484.674 938.013 483.868Z" fill="#F0F0F0"/>
<path d="M938.013 503.7L1071.96 426.048C1074.47 424.602 1076.53 425.668 1076.53 428.446C1076.41 429.982 1075.93 431.468 1075.14 432.789C1074.35 434.11 1073.26 435.229 1071.96 436.059L937.899 513.635C935.349 515.081 933.293 514.016 933.293 511.199C933.446 509.669 933.952 508.195 934.771 506.894C935.59 505.593 936.7 504.5 938.013 503.7Z" fill="#F0F0F0"/>
<path opacity="0.8" d="M868.203 586.833L1083.38 462.515C1087.95 459.888 1091.64 462.02 1091.64 467.273V530.841C1091.49 533.702 1090.66 536.487 1089.22 538.967C1087.79 541.448 1085.79 543.554 1083.38 545.115L868.089 669.434C863.521 672.06 859.829 669.928 859.829 664.675V601.108C860.003 598.237 860.852 595.448 862.307 592.968C863.762 590.488 865.782 588.386 868.203 586.833Z" fill="#2D485C"/>
<path d="M883.771 594.37L911.482 578.383C915.669 575.947 919.095 577.926 919.095 582.798V614.773C918.949 617.422 918.185 620 916.862 622.301C915.54 624.601 913.697 626.56 911.482 628.019L883.771 644.006C879.545 646.442 876.158 644.463 876.158 639.591V607.616C876.297 604.966 877.059 602.385 878.382 600.084C879.705 597.783 881.551 595.825 883.771 594.37Z" fill="#F0F0F0"/>
<path d="M938.013 563.081L1014.87 518.926C1017.38 517.48 1019.43 518.546 1019.43 521.362C1019.31 522.898 1018.84 524.384 1018.04 525.705C1017.25 527.026 1016.16 528.145 1014.87 528.975L938.089 573.282C935.539 574.767 933.483 573.663 933.483 570.884C933.563 569.317 934.015 567.791 934.803 566.434C935.591 565.077 936.692 563.927 938.013 563.081Z" fill="#F0F0F0"/>
<path d="M938.013 582.836L1071.96 505.261C1074.47 503.776 1076.53 504.88 1076.53 507.659C1076.42 509.196 1075.95 510.686 1075.15 512.008C1074.36 513.331 1073.27 514.448 1071.96 515.272L937.899 592.885C935.349 594.332 933.293 593.266 933.293 590.449C933.423 588.897 933.918 587.399 934.739 586.076C935.559 584.752 936.681 583.642 938.013 582.836Z" fill="#F0F0F0"/>
<path d="M938.013 602.668L1071.96 525.017C1074.47 523.57 1076.53 524.636 1076.53 527.415C1076.41 528.95 1075.93 530.437 1075.14 531.758C1074.35 533.078 1073.26 534.198 1071.96 535.028L937.899 612.603C935.349 614.05 933.293 612.984 933.293 610.205C933.441 608.669 933.944 607.187 934.763 605.879C935.582 604.571 936.695 603.472 938.013 602.668Z" fill="#F0F0F0"/>
<path opacity="0.8" d="M868.203 685.801L1083.38 561.482C1087.95 558.855 1091.64 560.987 1091.64 566.24V629.808C1091.49 632.669 1090.66 635.454 1089.22 637.935C1087.79 640.415 1085.79 642.521 1083.38 644.082L868.089 768.401C863.521 771.027 859.829 768.896 859.829 763.643V700.075C860.003 697.205 860.852 694.416 862.307 691.935C863.762 689.455 865.782 687.353 868.203 685.801Z" fill="#2D485C"/>
<path d="M883.771 693.376L911.482 677.351C915.669 674.915 919.095 676.894 919.095 681.766V713.778C918.943 716.421 918.176 718.992 916.854 721.285C915.532 723.579 913.692 725.531 911.482 726.987L883.771 742.974C879.545 745.41 876.158 743.431 876.158 738.559V706.584C876.297 703.939 877.059 701.364 878.382 699.068C879.705 696.773 881.551 694.823 883.771 693.376Z" fill="#F0F0F0"/>
<path d="M938.013 662.048L1014.87 617.894C1017.38 616.447 1019.43 617.513 1019.43 620.33C1019.31 621.866 1018.84 623.353 1018.05 624.675C1017.25 625.996 1016.17 627.115 1014.87 627.943L938.089 672.288C935.539 673.734 933.483 672.668 933.483 669.852C933.563 668.284 934.015 666.759 934.803 665.401C935.591 664.044 936.692 662.895 938.013 662.048Z" fill="#F0F0F0"/>
<path d="M938.013 681.804L1071.96 604.229C1074.47 602.782 1076.53 603.848 1076.53 606.627C1076.41 608.162 1075.93 609.649 1075.14 610.969C1074.35 612.29 1073.26 613.41 1071.96 614.24L937.899 691.815C935.349 693.262 933.293 692.196 933.293 689.417C933.429 687.867 933.927 686.371 934.747 685.048C935.567 683.726 936.686 682.615 938.013 681.804Z" fill="#F0F0F0"/>
<path d="M938.013 701.636L1071.96 623.984C1074.47 622.538 1076.53 623.604 1076.53 626.421C1076.41 627.957 1075.94 629.444 1075.14 630.766C1074.35 632.087 1073.26 633.206 1071.96 634.033L937.899 711.609C935.349 713.093 933.293 711.99 933.293 709.211C933.429 707.666 933.927 706.175 934.747 704.859C935.567 703.543 936.686 702.438 938.013 701.636Z" fill="#F0F0F0"/>
<path d="M1442.64 1164.96C1533.94 1164.96 1607.95 1129.68 1607.95 1086.16C1607.95 1042.65 1533.94 1007.37 1442.64 1007.37C1351.33 1007.37 1277.32 1042.65 1277.32 1086.16C1277.32 1129.68 1351.33 1164.96 1442.64 1164.96Z" fill="#EBEBEB"/>
<path d="M1374.42 678.797H1446.4C1448.94 678.797 1451.45 678.297 1453.8 677.325C1456.14 676.352 1458.27 674.928 1460.06 673.131C1461.86 671.335 1463.28 669.203 1464.24 666.858C1465.21 664.512 1465.71 661.998 1465.7 659.461V506.327C1465.71 499.061 1464.28 491.864 1461.5 485.15C1458.73 478.435 1454.65 472.334 1449.52 467.194C1444.38 462.054 1438.28 457.977 1431.57 455.195C1424.86 452.413 1417.66 450.981 1410.39 450.981C1395.72 450.991 1381.65 456.827 1371.28 467.205C1360.91 477.583 1355.09 491.655 1355.09 506.327V659.422C1355.08 661.966 1355.57 664.487 1356.54 666.84C1357.5 669.193 1358.93 671.331 1360.73 673.132C1362.52 674.932 1364.66 676.36 1367.01 677.332C1369.36 678.304 1371.88 678.802 1374.42 678.797Z" fill="#263238"/>
<path d="M1456.95 478.768L1469.78 471.917C1469.37 471.052 1468.79 470.28 1468.07 469.645C1467.36 469.011 1466.52 468.528 1465.61 468.226C1464.71 467.923 1463.75 467.808 1462.79 467.886C1461.84 467.964 1460.91 468.235 1460.07 468.681C1458.34 469.633 1457.06 471.215 1456.47 473.096C1455.89 474.977 1456.06 477.01 1456.95 478.768Z" fill="#263238"/>
<path d="M1455.84 480.252L1469.47 485.353C1469.85 484.485 1470.06 483.549 1470.07 482.601C1470.08 481.653 1469.91 480.712 1469.55 479.832C1469.2 478.953 1468.67 478.153 1468 477.48C1467.34 476.807 1466.54 476.274 1465.66 475.913C1463.79 475.192 1461.7 475.244 1459.86 476.057C1458.02 476.87 1456.58 478.378 1455.84 480.252Z" fill="#263238"/>
<path d="M1536.54 996.408C1540.92 994.163 1543.66 999.72 1547.62 1004.02C1550.93 1007.25 1553.53 1011.14 1555.23 1015.44C1556.18 1020.73 1551.42 1028.99 1546.17 1033.56C1540.92 1038.13 1534.75 1041.4 1532.92 1051.41C1532.45 1056 1530.67 1060.35 1527.81 1063.97C1524.94 1067.58 1521.1 1070.3 1516.75 1071.81C1505.33 1076.72 1490.1 1075.16 1485 1071.81C1478.87 1068.01 1484.47 1063.55 1493.03 1051.26C1504.22 1035.27 1512.94 1023.81 1512.94 1008.89L1536.54 996.408Z" fill="#263238"/>
<path d="M1527.6 983.313L1536.77 996.75C1538.73 999.54 1539.5 1002.99 1538.92 1006.35C1538.35 1009.71 1536.46 1012.7 1533.69 1014.68L1533.38 1014.87C1530.6 1016.55 1527.31 1017.21 1524.1 1016.71C1520.88 1016.22 1517.94 1014.61 1515.8 1012.17L1501.48 996.522L1527.6 983.313Z" fill="#F28F8F"/>
<path d="M1362.43 727.71C1361.86 744.878 1358.82 807.646 1371.34 840.305C1378.28 858.959 1387.01 876.895 1397.41 893.862C1401.22 900.257 1508.64 1004.9 1508.64 1004.9C1508.64 1004.9 1526.87 1003.56 1529.76 985.864C1529.76 985.864 1485.72 910.991 1476.21 895.651C1466.69 880.311 1432.89 856.749 1432.89 856.749L1435.94 712.789L1362.43 727.71Z" fill="#455A64"/>
<path d="M1390.03 1053.07L1367.31 1047.91L1359.78 1081.01L1382.5 1086.18L1390.03 1053.07Z" fill="#F28F8F"/>
<path d="M1400.31 780.125C1392.54 772.928 1385.58 764.899 1379.56 756.183C1362.17 732.202 1364.83 710.886 1364.83 710.886H1371.95L1465.97 712.789C1475.26 728.015 1477.39 751.234 1474.15 773.692C1467.61 820.55 1428.82 901.589 1428.82 901.589C1429.39 907.984 1432.09 934.896 1425.96 958.686C1416.33 996.332 1390.07 1060.01 1390.07 1060.01C1390.07 1060.01 1373.62 1062.37 1365.44 1052.86C1365.44 1052.86 1379.98 923.438 1383.9 890.398C1388.16 854.656 1400.31 780.125 1400.31 780.125Z" fill="#455A64"/>
<path d="M1362.39 1069.76L1363.12 1066.52C1360.72 1066.98 1350.52 1083.92 1340.28 1091.26C1329.2 1099.33 1319.61 1104.09 1314.66 1107.75C1308.04 1112.58 1317.59 1122.55 1333.92 1123.43C1341.99 1123.89 1356.76 1121.41 1361.29 1117.11C1365.82 1112.81 1368.9 1105.69 1372.71 1102.57C1376.52 1099.45 1383.6 1096.75 1386.07 1092.79C1387.43 1088.87 1387.91 1084.7 1387.48 1080.57C1387.48 1076.31 1387.18 1071.62 1385.73 1071.7L1385.16 1074.17C1380.88 1076.34 1376.13 1077.38 1371.34 1077.22C1367.61 1077.03 1360.49 1076.15 1362.39 1069.76Z" fill="#263238"/>
<path d="M1386.79 868.587C1386.79 868.587 1397.76 790.783 1400.31 780.125C1400.31 780.125 1381.01 772.74 1375.07 766.003C1379.31 773.506 1385.56 779.676 1393.11 783.817L1386.79 868.587Z" fill="#263238"/>
<path d="M1444.99 866.304C1444.99 866.304 1433.39 895.233 1428.67 901.666C1428.67 901.666 1429.85 923.705 1429.69 928.311L1435.78 933.64C1435.96 923.648 1435.04 913.666 1433.04 903.873" fill="#263238"/>
<path d="M1367.72 658.09C1366.24 671.679 1362.43 727.71 1362.43 727.71C1407.39 751.729 1463.19 735.818 1471.72 725.921C1467.25 709.617 1458.54 694.788 1446.48 682.946L1461.02 642.332C1461.02 642.332 1462.77 638.144 1462.73 638.106C1456.06 631.423 1451.4 622.993 1449.29 613.783C1447.18 604.573 1447.71 594.956 1450.82 586.034C1451.19 584.904 1451.3 583.705 1451.14 582.526C1450.99 581.347 1450.56 580.219 1449.91 579.227C1449.25 578.234 1448.38 577.403 1447.36 576.796C1446.34 576.188 1445.19 575.82 1444 575.719L1431.1 574.691L1396.08 573.663C1387.71 574.12 1381.73 574.919 1381.73 574.919C1376.36 579.944 1367.91 593.723 1362.43 607.769C1358.89 616.828 1355.09 631.255 1367.72 658.09Z" fill="#2D485C"/>
<path d="M1451.62 656.986L1446.52 637.116L1440.16 682.984L1453.03 690.14L1446.44 682.946L1453.1 664.408L1451.62 656.986Z" fill="#2D485C"/>
<path opacity="0.2" d="M1451.62 656.986L1446.52 637.116L1440.16 682.984L1453.03 690.14L1446.44 682.946L1453.1 664.408L1451.62 656.986Z" fill="black"/>
<path d="M1374.84 475.076C1368.98 478.54 1361.79 493.233 1362.47 524.065C1363.08 550.177 1371.57 556.61 1375.79 558.323C1380.02 560.036 1388.24 559.046 1396.23 557.714V573.396C1396.23 573.396 1385.2 586.186 1385.92 593.38C1386.64 600.575 1401.79 602.249 1412.11 595.246C1419.58 589.469 1426.01 582.467 1431.14 574.538L1430.95 538.491C1430.95 538.491 1435.63 543.059 1443.59 536.093C1450.17 530.345 1452.38 520.677 1447.39 515.5C1446.06 514.268 1444.44 513.373 1442.69 512.889C1440.94 512.406 1439.1 512.348 1437.32 512.72C1435.54 513.092 1433.87 513.884 1432.46 515.03C1431.05 516.176 1429.93 517.642 1429.2 519.307C1418.75 518.867 1408.57 515.832 1399.58 510.476C1392.96 506.945 1387.27 501.897 1382.97 495.745C1378.67 489.592 1375.88 482.51 1374.84 475.076Z" fill="#F28F8F"/>
<path d="M1391.7 517.48C1391.67 517.92 1391.73 518.362 1391.87 518.78C1392.01 519.199 1392.23 519.585 1392.52 519.918C1392.81 520.25 1393.16 520.522 1393.56 520.718C1393.96 520.913 1394.39 521.029 1394.83 521.058C1395.72 521.079 1396.58 520.746 1397.23 520.133C1397.88 519.521 1398.26 518.676 1398.29 517.785C1398.34 516.902 1398.04 516.035 1397.46 515.372C1396.87 514.708 1396.05 514.303 1395.17 514.245C1394.28 514.224 1393.42 514.551 1392.78 515.156C1392.13 515.76 1391.74 516.595 1391.7 517.48Z" fill="#263238"/>
<g style="mix-blend-mode:multiply" opacity="0.5">
<path d="M1390.75 539.633L1383.14 542.069C1383.26 542.589 1383.49 543.078 1383.81 543.503C1384.13 543.929 1384.54 544.283 1385 544.541C1385.47 544.8 1385.99 544.957 1386.52 545.003C1387.05 545.05 1387.58 544.984 1388.09 544.81C1389.12 544.461 1389.97 543.727 1390.47 542.761C1390.97 541.795 1391.07 540.673 1390.75 539.633Z" fill="#F28F8F"/>
</g>
<path d="M1364.72 507.507L1371.38 502.901C1371.1 502.447 1370.74 502.055 1370.31 501.75C1369.87 501.445 1369.38 501.234 1368.86 501.13C1368.34 501.026 1367.81 501.032 1367.29 501.147C1366.77 501.262 1366.29 501.483 1365.86 501.797C1364.96 502.415 1364.35 503.356 1364.13 504.421C1363.92 505.487 1364.13 506.593 1364.72 507.507Z" fill="#263238"/>
<path d="M1366.24 515.12C1366.17 515.577 1366.2 516.043 1366.33 516.488C1366.45 516.932 1366.67 517.346 1366.96 517.702C1367.26 518.058 1367.62 518.348 1368.04 518.555C1368.45 518.761 1368.9 518.879 1369.36 518.9C1369.83 518.921 1370.29 518.846 1370.72 518.679C1371.15 518.511 1371.54 518.256 1371.86 517.928C1372.19 517.601 1372.44 517.209 1372.61 516.778C1372.77 516.347 1372.85 515.886 1372.82 515.424C1372.89 514.967 1372.86 514.501 1372.73 514.057C1372.61 513.612 1372.39 513.198 1372.1 512.842C1371.8 512.486 1371.44 512.196 1371.03 511.989C1370.61 511.783 1370.16 511.665 1369.7 511.644C1369.24 511.623 1368.78 511.698 1368.35 511.866C1367.92 512.033 1367.53 512.288 1367.2 512.616C1366.87 512.943 1366.62 513.335 1366.45 513.766C1366.29 514.197 1366.22 514.659 1366.24 515.12Z" fill="#263238"/>
<g style="mix-blend-mode:multiply" opacity="0.5">
<path d="M1381.73 513.216L1381.24 533.01L1370.81 529.774L1381.73 513.216Z" fill="#F28F8F"/>
</g>
<g style="mix-blend-mode:multiply" opacity="0.5">
<path d="M1396.23 557.866C1404.61 556.762 1421.89 551.814 1424.59 544.962C1423.51 548.415 1421.4 551.455 1418.54 553.679C1413.36 558.132 1396.23 563.081 1396.23 563.081V557.866Z" fill="#F28F8F"/>
</g>
<path d="M1499.5 707.46C1499.27 704.605 1494.02 674.496 1490.37 657.633L1454.93 668.482L1460.6 692.082L1490.1 720.592C1493.06 720.043 1495.7 718.369 1497.45 715.92C1499.2 713.472 1499.94 710.44 1499.5 707.46Z" fill="#F28F8F"/>
<path d="M1444.01 575.718C1457.59 576.936 1475.52 578.954 1484.05 617.589C1492.04 653.865 1494.02 666.54 1494.02 666.54C1494.02 666.54 1483.52 679.825 1456.45 678.34L1446.52 637.078C1428.4 613.288 1434.22 596.197 1444.01 575.718Z" fill="#2D485C"/>
<path d="M1329.43 679.368C1324.56 670.309 1323.38 669.928 1320.49 667.949C1317.59 665.97 1299.82 663.343 1292.47 662.696C1283.79 661.973 1280.71 663.572 1283.14 671.032C1288.28 686.981 1303.93 720.859 1307.43 725.541C1309.71 728.586 1310.21 731.441 1319.95 732.392C1329.05 733.268 1340.47 733.763 1343.82 733.953C1347.17 734.143 1351.81 735.019 1348.81 725.122C1344.97 713.941 1340.54 702.976 1335.52 692.272C1331.75 684.088 1329.43 679.368 1329.43 679.368Z" fill="#263238"/>
<path d="M1460.6 692.082C1460.6 692.082 1381.88 700.418 1371.68 697.259C1361.48 694.099 1347.82 683.898 1340.43 679.673C1333.05 675.448 1327.79 675.105 1327.79 676.894C1327.79 678.683 1334.07 688.313 1335.41 692.12C1336.74 695.926 1328.59 696.117 1317.82 693.642C1307.05 691.168 1302.6 684.849 1299.89 688.542C1297.19 692.234 1305.87 710.124 1323.8 716.824C1341.73 723.523 1355.01 719.108 1369.82 719.717C1384.62 720.326 1469.43 726.949 1489.99 720.478C1490.51 717.187 1490.13 713.816 1488.87 710.729C1487.62 707.642 1485.54 704.958 1482.87 702.968C1476.24 697.903 1468.67 694.203 1460.6 692.082Z" fill="#F28F8F"/>
<path d="M281.247 1164.96C372.548 1164.96 446.562 1129.68 446.562 1086.16C446.562 1042.65 372.548 1007.37 281.247 1007.37C189.947 1007.37 115.933 1042.65 115.933 1086.16C115.933 1129.68 189.947 1164.96 281.247 1164.96Z" fill="#EBEBEB"/>
<path d="M346.452 664.105C337.85 611.652 346.452 569.248 345.272 555.773L372.45 614.392C372.45 614.392 375.838 646.823 378.084 669.472C380.063 689.38 383.07 714.236 388.475 730.147C389.459 732.958 391.435 735.313 394.033 736.77C400.999 740.576 403.892 744.916 409.259 750.054C413.408 753.861 416.872 754.965 416.377 756.297C415.684 757.801 414.445 758.985 412.91 759.608C411.375 760.23 409.661 760.244 408.117 759.647C404.64 758.476 401.317 756.892 398.22 754.927C400.817 760.956 404.379 766.523 408.764 771.409C418.737 782.638 419.46 789.756 400.314 790.745C388.285 791.355 378.426 784.351 368.263 758.276C364.332 748.742 361.1 738.933 358.595 728.929C352.923 702.893 349.041 679.978 346.452 664.105Z" fill="#FFA8A7"/>
<path d="M157.081 1019.67C152.513 1017.34 149.468 1023.13 145.433 1027.81C141.883 1031.22 139.116 1035.37 137.325 1039.95C136.335 1045.47 141.132 1054.15 146.803 1058.99C152.475 1063.82 158.679 1067.21 160.697 1077.68C161.188 1082.49 163.043 1087.06 166.044 1090.86C169.044 1094.65 173.066 1097.52 177.635 1099.11C189.55 1104.25 205.499 1102.57 210.904 1099.11C217.299 1094.96 211.475 1090.43 202.492 1077.56C190.768 1060.78 181.632 1048.82 181.632 1033.18L157.081 1019.67Z" fill="#263238"/>
<path d="M164.199 1004.93L156.814 1020.16C154.779 1023.1 153.981 1026.71 154.594 1030.23C155.207 1033.75 157.18 1036.89 160.088 1038.96L160.392 1039.15C163.305 1040.91 166.742 1041.59 170.103 1041.06C173.464 1040.54 176.534 1038.86 178.777 1036.3L191.681 1018.83L164.199 1004.93Z" fill="#FFA8A7"/>
<path d="M247.979 703.044C244.31 727.674 242.668 752.563 243.069 777.461C243.069 808.521 238.425 886.439 238.425 886.439C226.619 892.802 216.735 902.214 209.801 913.694C197.734 933.259 160.05 1011.48 160.05 1011.48C160.05 1011.48 170.252 1025.76 186.924 1026.14C186.924 1026.14 265.147 928.158 277.632 911.6C290.117 895.042 319.236 773.464 319.236 773.464L247.979 703.044Z" fill="#37474F"/>
<path d="M338.421 1054.99L362.592 1052.59L358.785 1014.37L332.521 1016.96L338.421 1054.99Z" fill="#FFA8A7"/>
<path d="M361.297 1039.65L360.917 1035.84C363.543 1036.68 372.603 1057.16 382.956 1066.87C394.375 1077.49 404.386 1084.18 409.601 1088.94C416.377 1095.34 404.196 1105.2 385.735 1103.86C376.599 1103.26 360.384 1098.38 355.892 1092.9C351.401 1087.42 350.297 1079.85 346.681 1075.85C343.064 1071.85 336.023 1068.24 333.815 1063.48C332.597 1060.85 333.282 1053.5 333.206 1048.25C333.206 1041.51 334.195 1038.24 335.984 1038.2C335.984 1038.77 336.441 1041.55 336.441 1041.55C339.312 1045.03 343.39 1047.3 347.861 1047.91C351.895 1048.29 362.515 1047.07 361.297 1039.65Z" fill="#263238"/>
<path d="M368.073 703.044L360.46 1021.8C360.46 1021.8 352.504 1029.87 332.52 1024.73C332.52 1024.73 312.232 940.187 311.09 919.974C310.711 905.863 312.312 891.769 315.848 878.103L307.931 806.428L247.979 703.044H368.073Z" fill="#37474F"/>
<path d="M308.73 813.66C308.73 812.937 322.357 763.11 322.357 763.11C322.357 763.11 349.002 758.619 358.062 752.3C358.062 752.3 342.836 766.46 328.333 769.086L313.107 815.182L313.716 858.195L308.73 813.66Z" fill="#263238"/>
<path d="M328.333 540.47C346.681 540.661 362.592 543.401 368.073 563.309C372.907 581.504 377.246 640.846 377.246 640.846C377.246 640.846 372.526 647.241 346.795 645.566L328.333 540.47Z" fill="#263238"/>
<path d="M290.611 541.765C270.932 543.402 247.18 545.571 236.674 568.677C225.026 594.142 212.351 639.02 212.351 639.02C219.202 647.013 233.134 654.702 244.553 651.239L254.069 629.77L247.979 703.235C265.108 721.886 330.693 730.565 368.073 703.235C368.073 703.235 365.294 603.315 364.761 584.321C364.152 562.51 357.491 542.45 328.333 540.661L290.611 541.765Z" fill="#455A64"/>
<path d="M254.069 629.579L270.285 603.848L252.128 653.065L254.069 629.579Z" fill="#263238"/>
<path d="M270.285 475.418L278.355 507.506C279.194 510.837 281.122 513.792 283.832 515.902C286.542 518.012 289.88 519.157 293.314 519.154H302.792V474.619L270.285 475.418Z" fill="#263238"/>
<path d="M335.261 497.914C354.16 497.914 369.481 482.593 369.481 463.694C369.481 444.795 354.16 429.474 335.261 429.474C316.362 429.474 301.041 444.795 301.041 463.694C301.041 482.593 316.362 497.914 335.261 497.914Z" fill="#263238"/>
<path d="M282.39 444.282C280.422 444.049 278.428 444.272 276.561 444.932C274.693 445.592 273.002 446.672 271.617 448.088C267.011 452.808 267.811 461.563 271.617 481.661L285.891 483.336L282.39 444.282Z" fill="#263238"/>
<path d="M289.089 483.298C286.995 484.554 283.95 480.481 281.476 477.74C280.445 476.566 279.133 475.674 277.663 475.147C276.193 474.619 274.613 474.475 273.072 474.726C271.53 474.977 270.078 475.616 268.851 476.583C267.625 477.55 266.664 478.812 266.059 480.252C261.72 489.388 268.534 501.454 275.043 504.157C277.352 505.305 280.017 505.51 282.475 504.729C284.933 503.947 286.991 502.241 288.213 499.97L290.611 541.765C293.174 547.369 297.084 552.252 301.992 555.978C306.9 559.704 312.654 562.157 318.741 563.119C339.296 565.936 335.07 548.997 328.333 540.661V527.947C333.483 528.855 338.724 529.123 343.94 528.747C351.552 527.376 355.131 520.411 358.671 511.503C365.242 493.608 366.562 474.207 362.477 455.587C356.425 423.993 321.443 423.308 301.574 435.945C281.704 448.583 289.089 483.298 289.089 483.298Z" fill="#FFA8A7"/>
<path d="M289.089 486.876C288.023 486.876 283.988 480.138 281.476 477.74C277.669 474.429 282.541 444.282 282.541 444.282C284.407 419.54 320.872 417.636 330.921 416.951C354.027 415.315 369.709 428.066 363.467 444.167C359.28 451.476 350.753 453.493 342.76 454.483C329.171 456.12 306.027 448.849 303.134 448.431C299.328 447.898 298.376 451.704 296.245 462.134C294.227 471.269 292.705 486.8 289.089 486.876Z" fill="#263238"/>
<path d="M282.427 446.603L269.6 439.714C270.012 438.852 270.594 438.084 271.31 437.453C272.027 436.823 272.864 436.344 273.771 436.045C274.678 435.746 275.635 435.634 276.587 435.715C277.538 435.796 278.463 436.068 279.306 436.516C281.03 437.468 282.318 439.05 282.9 440.931C283.482 442.811 283.312 444.845 282.427 446.603Z" fill="#263238"/>
<path d="M328.295 527.757C328.295 527.757 309.263 523.951 302.602 520.411C298.692 518.378 295.493 515.206 293.428 511.313C294.442 515.2 296.214 518.849 298.643 522.048C303.515 528.252 328.295 532.82 328.295 532.82V527.757Z" fill="#F28F8F"/>
<path d="M328.904 482.612C328.904 483.622 328.503 484.59 327.79 485.304C327.076 486.018 326.107 486.419 325.098 486.419C324.088 486.419 323.12 486.018 322.406 485.304C321.693 484.59 321.292 483.622 321.292 482.612C321.292 481.603 321.693 480.634 322.406 479.921C323.12 479.207 324.088 478.806 325.098 478.806C326.107 478.806 327.076 479.207 327.79 479.921C328.503 480.634 328.904 481.603 328.904 482.612Z" fill="#263238"/>
<path d="M324.831 468.186L316.686 472.716C316.114 471.593 315.993 470.294 316.347 469.084C316.701 467.875 317.502 466.845 318.589 466.207C319.127 465.918 319.717 465.741 320.325 465.684C320.933 465.628 321.546 465.694 322.128 465.878C322.71 466.063 323.249 466.362 323.713 466.758C324.178 467.155 324.558 467.64 324.831 468.186Z" fill="#263238"/>
<path d="M326.582 508.078L335.261 511.351C335.068 511.932 334.761 512.468 334.359 512.929C333.957 513.39 333.467 513.766 332.917 514.035C332.368 514.304 331.771 514.461 331.16 514.497C330.549 514.533 329.938 514.447 329.361 514.244C328.189 513.776 327.245 512.872 326.727 511.722C326.209 510.572 326.157 509.265 326.582 508.078Z" fill="#F28F8F"/>
<path d="M360.917 471.384L353.304 465.636C353.655 465.135 354.104 464.71 354.624 464.388C355.143 464.065 355.723 463.851 356.328 463.759C356.933 463.666 357.55 463.697 358.142 463.85C358.734 464.002 359.29 464.273 359.775 464.646C360.787 465.413 361.469 466.537 361.681 467.789C361.893 469.04 361.62 470.326 360.917 471.384Z" fill="#263238"/>
<path d="M358.633 480.405C358.633 481.157 358.41 481.893 357.991 482.519C357.573 483.145 356.979 483.633 356.283 483.921C355.588 484.209 354.822 484.285 354.084 484.138C353.345 483.991 352.667 483.629 352.135 483.096C351.603 482.564 351.24 481.886 351.093 481.147C350.946 480.409 351.022 479.643 351.31 478.948C351.598 478.252 352.086 477.658 352.712 477.24C353.338 476.821 354.074 476.598 354.826 476.598C355.836 476.598 356.804 476.999 357.518 477.713C358.232 478.427 358.633 479.395 358.633 480.405Z" fill="#263238"/>
<path d="M342.645 481.052L339.029 503.738L351.591 502.254L342.645 481.052Z" fill="#F28F8F"/>
<path d="M265.831 469.175C265.831 469.175 308.235 513.635 310.747 516.947C313.26 520.258 287.147 545.952 282.694 542.945C278.24 539.938 241.508 499.894 238.349 496.354C233.362 490.682 261.758 465.103 265.831 469.175Z" fill="#263238"/>
<path d="M249.768 508.686C251.735 504.415 254.577 500.604 258.112 497.502C261.647 494.4 265.794 492.077 270.285 490.682C282.047 486.533 293.809 498.295 290.193 508.077C288.937 511.579 280.22 526.006 277.213 533.01C275.31 537.501 269.828 539.024 266.936 546.37C256.43 573.016 255.516 616.143 245.467 644.387C243.558 651.379 239.577 657.629 234.048 662.315C230.192 665.489 225.243 667.02 220.268 666.578C207.479 664.751 207.631 637.878 209.763 621.89C212.351 602.325 244.516 538.605 244.325 534.685C243.83 524.75 243.145 521.019 242.917 512.988C243.23 509.589 243.725 506.209 244.401 502.863L249.768 508.686Z" fill="#FFA8A7"/>
</svg>
