<svg width="412" height="383" viewBox="0 0 412 383" fill="none" xmlns="http://www.w3.org/2000/svg">
<path d="M41.2824 356.803H68.5732V357.062H41.2824V356.803Z" fill="#EBEBEB"/>
<path d="M139.075 359.628H146.235V359.888H139.075V359.628Z" fill="#EBEBEB"/>
<path d="M69.3974 347.163H85.21V347.423H69.3974V347.163Z" fill="#EBEBEB"/>
<path d="M333.184 348.908H368.773V349.168H333.184V348.908Z" fill="#EBEBEB"/>
<path d="M320.626 348.908H325.842V349.168H320.626V348.908Z" fill="#EBEBEB"/>
<path d="M226.476 353.291H303.668V353.551H226.476V353.291Z" fill="#EBEBEB"/>
<path d="M215.558 293.76H374.673C375.921 293.76 377.117 293.136 378 292.023C378.882 290.911 379.378 289.402 379.378 287.829V5.87936C379.367 4.3153 378.867 2.81996 377.985 1.71884C377.104 0.61771 375.914 -5.99632e-05 374.673 4.36542e-09H215.558C214.941 4.36543e-09 214.329 0.153416 213.758 0.451492C213.187 0.749568 212.668 1.18647 212.232 1.73724C211.795 2.28801 211.448 2.94187 211.212 3.66149C210.975 4.38111 210.853 5.15239 210.853 5.9313V287.829C210.853 288.608 210.975 289.379 211.212 290.099C211.448 290.819 211.795 291.472 212.232 292.023C212.668 292.574 213.187 293.011 213.758 293.309C214.329 293.607 214.941 293.76 215.558 293.76ZM374.673 0.207752C375.865 0.210498 377.009 0.808922 377.852 1.87196C378.695 2.935 379.17 4.376 379.172 5.87936V287.829C379.17 289.332 378.695 290.773 377.852 291.836C377.009 292.9 375.865 293.498 374.673 293.501H215.558C214.366 293.498 213.223 292.9 212.38 291.836C211.536 290.773 211.062 289.332 211.059 287.829V5.87936C211.062 4.376 211.536 2.935 212.38 1.87196C213.223 0.808922 214.366 0.210498 215.558 0.207752H374.673Z" fill="#EBEBEB"/>
<path d="M37.327 293.76H196.441C197.689 293.76 198.886 293.136 199.768 292.023C200.651 290.911 201.146 289.402 201.146 287.829V5.87936C201.136 4.3153 200.635 2.81996 199.754 1.71884C198.873 0.61771 197.682 -5.99632e-05 196.441 4.36542e-09H37.327C36.0792 4.36544e-09 34.8824 0.624903 34.0001 1.73724C33.1177 2.84957 32.622 4.35822 32.622 5.9313V287.829C32.622 289.402 33.1177 290.911 34.0001 292.023C34.8824 293.136 36.0792 293.76 37.327 293.76ZM196.441 0.207752C197.634 0.210498 198.777 0.808922 199.62 1.87196C200.464 2.935 200.938 4.376 200.94 5.87936V287.829C200.938 289.332 200.464 290.773 199.62 291.836C198.777 292.9 197.634 293.498 196.441 293.501H37.327C36.1345 293.498 34.9914 292.9 34.1481 291.836C33.3049 290.773 32.8302 289.332 32.828 287.829V5.87936C32.8302 4.376 33.3049 2.935 34.1481 1.87196C34.9914 0.808922 36.1345 0.210498 37.327 0.207752H196.441Z" fill="#EBEBEB"/>
<path d="M0 340.089H412V340.349H0V340.089Z" fill="#EBEBEB"/>
<path d="M78.7661 37.7381H100.923C107.95 37.7381 113.646 44.9187 113.646 53.7765V81.7087C113.646 90.5664 107.95 97.7471 100.923 97.7471H78.7661C71.7396 97.7471 66.0435 90.5664 66.0435 81.7087V53.7765C66.0435 44.9187 71.7396 37.7381 78.7661 37.7381Z" fill="#F0F0F0"/>
<path d="M83.9242 59.2612C83.9242 64.3719 85.9842 68.5062 90.0383 68.5062C94.0923 68.5062 96.1523 64.3512 96.1523 59.2612C96.1523 54.1713 94.0923 50.0059 90.0383 50.0059C85.9842 50.0059 83.9242 54.1506 83.9242 59.2612Z" fill="#FAFAFA"/>
<path d="M90.0385 85.4691H78.725V76.9929C78.725 72.3081 83.7926 68.5062 90.0385 68.5062C96.2844 68.5062 101.352 72.3081 101.352 76.9929V85.4691H90.0385Z" fill="#FAFAFA"/>
<path d="M287.172 57.8589H302.647C307.552 57.8589 311.529 62.8724 311.529 69.0568V88.5646C311.529 94.749 307.552 99.7624 302.647 99.7624H287.172C282.266 99.7624 278.289 94.749 278.289 88.5646V69.0568C278.289 62.8724 282.266 57.8589 287.172 57.8589Z" fill="#E6E6E6"/>
<path d="M295.585 81.0749C295.086 80.2007 294.508 79.4025 293.863 78.6961C293.423 78.2055 293.015 77.6705 292.644 77.0964C292.389 76.6718 292.253 76.1534 292.256 75.6214C292.247 75.2581 292.31 74.8977 292.44 74.573C292.569 74.2483 292.761 73.9695 292.998 73.762C293.581 73.28 294.271 73.0436 294.967 73.0868C295.697 73.0651 296.42 73.2759 297.069 73.6997C297.683 74.117 298.213 74.707 298.618 75.424L301.658 73.1803C300.951 71.8337 299.965 70.7562 298.807 70.064C297.472 69.283 296.011 68.9026 294.539 68.9526C292.903 68.8553 291.283 69.3957 289.9 70.5003C289.345 70.9715 288.894 71.612 288.589 72.3621C288.283 73.1122 288.133 73.9476 288.153 74.7904C288.139 75.5744 288.257 76.3531 288.499 77.0757C288.699 77.6832 288.977 78.2448 289.323 78.7377C289.653 79.1947 290.073 79.7141 290.592 80.3062C291.089 80.8388 291.544 81.4301 291.951 82.0721C292.244 82.5697 292.395 83.1772 292.38 83.7964H296.179C296.209 82.8337 296.002 81.8828 295.585 81.0749ZM295.989 90.9119C296.215 90.648 296.394 90.326 296.514 89.9677C296.633 89.6093 296.69 89.2229 296.681 88.8344C296.688 88.458 296.63 88.0841 296.512 87.7383C296.394 87.3924 296.219 87.0825 295.997 86.8296C295.515 86.3067 294.899 86.0192 294.263 86.0192C293.626 86.0192 293.011 86.3067 292.528 86.8296C292.309 87.0834 292.134 87.3937 292.018 87.7396C291.901 88.0854 291.845 88.4587 291.853 88.8344C291.844 89.2229 291.901 89.6093 292.02 89.9677C292.14 90.326 292.318 90.648 292.545 90.9119C293.015 91.4535 293.63 91.7538 294.267 91.7538C294.904 91.7538 295.518 91.4535 295.989 90.9119Z" fill="#FAFAFA"/>
<path d="M81.0487 201.301H69.076C67.2512 201.301 65.5012 202.215 64.2108 203.841C62.9205 205.468 62.1956 207.674 62.1956 209.974V225.068C62.1956 227.365 62.9196 229.569 64.2084 231.193C65.4972 232.818 67.2452 233.731 69.0678 233.731H81.0487C82.8713 233.731 84.6193 232.818 85.9081 231.193C87.1969 229.569 87.9209 227.365 87.9209 225.068V209.974C87.9209 207.677 87.1969 205.473 85.9081 203.849C84.6193 202.224 82.8713 201.311 81.0487 201.311V201.301Z" fill="#EBEBEB"/>
<path d="M75.5937 219.271C75.2065 218.595 74.7585 217.978 74.2588 217.433C73.9159 217.051 73.599 216.634 73.3112 216.186C73.1148 215.861 73.0103 215.462 73.0146 215.054C73.0059 214.773 73.0544 214.493 73.1553 214.243C73.2563 213.992 73.4064 213.778 73.5914 213.62C74.0411 213.242 74.5757 213.056 75.1158 213.091C75.6681 213.07 76.2156 213.225 76.708 213.54C77.2004 213.856 77.622 214.323 77.9339 214.898L80.2905 213.163C79.7461 212.112 78.9819 211.271 78.0822 210.733C77.0505 210.13 75.9228 209.835 74.7862 209.87C73.5185 209.793 72.2631 210.214 71.1936 211.075C70.7626 211.441 70.4125 211.939 70.1761 212.522C69.9397 213.106 69.8248 213.755 69.8422 214.41C69.8327 215.015 69.9224 215.616 70.1059 216.176C70.2611 216.648 70.4784 217.083 70.7486 217.464C71.0572 217.892 71.3845 218.297 71.7292 218.679C72.111 219.094 72.4639 219.549 72.7839 220.04C73.0051 220.43 73.1207 220.9 73.1135 221.38H76.0469C76.0725 220.635 75.9142 219.898 75.5937 219.271ZM75.9068 226.885C76.0787 226.684 76.2147 226.44 76.3056 226.167C76.3966 225.895 76.4404 225.602 76.4342 225.306C76.4391 225.015 76.3954 224.726 76.306 224.458C76.2166 224.189 76.0834 223.948 75.9151 223.748C75.5406 223.345 75.0644 223.124 74.572 223.124C74.0796 223.124 73.6033 223.345 73.2288 223.748C73.059 223.947 72.9243 224.188 72.8335 224.456C72.7426 224.725 72.6976 225.014 72.7015 225.306C72.6963 225.602 72.7414 225.896 72.8338 226.169C72.9262 226.441 73.0637 226.685 73.2371 226.885C73.4132 227.102 73.6223 227.272 73.8516 227.384C74.081 227.496 74.326 227.549 74.572 227.54C74.8177 227.547 75.0622 227.493 75.2913 227.381C75.5204 227.268 75.7296 227.1 75.9068 226.885Z" fill="#FAFAFA"/>
<path d="M315.501 120.704H330.976C335.882 120.704 339.859 125.717 339.859 131.902V151.409C339.859 157.594 335.882 162.607 330.976 162.607H315.501C310.596 162.607 306.619 157.594 306.619 151.409V131.902C306.619 125.717 310.596 120.704 315.501 120.704Z" fill="#EBEBEB"/>
<path d="M323.239 129.845C324.226 129.845 325.204 130.09 326.116 130.567C327.029 131.043 327.857 131.742 328.555 132.623C329.253 133.504 329.807 134.549 330.184 135.7C330.561 136.85 330.754 138.084 330.753 139.328C330.753 144.522 327.391 157.112 323.239 157.112C319.086 157.112 315.724 144.553 315.724 139.328C315.723 138.084 315.916 136.85 316.293 135.7C316.67 134.549 317.224 133.504 317.922 132.623C318.62 131.742 319.449 131.043 320.361 130.567C321.273 130.09 322.251 129.845 323.239 129.845ZM323.239 142.185C323.687 142.185 324.125 142.017 324.497 141.704C324.87 141.39 325.161 140.944 325.332 140.422C325.504 139.9 325.548 139.325 325.461 138.771C325.374 138.217 325.158 137.708 324.841 137.309C324.524 136.909 324.12 136.637 323.681 136.527C323.241 136.417 322.785 136.473 322.371 136.689C321.957 136.906 321.603 137.272 321.354 137.741C321.105 138.211 320.973 138.763 320.973 139.328C320.981 140.079 321.224 140.795 321.648 141.322C322.072 141.848 322.643 142.144 323.239 142.143V142.185Z" fill="#FAFAFA"/>
<path d="M319.918 198.86C319.676 196.936 319.676 194.977 319.918 193.053L322.234 192.669C322.42 191.596 322.697 190.552 323.058 189.552L321.36 187.527C322.066 185.795 322.98 184.211 324.071 182.832L326.131 184.244C326.768 183.517 327.464 182.876 328.208 182.333L327.779 179.435C329.148 178.547 330.619 177.937 332.138 177.627L333.135 180.276C333.555 180.224 333.959 180.193 334.421 180.193C334.882 180.193 335.294 180.193 335.714 180.276L336.711 177.627C338.239 177.931 339.718 178.537 341.095 179.424L340.667 182.323C341.41 182.866 342.106 183.506 342.743 184.234L344.803 182.821C345.894 184.2 346.808 185.784 347.514 187.516L345.817 189.542C346.178 190.541 346.454 191.586 346.641 192.658L348.948 193.043C349.2 194.965 349.2 196.927 348.948 198.849L346.641 199.234C346.454 200.306 346.178 201.351 345.817 202.35L347.514 204.375C346.81 206.109 345.895 207.693 344.803 209.071L342.743 207.658C342.106 208.385 341.41 209.026 340.667 209.569L341.095 212.467C339.718 213.355 338.239 213.961 336.711 214.264L335.714 211.616C335.294 211.668 334.89 211.699 334.421 211.699C333.951 211.699 333.597 211.699 333.135 211.616L332.138 214.264C330.611 213.961 329.131 213.355 327.754 212.467L328.183 209.569C327.439 209.026 326.743 208.385 326.106 207.658L324.046 209.071C322.956 207.692 322.041 206.108 321.335 204.375L323.008 202.329C322.648 201.329 322.372 200.285 322.184 199.213L319.918 198.86ZM334.421 202.423C335.437 202.425 336.43 202.047 337.276 201.336C338.121 200.626 338.78 199.615 339.17 198.432C339.56 197.25 339.662 195.947 339.464 194.691C339.266 193.435 338.777 192.281 338.059 191.375C337.34 190.469 336.425 189.853 335.428 189.604C334.432 189.354 333.399 189.483 332.461 189.974C331.522 190.465 330.72 191.296 330.157 192.362C329.594 193.428 329.294 194.681 329.295 195.961C329.297 197.674 329.838 199.316 330.799 200.527C331.76 201.738 333.062 202.42 334.421 202.423Z" fill="#EBEBEB"/>
<path d="M312.486 219.759C312.426 219.278 312.396 218.792 312.395 218.305C312.396 217.818 312.426 217.332 312.486 216.851L313.647 216.664C313.736 216.132 313.868 215.613 314.043 215.116L313.219 214.077C313.572 213.206 314.03 212.411 314.579 211.719L315.609 212.426C315.929 212.064 316.276 211.744 316.647 211.47L316.433 210.026C317.121 209.58 317.86 209.275 318.624 209.122L319.119 210.452C319.333 210.452 319.547 210.452 319.762 210.452C319.976 210.452 320.198 210.452 320.413 210.452L320.907 209.122C321.671 209.275 322.411 209.58 323.099 210.026L322.885 211.47C323.255 211.744 323.603 212.064 323.923 212.426L324.953 211.719C325.501 212.411 325.96 213.206 326.312 214.077L325.488 215.116C325.663 215.613 325.796 216.132 325.884 216.664L327.037 216.851C327.101 217.331 327.132 217.818 327.128 218.305C327.131 218.792 327.101 219.279 327.037 219.759L325.884 219.946C325.796 220.475 325.663 220.99 325.488 221.484L326.312 222.522C325.959 223.389 325.5 224.181 324.953 224.87L323.923 224.163C323.607 224.531 323.259 224.852 322.885 225.119L323.099 226.563C322.411 227.009 321.671 227.314 320.907 227.467L320.413 226.137C319.982 226.193 319.549 226.193 319.119 226.137L318.624 227.467C317.86 227.314 317.121 227.009 316.433 226.563L316.647 225.119C316.273 224.852 315.924 224.531 315.609 224.163L314.579 224.87C314.031 224.181 313.572 223.389 313.219 222.522L314.043 221.484C313.868 220.99 313.736 220.475 313.647 219.946L312.486 219.759ZM319.737 221.535C320.244 221.535 320.739 221.346 321.161 220.991C321.582 220.636 321.91 220.132 322.104 219.541C322.298 218.951 322.349 218.301 322.25 217.675C322.151 217.048 321.907 216.472 321.549 216.021C321.191 215.569 320.734 215.261 320.237 215.136C319.74 215.012 319.224 215.076 318.756 215.32C318.288 215.565 317.888 215.979 317.606 216.51C317.324 217.041 317.174 217.666 317.174 218.305C317.176 219.156 317.444 219.971 317.918 220.575C318.393 221.18 319.037 221.525 319.712 221.535H319.737Z" fill="#E0E0E0"/>
<path d="M57.8945 198.797C57.5836 198.508 57.289 198.193 57.0128 197.852C56.7404 197.507 56.4897 197.135 56.263 196.741L56.9716 195.577C56.7374 195.124 56.5439 194.64 56.3948 194.133H55.2247C54.9848 193.208 54.8625 192.24 54.8621 191.266L55.991 190.851C56.0078 190.31 56.0742 189.773 56.1888 189.251L55.2247 188.42C55.4579 187.491 55.8115 186.617 56.2712 185.834L57.3671 186.322C57.5012 186.111 57.6442 185.91 57.7956 185.719C57.9522 185.522 58.1087 185.345 58.2735 185.169L57.8862 183.787C58.5126 183.218 59.2046 182.773 59.938 182.468L60.5972 183.683C61.0156 183.549 61.4433 183.466 61.8744 183.434L62.204 182.021C62.9766 182.018 63.7446 182.173 64.4782 182.478V183.943C64.8791 184.139 65.2629 184.386 65.6236 184.681L66.5547 183.787C67.1857 184.369 67.7416 185.069 68.2027 185.865L67.4941 187.028C67.7264 187.488 67.9224 187.975 68.0791 188.482H69.241C69.4795 189.408 69.6018 190.376 69.6035 191.349L68.4829 191.765C68.4584 192.305 68.3922 192.841 68.2851 193.365L69.2492 194.206C69.0074 195.131 68.6544 196.003 68.2027 196.793L67.1068 196.294C66.9667 196.502 66.8266 196.709 66.6701 196.907C66.5135 197.104 66.3569 197.281 66.1921 197.447L66.5794 198.828C65.9579 199.408 65.2647 199.854 64.5277 200.148L63.8685 198.932C63.4545 199.077 63.0287 199.161 62.5995 199.182L62.2699 200.605C61.4948 200.604 60.7246 200.449 59.9874 200.148V198.673C59.5868 198.481 59.2029 198.237 58.8421 197.946L57.8945 198.797ZM64.0168 193.604C64.375 193.152 64.6188 192.576 64.7176 191.949C64.8163 191.323 64.7654 190.673 64.5714 190.083C64.3774 189.493 64.0489 188.989 63.6275 188.634C63.2061 188.279 62.7107 188.09 62.204 188.09C61.6972 188.09 61.2019 188.279 60.7805 188.634C60.3591 188.989 60.0306 189.493 59.8366 190.083C59.6426 190.673 59.5917 191.323 59.6904 191.949C59.7892 192.576 60.033 193.152 60.3912 193.604C60.6292 193.904 60.912 194.143 61.2234 194.305C61.5349 194.468 61.8687 194.551 62.2057 194.55C62.5427 194.549 62.8763 194.464 63.1871 194.3C63.4979 194.135 63.7799 193.895 64.0168 193.593V193.604Z" fill="#F0F0F0"/>
<path d="M206 383C117.764 383 46.2349 377.735 46.2349 371.241C46.2349 364.747 117.764 359.482 206 359.482C294.236 359.482 365.766 364.747 365.766 371.241C365.766 377.735 294.236 383 206 383Z" fill="#F5F5F5"/>
<path d="M176.698 61.0379V44.854L170.386 43.7322V59.916L176.698 61.0379Z" fill="#263238"/>
<path d="M197.686 70.0545L202.416 60.5603L198.386 56.9246L193.665 66.4085L197.686 70.0545Z" fill="#263238"/>
<path d="M153.429 59.2722L148.699 48.116L144.678 50.3285L149.399 61.4952L153.429 59.2722Z" fill="#263238"/>
<g opacity="0.5">
<path d="M176.699 61.0382V44.8543L170.387 43.7325V59.9163L176.699 61.0382Z" fill="white"/>
<path d="M197.686 70.0548L202.416 60.5606L198.386 56.9249L193.665 66.4088L197.686 70.0548Z" fill="white"/>
<path d="M153.429 59.2725L148.699 48.1163L144.678 50.3288L149.399 61.4955L153.429 59.2725Z" fill="white"/>
</g>
<path d="M169.488 46.3396L177.596 47.7835C177.891 47.852 178.194 47.8364 178.483 47.738C178.772 47.6395 179.039 47.4606 179.266 47.2145C179.493 46.9683 179.673 46.6611 179.794 46.3156C179.914 45.97 179.971 45.5949 179.961 45.2177C179.943 44.3929 179.696 43.6023 179.264 42.9821C178.833 42.362 178.243 41.9513 177.596 41.821L169.488 40.3875C169.195 40.3192 168.893 40.3345 168.604 40.4324C168.316 40.5303 168.049 40.7083 167.822 40.9533C167.595 41.1983 167.415 41.5041 167.294 41.8483C167.173 42.1926 167.115 42.5665 167.123 42.9428C167.144 43.767 167.391 44.5567 167.822 45.1764C168.254 45.7961 168.843 46.2074 169.488 46.3396Z" fill="#263238"/>
<path d="M197.076 56.665L203.083 62.1081C203.208 62.2397 203.353 62.3375 203.509 62.3955C203.665 62.4534 203.829 62.4703 203.99 62.445C204.152 62.4196 204.308 62.3527 204.448 62.2482C204.588 62.1438 204.71 62.0042 204.805 61.838C204.963 61.457 205.004 61.0154 204.919 60.5989C204.833 60.1823 204.628 59.8206 204.344 59.5839L198.328 54.1512C198.205 54.0183 198.06 53.9194 197.905 53.8606C197.749 53.8019 197.585 53.7847 197.424 53.8101C197.263 53.8355 197.108 53.903 196.968 54.0082C196.829 54.1134 196.708 54.2541 196.614 54.4213C196.456 54.8007 196.416 55.2406 196.501 55.6554C196.587 56.0702 196.792 56.4301 197.076 56.665Z" fill="#263238"/>
<path d="M144.002 51.6375L150.017 48.3342C150.161 48.2424 150.287 48.114 150.389 47.9572C150.491 47.8004 150.566 47.6186 150.61 47.4233C150.653 47.228 150.664 47.0234 150.641 46.8226C150.619 46.6218 150.563 46.4291 150.479 46.2567C150.328 45.868 150.069 45.5629 149.751 45.3999C149.434 45.237 149.079 45.2277 148.756 45.3738L142.749 48.6874C142.604 48.7768 142.476 48.904 142.372 49.0605C142.269 49.217 142.192 49.3994 142.149 49.5956C142.105 49.7919 142.095 49.9975 142.119 50.1991C142.143 50.4006 142.201 50.5934 142.288 50.7649C142.438 51.151 142.696 51.4536 143.012 51.6146C143.329 51.7757 143.681 51.7838 144.002 51.6375Z" fill="#263238"/>
<path opacity="0.7" d="M169.488 46.3396L177.596 47.7835C177.891 47.852 178.194 47.8364 178.483 47.738C178.772 47.6395 179.039 47.4606 179.266 47.2145C179.493 46.9683 179.673 46.6611 179.794 46.3156C179.914 45.97 179.971 45.5949 179.961 45.2177C179.943 44.3929 179.696 43.6023 179.264 42.9821C178.833 42.362 178.243 41.9513 177.596 41.821L169.488 40.3875C169.195 40.3192 168.893 40.3345 168.604 40.4324C168.316 40.5303 168.049 40.7083 167.822 40.9533C167.595 41.1983 167.415 41.5041 167.294 41.8483C167.173 42.1926 167.115 42.5665 167.123 42.9428C167.144 43.767 167.391 44.5567 167.822 45.1764C168.254 45.7961 168.843 46.2074 169.488 46.3396Z" fill="white"/>
<path opacity="0.7" d="M197.076 56.665L203.083 62.1081C203.208 62.2397 203.353 62.3375 203.509 62.3955C203.665 62.4534 203.829 62.4703 203.99 62.445C204.152 62.4196 204.308 62.3527 204.448 62.2482C204.588 62.1438 204.71 62.0042 204.805 61.838C204.963 61.457 205.004 61.0154 204.919 60.5989C204.833 60.1823 204.628 59.8206 204.344 59.5839L198.328 54.1512C198.205 54.0183 198.06 53.9194 197.905 53.8606C197.749 53.8019 197.585 53.7847 197.424 53.8101C197.263 53.8355 197.108 53.903 196.968 54.0082C196.829 54.1134 196.708 54.2541 196.614 54.4213C196.456 54.8007 196.416 55.2406 196.501 55.6554C196.587 56.0702 196.792 56.4301 197.076 56.665Z" fill="white"/>
<path opacity="0.7" d="M144.002 51.6375L150.017 48.3342C150.161 48.2424 150.287 48.114 150.389 47.9572C150.491 47.8004 150.566 47.6186 150.61 47.4233C150.653 47.228 150.664 47.0234 150.641 46.8226C150.619 46.6218 150.563 46.4291 150.479 46.2567C150.328 45.868 150.069 45.5629 149.751 45.3999C149.434 45.237 149.079 45.2277 148.756 45.3738L142.749 48.6874C142.604 48.7768 142.476 48.904 142.372 49.0605C142.269 49.217 142.192 49.3994 142.149 49.5956C142.105 49.7919 142.095 49.9975 142.119 50.1991C142.143 50.4006 142.201 50.5934 142.288 50.7649C142.438 51.151 142.696 51.4536 143.012 51.6146C143.329 51.7757 143.681 51.7838 144.002 51.6375Z" fill="white"/>
<path d="M173.543 162.358C195.486 166.243 213.276 146.974 213.276 119.312C213.276 91.6501 195.486 66.0655 173.543 62.1805C151.599 58.2956 133.809 77.5645 133.809 105.227L128.387 104.271C128.387 72.8278 148.608 50.9308 173.543 55.3455C198.477 59.7602 218.698 88.835 218.698 120.268C218.698 151.701 198.485 173.608 173.543 169.193V162.358Z" fill="#2D485C"/>
<path d="M189.33 147.75L192.295 154.75L191.132 155.533L188.167 148.533L189.33 147.75Z" fill="#263238"/>
<path d="M155.968 68.9969L158.934 75.9976L157.771 76.7804L154.805 69.7797L155.968 68.9969Z" fill="#263238"/>
<path d="M204.75 94.1657L205.278 95.6888L200.143 98.5155L199.615 96.9924L204.75 94.1657Z" fill="#263238"/>
<path d="M190.638 76.3908L191.758 77.2717L188.802 83.2492L187.681 82.3683L190.638 76.3908Z" fill="#263238"/>
<path d="M200.249 135.439L205.391 140.09L204.622 141.44L199.48 136.789L200.249 135.439Z" fill="#263238"/>
<path d="M142.466 83.1282L147.607 87.7789L146.839 89.1293L141.697 84.4785L142.466 83.1282Z" fill="#263238"/>
<path d="M202.143 115.659L210.05 117.059L209.683 120.351L201.776 118.95L202.143 115.659Z" fill="#263238"/>
<path d="M172.224 66.4808H174.861V76.4529H172.224V66.4808Z" fill="#263238"/>
<path d="M172.224 148.086H174.861V158.058H172.224V148.086Z" fill="#263238"/>
<path d="M183.752 101.466C184.059 101.856 184.231 102.382 184.231 102.931C184.231 103.48 184.059 104.007 183.752 104.396L174.902 113.973L172.587 110.639L181.428 101.051C181.602 100.884 181.8 100.762 182.011 100.693C182.222 100.623 182.443 100.607 182.659 100.646C182.875 100.685 183.083 100.777 183.271 100.918C183.458 101.059 183.622 101.245 183.752 101.466Z" fill="#2D485C"/>
<path opacity="0.4" d="M183.752 101.466C184.059 101.856 184.231 102.382 184.231 102.931C184.231 103.48 184.059 104.007 183.752 104.396L174.902 113.973L172.587 110.639L181.428 101.051C181.602 100.884 181.8 100.762 182.011 100.693C182.222 100.623 182.443 100.607 182.659 100.646C182.875 100.685 183.083 100.777 183.271 100.918C183.458 101.059 183.622 101.245 183.752 101.466Z" fill="white"/>
<path d="M124.523 102.755L131.123 113.901L137.715 105.092L124.523 102.755Z" fill="#2D485C"/>
<path d="M158.488 90.3099C158.662 90.143 158.86 90.0212 159.071 89.9517C159.282 89.8822 159.503 89.8663 159.719 89.9049C159.935 89.9436 160.143 90.036 160.331 90.1769C160.518 90.3177 160.682 90.5042 160.812 90.7254L172.793 107.948C173.434 107.846 174.086 107.947 174.689 108.243C175.292 108.539 175.827 109.019 176.245 109.641C177.597 111.594 177.597 114.368 176.245 115.874C174.894 117.38 172.686 116.912 171.301 115.001C170.874 114.402 170.575 113.676 170.431 112.891C170.287 112.106 170.303 111.289 170.477 110.514L158.496 93.2807C158.339 93.088 158.213 92.8574 158.128 92.6027C158.042 92.348 157.997 92.0742 157.996 91.7975C157.996 91.5208 158.039 91.2466 158.123 90.9911C158.208 90.7357 158.332 90.5041 158.488 90.3099Z" fill="#2D485C"/>
<path d="M91.0856 152.967L101.386 151.139L100.471 157.133L81.9062 160.426L82.6478 155.658L93.8213 142.642C94.8719 141.444 95.8167 140.107 96.6394 138.653C97.151 137.739 97.4376 136.655 97.4634 135.537C97.485 135.084 97.411 134.632 97.2489 134.227C97.0868 133.822 96.8423 133.478 96.5405 133.231C95.7188 132.684 94.7688 132.525 93.8625 132.784C92.8491 132.966 91.879 133.423 91.0197 134.124C90.0929 134.862 89.2849 135.813 88.6383 136.929L84.8232 134.114C85.8901 132.125 87.2982 130.463 88.9432 129.253C90.7086 127.921 92.6715 127.058 94.7112 126.718C96.2086 126.402 97.7421 126.49 99.2103 126.978C100.391 127.364 101.443 128.211 102.218 129.398C102.941 130.568 103.32 132.018 103.289 133.501C103.274 135.479 102.839 137.416 102.028 139.11C100.819 141.477 99.3452 143.611 97.6529 145.447L91.0856 152.967Z" fill="#263238"/>
<path d="M125.932 146.133L121.911 146.85L120.89 153.518L115.361 154.495L116.391 147.816L103.207 150.163L103.94 145.219L118.368 123.052L124.573 121.961L111.117 142.933L117.569 141.791L118.475 135.839L123.765 134.904L122.851 140.846L126.88 140.139L125.932 146.133Z" fill="#263238"/>
<path d="M142.116 112.581L147.233 111.667L129.229 156.458L124.153 157.351L142.116 112.581Z" fill="#263238"/>
<path d="M165.477 114.71L164.743 119.478L151.642 148.065L145.338 149.187L157.912 121.878L149.961 123.291L149.137 128.484L144.094 129.378L145.808 118.211L165.477 114.71Z" fill="#263238"/>
<path d="M84.7243 191.132C83.9431 191.022 83.1869 190.719 82.4995 190.238L83.7025 187.122C84.3123 187.571 84.9829 187.874 85.6802 188.016C86.4252 188.167 87.1846 188.167 87.9297 188.016C88.6194 187.928 89.283 187.636 89.8661 187.164C90.0747 187.007 90.2489 186.788 90.3728 186.525C90.4966 186.261 90.566 185.963 90.5747 185.658C90.5836 185.43 90.5327 185.205 90.4299 185.017C90.3272 184.829 90.1783 184.689 90.0062 184.619C89.4207 184.371 88.8156 184.204 88.2016 184.12C87.5183 183.994 86.8415 183.817 86.1745 183.59C85.6549 183.399 85.1836 183.042 84.8067 182.552C84.3988 181.954 84.1944 181.178 84.2382 180.391C84.2345 179.323 84.4841 178.277 84.955 177.389C85.4788 176.428 86.1839 175.646 87.0068 175.114C87.9655 174.481 89.0065 174.069 90.0803 173.899C90.8986 173.744 91.7292 173.719 92.5523 173.826C93.2387 173.897 93.9089 174.126 94.5299 174.501L93.4175 177.555C92.9185 177.214 92.3737 176.992 91.8107 176.901C91.1899 176.797 90.561 176.797 89.9402 176.901C89.2286 176.994 88.5463 177.308 87.9544 177.815C87.7396 177.976 87.56 178.201 87.4319 178.472C87.3039 178.742 87.2314 179.048 87.221 179.363C87.2143 179.523 87.2394 179.683 87.2941 179.828C87.3488 179.973 87.4313 180.099 87.5342 180.194C87.7648 180.416 88.0325 180.568 88.3169 180.64C88.6301 180.723 89.075 180.817 89.6518 180.921C90.3306 181.016 91.0027 181.176 91.6624 181.399C92.1736 181.593 92.6363 181.951 93.0055 182.437C93.203 182.72 93.3536 183.049 93.4485 183.406C93.5433 183.763 93.5804 184.14 93.5576 184.515C93.5658 185.592 93.3128 186.647 92.8325 187.538C92.2983 188.495 91.5888 189.275 90.7642 189.813C89.7918 190.486 88.7311 190.933 87.633 191.132C86.6685 191.309 85.6888 191.309 84.7243 191.132Z" fill="#263238"/>
<path d="M99.861 175.55L99.3089 179.155L105.25 178.116L104.797 181.107L98.8393 182.146L98.2542 185.99L105.233 184.753L104.739 187.87L94.8511 189.625L97.4055 173.005L107.079 171.291L106.585 174.407L99.861 175.55Z" fill="#263238"/>
<path d="M118.904 178.095C118.231 179.313 117.3 180.267 116.217 180.848L118.442 185.429L115.319 185.99L113.309 181.835L110.787 182.281L110.07 186.924L107.096 187.454L109.65 170.834L114.866 169.91C116.117 169.56 117.426 169.796 118.549 170.574C118.991 170.951 119.346 171.468 119.578 172.074C119.81 172.68 119.91 173.353 119.868 174.023C119.889 175.474 119.552 176.897 118.904 178.095ZM116.061 177.513C116.333 177.177 116.546 176.774 116.688 176.329C116.83 175.884 116.897 175.406 116.885 174.927C116.909 174.613 116.865 174.296 116.756 174.012C116.647 173.728 116.477 173.487 116.267 173.317C115.717 172.978 115.093 172.883 114.495 173.047L112.155 173.462L111.257 179.227L113.778 178.781C114.627 178.675 115.426 178.231 116.061 177.513Z" fill="#263238"/>
<path d="M135.384 166.305L127.292 183.86L124.384 184.369L121.401 168.788L124.458 168.248L126.518 179.373L132.286 166.846L135.384 166.305Z" fill="#263238"/>
<path d="M136.439 166.119L139.422 165.589L136.867 182.209L133.884 182.739L136.439 166.119Z" fill="#263238"/>
<path d="M143.253 180.443C142.354 180.078 141.577 179.347 141.045 178.365C140.514 177.311 140.247 176.081 140.278 174.833C140.272 173.052 140.614 171.297 141.275 169.723C141.942 168.132 142.907 166.77 144.085 165.755C145.314 164.686 146.726 163.999 148.205 163.75C149.216 163.539 150.251 163.609 151.237 163.957C152.047 164.23 152.754 164.855 153.232 165.723L151.089 168.31C150.732 167.737 150.251 167.306 149.705 167.068C149.158 166.83 148.569 166.796 148.007 166.97C147.112 167.121 146.261 167.557 145.535 168.237C144.834 168.914 144.27 169.789 143.887 170.792C143.492 171.814 143.289 172.938 143.294 174.075C143.263 174.601 143.333 175.129 143.496 175.615C143.659 176.101 143.912 176.531 144.233 176.869C144.617 177.197 145.049 177.422 145.504 177.529C145.96 177.636 146.427 177.624 146.879 177.492C148.221 177.259 149.438 176.376 150.273 175.031L152.029 176.973C151.374 178.024 150.558 178.898 149.629 179.542C148.7 180.186 147.678 180.588 146.623 180.723C145.498 180.97 144.342 180.874 143.253 180.443Z" fill="#263238"/>
<path d="M158.299 165.246L157.747 168.84L163.688 167.801L163.235 170.782L157.277 171.821L156.692 175.654L163.671 174.418L163.177 177.534L153.289 179.29L155.852 162.67L165.501 161.008L165.006 164.124L158.299 165.246Z" fill="#263238"/>
<path d="M250.109 92.9381C258.917 92.9381 266.053 99.4927 266.053 107.574C266.053 113.443 262.271 118.502 256.824 120.829C257.408 124.199 258.412 127.432 259.799 130.406C257.822 130.035 255.939 129.103 254.29 127.68C252.641 126.256 251.271 124.379 250.282 122.19H250.109C241.3 122.19 234.164 115.645 234.164 107.564C234.164 99.4823 241.3 92.9381 250.109 92.9381Z" fill="#2D485C"/>
<path opacity="0.7" d="M250.109 92.9381C258.917 92.9381 266.053 99.4927 266.053 107.574C266.053 113.443 262.271 118.502 256.824 120.829C257.408 124.199 258.412 127.432 259.799 130.406C257.822 130.035 255.939 129.103 254.29 127.68C252.641 126.256 251.271 124.379 250.282 122.19H250.109C241.3 122.19 234.164 115.645 234.164 107.564C234.164 99.4823 241.3 92.9381 250.109 92.9381Z" fill="white"/>
<path d="M257.137 110.389C256.241 110.389 255.514 109.473 255.514 108.343C255.514 107.213 256.241 106.296 257.137 106.296C258.034 106.296 258.761 107.213 258.761 108.343C258.761 109.473 258.034 110.389 257.137 110.389Z" fill="#263238"/>
<path d="M248.593 108.343C248.593 108.754 248.689 109.156 248.87 109.497C249.051 109.839 249.309 110.105 249.61 110.262C249.911 110.42 250.243 110.461 250.562 110.381C250.882 110.3 251.176 110.103 251.406 109.812C251.636 109.521 251.793 109.151 251.857 108.748C251.921 108.345 251.888 107.928 251.763 107.548C251.638 107.168 251.427 106.844 251.156 106.616C250.885 106.387 250.567 106.265 250.241 106.265C249.804 106.265 249.384 106.484 249.075 106.874C248.766 107.264 248.593 107.792 248.593 108.343Z" fill="#263238"/>
<path d="M243.294 110.389C242.398 110.389 241.671 109.473 241.671 108.343C241.671 107.213 242.398 106.296 243.294 106.296C244.191 106.296 244.917 107.213 244.917 108.343C244.917 109.473 244.191 110.389 243.294 110.389Z" fill="#263238"/>
<path d="M105.472 316.873C105.472 316.873 105.365 303.005 109.37 304.833C113.375 306.662 105.472 316.873 105.472 316.873Z" fill="#2D485C"/>
<path d="M101.171 304.034C101.171 304.034 95.864 292.94 100.66 291.35C105.455 289.761 101.171 304.034 101.171 304.034Z" fill="#2D485C"/>
<path d="M80.1997 296.201C80.1997 296.201 69.1828 295.485 71.6713 290.281C74.1598 285.076 80.1997 296.201 80.1997 296.201Z" fill="#2D485C"/>
<path d="M97.6274 299.889C97.6274 299.889 86.0914 296.606 88.2503 304.771C90.4092 312.936 97.6274 299.889 97.6274 299.889Z" fill="#2D485C"/>
<path d="M106.008 329.41C106.008 329.41 110.416 316.821 112.888 321.298C115.36 325.775 106.008 329.41 106.008 329.41Z" fill="#2D485C"/>
<path d="M93.4331 297.272C93.4331 297.272 81.6829 293.387 85.3414 287.923C89 282.459 93.4331 297.272 93.4331 297.272Z" fill="#2D485C"/>
<path d="M84.5508 295.745C84.5508 295.745 75.2561 301.499 79.5409 305.26C83.8257 309.02 84.5508 295.745 84.5508 295.745Z" fill="#2D485C"/>
<path d="M104.31 311.295C104.31 311.295 97.8746 301.53 95.8888 308.625C93.9029 315.72 104.31 311.295 104.31 311.295Z" fill="#2D485C"/>
<g opacity="0.4">
<path d="M106.008 329.411C106.008 329.411 110.417 316.821 112.889 321.298C115.361 325.776 106.008 329.411 106.008 329.411Z" fill="white"/>
<path d="M93.4341 297.272C93.4341 297.272 81.6838 293.387 85.3424 287.923C89.001 282.459 93.4341 297.272 93.4341 297.272Z" fill="white"/>
<path d="M84.5513 295.745C84.5513 295.745 75.2566 301.5 79.5414 305.26C83.8262 309.02 84.5513 295.745 84.5513 295.745Z" fill="white"/>
<path d="M104.311 311.295C104.311 311.295 97.8751 301.531 95.8893 308.626C93.9034 315.72 104.311 311.295 104.311 311.295Z" fill="white"/>
</g>
<path d="M106.074 323.967C106.074 323.967 101.459 311.502 97.7431 317.787C94.0268 324.071 106.074 323.967 106.074 323.967Z" fill="#2D485C"/>
<path d="M105.999 337.076C107.398 328.954 107.197 320.523 105.414 312.52C101.64 296.939 90.0632 293.272 78.3624 295.63C77.4313 295.817 77.8433 297.583 78.7662 297.396C84.9792 296.149 91.9502 296.025 97.3639 300.761C101.237 304.179 103.429 309.612 104.483 315.304C105.72 322.323 105.751 329.594 104.574 336.63C104.384 337.793 105.802 338.25 105.999 337.087V337.076Z" fill="#2D485C"/>
<g opacity="0.3">
<path d="M105.999 337.077C107.397 328.954 107.196 320.523 105.414 312.521C101.64 296.939 90.0628 293.272 78.362 295.63C77.4308 295.817 77.8428 297.583 78.7657 297.396C84.9787 296.15 91.9497 296.025 97.3634 300.762C101.236 304.179 103.428 309.612 104.483 315.304C105.72 322.323 105.751 329.595 104.573 336.63C104.384 337.794 105.801 338.251 105.999 337.087V337.077Z" fill="black"/>
</g>
<path d="M115.171 312.666C115.171 312.666 120.939 295.713 124.68 300.138C128.421 304.563 115.171 312.666 115.171 312.666Z" fill="#2D485C"/>
<path d="M115.665 294.633C115.665 294.633 114.297 278.21 120.427 278.916C126.558 279.623 115.665 294.633 115.665 294.633Z" fill="#2D485C"/>
<path d="M95.0732 273.567C95.0732 273.567 82.8368 266.638 87.8632 261.673C92.8896 256.708 95.0732 273.567 95.0732 273.567Z" fill="#2D485C"/>
<path d="M113.374 287.642C113.374 287.642 101.599 277.254 100.635 288.431C99.6709 299.608 113.374 287.642 113.374 287.642Z" fill="#2D485C"/>
<path d="M110.474 328.185C110.474 328.185 120.848 315.325 121.779 322.118C122.71 328.912 110.474 328.185 110.474 328.185Z" fill="#2D485C"/>
<path d="M109.708 282.147C109.708 282.147 97.9574 270.949 104.434 266.306C110.911 261.663 109.708 282.147 109.708 282.147Z" fill="#2D485C"/>
<path d="M100.223 275.406C100.223 275.406 87.2122 277.307 90.5164 284.235C93.8207 291.164 100.223 275.406 100.223 275.406Z" fill="#2D485C"/>
<path d="M116.184 305.197C116.184 305.197 112.97 289.772 107.713 297.323C102.456 304.875 116.184 305.197 116.184 305.197Z" fill="#2D485C"/>
<g opacity="0.4">
<path d="M110.474 328.185C110.474 328.185 120.848 315.325 121.779 322.119C122.71 328.912 110.474 328.185 110.474 328.185Z" fill="white"/>
<path d="M109.708 282.147C109.708 282.147 97.9574 270.95 104.434 266.306C110.911 261.663 109.708 282.147 109.708 282.147Z" fill="white"/>
<path d="M100.223 275.406C100.223 275.406 87.2122 277.307 90.5164 284.235C93.8207 291.164 100.223 275.406 100.223 275.406Z" fill="white"/>
<path d="M116.184 305.198C116.184 305.198 112.97 289.772 107.713 297.324C102.456 304.876 116.184 305.198 116.184 305.198Z" fill="white"/>
</g>
<path d="M112.839 321.599C112.839 321.599 112.839 303.868 105.967 309.487C99.0946 315.107 112.839 321.599 112.839 321.599Z" fill="#2D485C"/>
<path d="M107.244 337.513C112.072 328.611 115.797 317.776 116.917 307.306C119.175 286.281 107.557 275.426 93.2274 271.853C92.0903 271.572 91.8183 273.93 92.939 274.242C100.544 276.133 108.595 279.841 112.715 288.567C115.69 294.851 115.904 302.673 114.709 310.173C113.119 319.476 110.102 328.298 105.826 336.142C105.757 336.26 105.707 336.395 105.679 336.538C105.651 336.681 105.646 336.83 105.663 336.975C105.681 337.121 105.721 337.261 105.782 337.387C105.842 337.513 105.922 337.623 106.016 337.71C106.11 337.797 106.217 337.861 106.33 337.896C106.444 337.931 106.562 337.938 106.677 337.916C106.793 337.893 106.904 337.843 107.004 337.766C107.104 337.69 107.191 337.59 107.26 337.471L107.244 337.513Z" fill="#2D485C"/>
<g opacity="0.3">
<path d="M107.244 337.513C112.072 328.611 115.797 317.776 116.917 307.306C119.175 286.281 107.557 275.426 93.2274 271.853C92.0903 271.572 91.8183 273.93 92.939 274.242C100.544 276.133 108.595 279.841 112.715 288.567C115.69 294.851 115.904 302.673 114.709 310.173C113.119 319.476 110.102 328.298 105.826 336.142C105.757 336.26 105.707 336.395 105.679 336.538C105.651 336.681 105.646 336.83 105.663 336.975C105.681 337.121 105.721 337.261 105.782 337.387C105.842 337.513 105.922 337.623 106.016 337.71C106.11 337.797 106.217 337.861 106.33 337.896C106.444 337.931 106.562 337.938 106.677 337.916C106.793 337.893 106.904 337.843 107.004 337.766C107.104 337.69 107.191 337.59 107.26 337.471L107.244 337.513Z" fill="black"/>
</g>
<path d="M116.538 317.122C116.538 317.122 113.802 305.623 110.869 308.428C107.936 311.232 116.538 317.122 116.538 317.122Z" fill="#2D485C"/>
<path d="M117.494 305.114C117.494 305.114 119.612 294.217 115.327 294.467C111.042 294.716 117.494 305.114 117.494 305.114Z" fill="#2D485C"/>
<path d="M133.224 291.89C133.224 291.89 142.181 287.735 139.058 284.235C135.935 280.734 133.224 291.89 133.224 291.89Z" fill="#2D485C"/>
<path d="M119.571 300.533C119.571 300.533 128.453 294.083 128.313 301.572C128.173 309.061 119.571 300.533 119.571 300.533Z" fill="#2D485C"/>
<path d="M118.656 327.645C118.656 327.645 112.41 318.701 111.281 323.188C110.153 327.676 118.656 327.645 118.656 327.645Z" fill="#2D485C"/>
<path d="M122.504 297.012C122.504 297.012 131.42 289.99 127.283 286.624C123.147 283.259 122.504 297.012 122.504 297.012Z" fill="#2D485C"/>
<path d="M129.541 292.929C129.541 292.929 138.391 294.674 135.614 299.162C132.837 303.649 129.541 292.929 129.541 292.929Z" fill="#2D485C"/>
<path d="M116.374 312.125C116.374 312.125 119.67 301.966 122.793 307.191C125.915 312.416 116.374 312.125 116.374 312.125Z" fill="#2D485C"/>
<g opacity="0.4">
<path d="M118.656 327.645C118.656 327.645 112.41 318.701 111.281 323.188C110.152 327.676 118.656 327.645 118.656 327.645Z" fill="white"/>
<path d="M122.504 297.011C122.504 297.011 131.419 289.989 127.283 286.624C123.146 283.258 122.504 297.011 122.504 297.011Z" fill="white"/>
<path d="M129.541 292.929C129.541 292.929 138.39 294.674 135.613 299.162C132.837 303.649 129.541 292.929 129.541 292.929Z" fill="white"/>
<path d="M116.373 312.125C116.373 312.125 119.669 301.966 122.792 307.191C125.915 312.416 116.373 312.125 116.373 312.125Z" fill="white"/>
</g>
<path d="M117.511 323.168C117.511 323.168 118.771 311.357 123.13 315.356C127.489 319.355 117.511 323.168 117.511 323.168Z" fill="#2D485C"/>
<path d="M120.238 333.971C117.425 327.715 115.875 320.684 115.723 313.497C115.665 299.411 124.473 292.618 134.625 290.769C135.449 290.623 135.449 292.223 134.625 292.368C129.236 293.345 123.427 295.485 119.95 301.177C117.478 305.249 116.736 310.453 117.025 315.491C117.434 321.695 118.893 327.716 121.301 333.15C121.697 334.043 120.617 334.885 120.213 333.981L120.238 333.971Z" fill="#2D485C"/>
<g opacity="0.3">
<path d="M120.238 333.971C117.425 327.715 115.875 320.684 115.723 313.497C115.665 299.411 124.473 292.618 134.625 290.769C135.449 290.623 135.449 292.223 134.625 292.368C129.236 293.345 123.427 295.485 119.95 301.177C117.478 305.249 116.736 310.453 117.025 315.491C117.434 321.695 118.893 327.716 121.301 333.15C121.697 334.043 120.617 334.885 120.213 333.981L120.238 333.971Z" fill="black"/>
</g>
<path d="M94.5954 331.052L97.7843 361.373C97.9839 363.258 98.7196 364.988 99.8547 366.242C100.99 367.495 102.447 368.186 103.956 368.187H123.79C125.299 368.186 126.756 367.495 127.891 366.242C129.026 364.988 129.762 363.258 129.962 361.373L133.15 331.052H94.5954Z" fill="#2D485C"/>
<path opacity="0.3" d="M94.5954 331.052L97.7843 361.373C97.9839 363.258 98.7196 364.988 99.8547 366.242C100.99 367.495 102.447 368.186 103.956 368.187H123.79C125.299 368.186 126.756 367.495 127.891 366.242C129.026 364.988 129.762 363.258 129.962 361.373L133.15 331.052H94.5954Z" fill="white"/>
<path d="M273.674 272.809H279.088V317.662H273.674V272.809Z" fill="#263238"/>
<path opacity="0.5" d="M273.674 272.809H279.088V317.662H273.674V272.809Z" fill="white"/>
<path d="M259.93 351.256L272.612 348.368V316.27C272.61 316.034 272.647 315.8 272.718 315.581C272.789 315.362 272.894 315.164 273.027 314.996C273.159 314.829 273.317 314.697 273.49 314.607C273.664 314.517 273.85 314.472 274.037 314.473H278.726C278.913 314.472 279.1 314.517 279.274 314.607C279.448 314.697 279.606 314.829 279.739 314.996C279.872 315.163 279.978 315.361 280.05 315.58C280.122 315.799 280.159 316.033 280.159 316.27V348.368L292.832 351.256C293.722 351.456 294.528 352.044 295.108 352.918C295.688 353.791 296.005 354.895 296.005 356.034L276.385 353.801L256.758 356.034C256.759 354.895 257.077 353.793 257.657 352.92C258.237 352.046 259.041 351.458 259.93 351.256Z" fill="#263238"/>
<path d="M291.885 360.885C291.885 361.912 292.127 362.916 292.579 363.77C293.032 364.624 293.676 365.29 294.428 365.683C295.181 366.076 296.01 366.179 296.809 365.979C297.608 365.778 298.342 365.283 298.918 364.557C299.494 363.831 299.887 362.905 300.046 361.898C300.205 360.89 300.123 359.846 299.811 358.897C299.5 357.948 298.971 357.137 298.294 356.566C297.616 355.995 296.82 355.691 296.005 355.691C294.912 355.691 293.864 356.238 293.092 357.212C292.319 358.186 291.885 359.507 291.885 360.885Z" fill="#2D485C"/>
<path d="M252.638 360.885C252.638 361.912 252.88 362.916 253.332 363.77C253.785 364.624 254.428 365.29 255.181 365.683C255.934 366.076 256.763 366.179 257.562 365.979C258.361 365.778 259.095 365.283 259.671 364.557C260.247 363.831 260.64 362.905 260.799 361.898C260.958 360.89 260.876 359.846 260.564 358.897C260.252 357.948 259.724 357.137 259.047 356.566C258.369 355.995 257.573 355.691 256.758 355.691C256.217 355.691 255.681 355.825 255.181 356.086C254.681 356.347 254.227 356.73 253.845 357.212C253.462 357.694 253.159 358.267 252.952 358.897C252.745 359.527 252.638 360.203 252.638 360.885Z" fill="#2D485C"/>
<path d="M273.164 360.885C273.164 363.752 274.103 366.078 276.386 366.078C278.668 366.078 279.599 363.752 279.599 360.885C279.599 358.018 278.66 355.691 276.386 355.691C274.111 355.691 273.164 358.018 273.164 360.885Z" fill="#2D485C"/>
<g opacity="0.5">
<path d="M272.487 348.389V354.247L270.955 354.424V348.742L272.487 348.389Z" fill="black"/>
<path d="M281.774 348.731V354.413L280.241 354.247V348.389L281.774 348.731Z" fill="black"/>
</g>
<path d="M311.727 231.954C312.068 231.955 312.406 232.05 312.715 232.233C313.024 232.416 313.298 232.683 313.516 233.014C313.735 233.344 313.893 233.732 313.979 234.148C314.066 234.565 314.079 235 314.017 235.424L308.991 269.568C308.764 271.119 308.113 272.522 307.151 273.531C306.189 274.541 304.977 275.094 303.726 275.094H224.515C224.048 275.094 223.585 274.978 223.154 274.752C222.722 274.527 222.33 274.196 222 273.779C221.671 273.362 221.409 272.867 221.231 272.323C221.053 271.779 220.962 271.195 220.963 270.607C220.963 268.918 221.495 267.298 222.443 266.104C223.39 264.91 224.675 264.239 226.014 264.239H271.211C272.409 264.24 273.572 263.735 274.516 262.805C275.46 261.875 276.129 260.573 276.418 259.108L280.464 238.519C280.832 236.646 281.687 234.982 282.892 233.793C284.097 232.603 285.583 231.956 287.114 231.954H311.727Z" fill="#263238"/>
<path d="M301.031 259.108L305.077 238.519C305.445 236.646 306.3 234.982 307.505 233.793C308.71 232.603 310.196 231.956 311.727 231.954C312.068 231.955 312.406 232.05 312.715 232.233C313.024 232.416 313.298 232.683 313.516 233.014C313.735 233.344 313.893 233.732 313.979 234.148C314.066 234.565 314.079 235 314.017 235.424L308.991 269.568C308.764 271.119 308.113 272.522 307.151 273.531C306.189 274.541 304.977 275.094 303.726 275.094H249.136C248.668 275.095 248.205 274.98 247.772 274.755C247.34 274.53 246.947 274.2 246.616 273.783C246.285 273.366 246.023 272.871 245.845 272.326C245.666 271.78 245.575 271.196 245.576 270.607C245.578 268.919 246.111 267.301 247.058 266.107C248.005 264.914 249.288 264.242 250.627 264.239H295.815C297.015 264.244 298.181 263.74 299.127 262.81C300.073 261.88 300.743 260.576 301.031 259.108Z" fill="#263238"/>
<path opacity="0.2" d="M301.031 259.108L305.077 238.519C305.445 236.646 306.3 234.982 307.505 233.793C308.71 232.603 310.196 231.956 311.727 231.954C312.068 231.955 312.406 232.05 312.715 232.233C313.024 232.416 313.298 232.683 313.516 233.014C313.735 233.344 313.893 233.732 313.979 234.148C314.066 234.565 314.079 235 314.017 235.424L308.991 269.568C308.764 271.119 308.113 272.522 307.151 273.531C306.189 274.541 304.977 275.094 303.726 275.094H249.136C248.668 275.095 248.205 274.98 247.772 274.755C247.34 274.53 246.947 274.2 246.616 273.783C246.285 273.366 246.023 272.871 245.845 272.326C245.666 271.78 245.575 271.196 245.576 270.607C245.578 268.919 246.111 267.301 247.058 266.107C248.005 264.914 249.288 264.242 250.627 264.239H295.815C297.015 264.244 298.181 263.74 299.127 262.81C300.073 261.88 300.743 260.576 301.031 259.108Z" fill="white"/>
<path d="M267.568 134.259C267.568 134.259 258.554 137.645 262.764 146.049L266.678 138.861L267.568 134.259Z" fill="#263238"/>
<path d="M235.095 177.575L231.164 170.304L227.275 171.862L226.566 173.836L231.411 182.572L235.095 177.575Z" fill="#DBB178"/>
<path d="M229.269 179.476C233.208 187.267 239.421 198.631 241.794 197.956C248.765 195.993 258.348 187.672 263.267 178.531C264.01 177.152 264.315 175.472 264.121 173.823C263.927 172.174 263.249 170.677 262.221 169.629V169.567C261.685 169.015 261.067 168.601 260.404 168.351C259.741 168.1 259.045 168.017 258.356 168.105C257.667 168.194 256.999 168.453 256.389 168.868C255.78 169.283 255.242 169.845 254.805 170.522C254.714 170.657 254.632 170.803 254.55 170.948C250.191 178.832 244.662 186.311 243.755 186.945C242.692 187.714 239.932 184.421 234.09 175.114L229.269 179.476Z" fill="#2D485C"/>
<path opacity="0.6" d="M229.269 179.476C233.208 187.267 239.421 198.631 241.794 197.956C248.765 195.993 258.348 187.672 263.267 178.531C264.01 177.152 264.315 175.472 264.121 173.823C263.927 172.174 263.249 170.677 262.221 169.629V169.567C261.685 169.015 261.067 168.601 260.404 168.351C259.741 168.1 259.045 168.017 258.356 168.105C257.667 168.194 256.999 168.453 256.389 168.868C255.78 169.283 255.242 169.845 254.805 170.522C254.714 170.657 254.632 170.803 254.55 170.948C250.191 178.832 244.662 186.311 243.755 186.945C242.692 187.714 239.932 184.421 234.09 175.114L229.269 179.476Z" fill="white"/>
<path d="M229.179 173.192L221.392 175.114L225.018 166.887C225.018 166.887 229.731 166.887 231.165 170.304L229.179 173.192Z" fill="#DBB178"/>
<path opacity="0.2" d="M251.731 192.274C257.376 187.412 258.126 176.007 258.126 176.007L261.323 174.168L262.855 179.299C259.793 184.428 256.025 188.822 251.731 192.274Z" fill="black"/>
<path d="M215.887 171.592L219.216 164.902L225.009 166.886L221.391 175.113L215.887 171.592Z" fill="#DBB178"/>
<path d="M259.131 217.246L286.752 219.531C286.752 219.531 286.949 210.182 287.913 201.571C288.213 198.574 288.686 195.609 289.331 192.7C290.048 189.729 290.979 186.394 292.05 182.52C292.19 182.042 292.33 181.564 292.487 181.066C292.849 179.861 293.22 178.604 293.64 177.295V177.233C294.013 175.954 293.973 174.541 293.527 173.299C293.082 172.058 292.267 171.086 291.259 170.595C291.069 170.502 290.873 170.429 290.674 170.377C288.919 169.909 287.147 169.484 285.351 169.13L283.802 168.839C279.666 168.063 275.498 167.591 271.318 167.427C269.151 167.427 266.835 167.51 264.858 167.624L263.21 167.728C261.117 167.884 259.667 168.05 259.667 168.05C259.667 168.05 258.76 168.279 258.225 174.397C258.213 174.745 258.185 175.092 258.142 175.436C258.076 176.703 258.019 178.303 257.994 180.224C257.912 188.077 258.282 201.259 259.131 217.246Z" fill="#2D485C"/>
<path opacity="0.6" d="M259.131 217.246L286.752 219.531C286.752 219.531 286.949 210.182 287.913 201.571C288.213 198.574 288.686 195.609 289.331 192.7C290.048 189.729 290.979 186.394 292.05 182.52C292.19 182.042 292.33 181.564 292.487 181.066C292.849 179.861 293.22 178.604 293.64 177.295V177.233C294.013 175.954 293.973 174.541 293.527 173.299C293.082 172.058 292.267 171.086 291.259 170.595C291.069 170.502 290.873 170.429 290.674 170.377C288.919 169.909 287.147 169.484 285.351 169.13L283.802 168.839C279.666 168.063 275.498 167.591 271.318 167.427C269.151 167.427 266.835 167.51 264.858 167.624L263.21 167.728C261.117 167.884 259.667 168.05 259.667 168.05C259.667 168.05 258.76 168.279 258.225 174.397C258.213 174.745 258.185 175.092 258.142 175.436C258.076 176.703 258.019 178.303 257.994 180.224C257.912 188.077 258.282 201.259 259.131 217.246Z" fill="white"/>
<path d="M282.837 168.673L275.949 180.245L271.005 174.906L264.578 178.811L268.055 167.478C269.126 167.478 270.23 167.478 271.293 167.478C275.156 167.61 279.01 168.009 282.837 168.673Z" fill="#2D485C"/>
<path opacity="0.9" d="M282.837 168.673L275.949 180.245L271.005 174.906L264.578 178.811L268.055 167.478C269.126 167.478 270.23 167.478 271.293 167.478C275.156 167.61 279.01 168.009 282.837 168.673Z" fill="white"/>
<path d="M221.87 356.885H227.745L225.067 300.979H214.075L221.87 356.885Z" fill="#DBB178"/>
<path d="M228.396 356.179C228.462 355.473 221.45 354.808 221.45 354.808C221.45 354.808 216.572 359.545 212.287 360.002C208.002 360.459 209.971 364.043 214.611 364.853L226.089 366.931C229.385 367.543 227.72 363.565 228.396 356.179Z" fill="#263238"/>
<path d="M217.931 356.481C218.825 356.414 219.709 356.201 220.559 355.847C220.593 355.837 220.625 355.815 220.65 355.785C220.667 355.713 220.667 355.638 220.65 355.567C220.65 355.473 220.263 353.281 219.365 352.637C219.23 352.534 219.08 352.468 218.923 352.445C218.767 352.422 218.608 352.441 218.458 352.502C218.022 352.668 217.906 352.98 217.898 353.198C217.898 353.645 218.236 354.143 218.722 354.6C218.253 354.434 217.757 354.434 217.288 354.6C217.186 354.649 217.093 354.723 217.014 354.817C216.934 354.912 216.871 355.025 216.827 355.151C216.758 355.315 216.728 355.5 216.741 355.684C216.755 355.869 216.81 356.044 216.901 356.19C217.201 356.453 217.571 356.558 217.931 356.481ZM219.818 355.546C218.763 355.889 217.527 356.117 217.255 355.743C217.189 355.67 217.206 355.515 217.255 355.328C217.275 355.267 217.305 355.212 217.344 355.167C217.382 355.122 217.428 355.088 217.478 355.068C218.278 354.948 219.089 355.114 219.818 355.546ZM218.862 352.949C218.984 352.949 219.104 352.992 219.208 353.073C219.677 353.589 220.009 354.275 220.156 355.037C219.249 354.382 218.343 353.562 218.343 353.209C218.343 353.146 218.442 353.063 218.598 352.99C218.684 352.961 218.773 352.947 218.862 352.949Z" fill="#2D485C"/>
<path opacity="0.2" d="M225.537 310.754L215.492 311.139L214.075 300.979H225.067L225.537 310.754Z" fill="black"/>
<path d="M250.067 357.831L255.695 356.885L246.787 294.986L235.68 298.985L250.067 357.831Z" fill="#DBB178"/>
<path d="M256.428 355.899C256.428 355.172 249.408 355.899 249.408 355.899C249.408 355.899 245.148 361.498 240.97 362.755C236.792 364.012 239.157 367.201 243.838 367.117L255.439 366.941C258.793 366.899 256.651 363.357 256.428 355.899Z" fill="#263238"/>
<path d="M245.716 358.205C246.742 358.045 247.738 357.658 248.658 357.062L248.716 357C248.719 356.988 248.721 356.976 248.721 356.964C248.721 356.951 248.719 356.939 248.716 356.927C248.728 356.895 248.734 356.859 248.734 356.823C248.734 356.787 248.728 356.752 248.716 356.719C248.716 356.636 248.073 354.559 247.068 354.071C246.925 353.988 246.771 353.946 246.614 353.946C246.458 353.946 246.303 353.988 246.161 354.071C245.749 354.33 245.675 354.642 245.691 354.86C245.691 355.307 246.136 355.733 246.656 356.086C246.172 356.011 245.681 356.108 245.238 356.366C245.143 356.43 245.06 356.518 244.995 356.626C244.93 356.733 244.883 356.857 244.859 356.99C244.806 357.159 244.796 357.344 244.83 357.521C244.864 357.697 244.94 357.856 245.049 357.976C245.242 358.151 245.479 358.232 245.716 358.205ZM247.916 356.875C246.911 357.415 245.716 357.914 245.444 357.561C245.378 357.499 245.362 357.353 245.444 357.145C245.457 357.084 245.479 357.026 245.511 356.976C245.542 356.926 245.581 356.884 245.626 356.854C246.377 356.609 247.167 356.616 247.916 356.875ZM246.763 354.486C246.853 354.49 246.943 354.515 247.026 354.559C247.545 354.973 247.951 355.579 248.188 356.294C247.183 355.826 246.235 355.151 246.219 354.819C246.219 354.756 246.301 354.652 246.441 354.569C246.529 354.514 246.624 354.479 246.721 354.465L246.763 354.486Z" fill="#2D485C"/>
<path opacity="0.2" d="M235.68 298.985L246.787 294.986L248.542 307.191L238.259 309.528L235.68 298.985Z" fill="black"/>
<path d="M227.975 305.779L213.844 306.714C210.226 285.71 206.617 262.556 207.334 257.476C208.694 247.743 219.183 237.834 259.905 229.43L278.857 265.329C278.857 265.329 251.138 263.699 225.874 263.699C225.882 263.719 227.292 283.705 227.975 305.779Z" fill="#2D485C"/>
<path opacity="0.1" d="M227.975 305.779L213.844 306.714C210.226 285.71 206.617 262.556 207.334 257.476C208.694 247.743 219.183 237.834 259.905 229.43L278.857 265.329C278.857 265.329 251.138 263.699 225.874 263.699C225.882 263.719 227.292 283.705 227.975 305.779Z" fill="black"/>
<path d="M228.923 302.984L228.503 307.649L213.02 308.313L212.262 304.023L228.923 302.984Z" fill="#2D485C"/>
<path d="M268.928 167.458H271.318C274.746 167.593 278.165 167.946 281.568 168.496C280.085 170.73 275.463 174.21 272.364 174.21C268.038 174.168 269.002 170.117 268.928 167.458Z" fill="#DBB178"/>
<path d="M249.943 302.164L235.498 305.124C229.631 284.422 223.764 262.39 223.863 257.425C224.061 247.536 225.783 242.404 254.154 234.427C254.154 234.427 255.661 231.653 259.098 217.287L286.751 219.572C286.751 219.572 299.366 248.865 289.602 261.372C287.443 264.156 283.2 265.402 278.89 265.35C278.89 265.35 268.92 265.413 244.282 263.958C244.274 263.958 247.199 281.68 249.943 302.164Z" fill="#2D485C"/>
<path d="M250.52 298.985L233.785 302.548L235.375 306.984L250.594 303.836L250.52 298.985Z" fill="#2D485C"/>
<path opacity="0.1" d="M228.923 302.984L228.503 307.649L213.02 308.313L212.262 304.023L228.923 302.984Z" fill="black"/>
<path d="M271.021 164.456C271.339 167.021 271.255 169.639 270.774 172.163L278.346 170.761C278.51 170.731 278.665 170.653 278.8 170.535C278.936 170.416 279.048 170.26 279.128 170.078C279.207 169.896 279.253 169.694 279.26 169.486C279.268 169.278 279.237 169.071 279.17 168.881C278.132 165.91 277.72 159.927 277.465 157.174C277.325 155.512 277.267 153.996 277.259 152.936C277.25 151.876 277.259 151.482 277.259 151.482L273.872 153.435L268.343 156.624C269.618 158.999 270.526 161.656 271.021 164.456Z" fill="#DBB178"/>
<path opacity="0.2" d="M268.327 156.624C269.614 158.997 270.536 161.654 271.046 164.456C273.809 163.075 276.091 160.496 277.481 157.185C277.333 155.523 277.275 154.006 277.267 152.947C276.064 153.102 274.944 153.258 273.872 153.445L268.327 156.624Z" fill="black"/>
<path d="M267.923 149.809C268.145 152.998 266.852 155.575 265.039 155.575C263.226 155.575 261.57 152.998 261.347 149.809C261.125 146.62 262.419 144.034 264.231 144.034C266.044 144.034 267.7 146.62 267.923 149.809Z" fill="#2D485C"/>
<path opacity="0.5" d="M268.245 149.809C268.467 152.998 267.173 155.575 265.361 155.575C263.548 155.575 261.9 152.998 261.677 149.809C261.455 146.62 262.749 144.034 264.561 144.034C266.374 144.034 268.03 146.62 268.245 149.809Z" fill="black"/>
<path d="M280.926 144.2C279.574 152.012 279.105 156.665 275.446 160.228C274.267 161.409 272.853 162.16 271.359 162.399C269.865 162.638 268.347 162.356 266.971 161.584C265.595 160.812 264.413 159.579 263.554 158.02C262.695 156.461 262.191 154.634 262.097 152.739C261.611 145.468 263.902 133.906 270.428 131.694C271.831 131.166 273.319 131.113 274.743 131.54C276.167 131.967 277.477 132.859 278.541 134.126C279.605 135.394 280.386 136.992 280.804 138.761C281.223 140.529 281.265 142.405 280.926 144.2Z" fill="#DBB178"/>
<path d="M282.359 152.354C281.356 153.881 279.964 154.923 278.421 155.304C276.468 155.72 276.023 153.445 277.02 151.232C277.91 149.248 280.011 146.641 281.758 147.223C283.505 147.804 283.62 150.433 282.359 152.354Z" fill="#DBB178"/>
<path d="M271.145 144.969C271.062 145.613 270.733 146.09 270.395 146.007C270.057 145.924 269.859 145.394 269.933 144.761C270.008 144.127 270.345 143.639 270.683 143.722C271.021 143.805 271.219 144.325 271.145 144.969Z" fill="#263238"/>
<path d="M265.328 144.107C265.254 144.751 264.916 145.229 264.586 145.146C264.256 145.062 264.042 144.533 264.116 143.889C264.191 143.245 264.537 142.777 264.866 142.85C265.196 142.923 265.451 143.463 265.328 144.107Z" fill="#263238"/>
<path d="M267.165 144.699C266.312 146.57 265.268 148.292 264.059 149.82C264.374 150.186 264.749 150.459 265.158 150.621C265.567 150.782 265.999 150.828 266.423 150.755L267.165 144.699Z" fill="#C0854B"/>
<path d="M273.213 142.902C273.262 142.915 273.313 142.915 273.362 142.902C273.397 142.878 273.428 142.845 273.453 142.806C273.478 142.767 273.496 142.721 273.507 142.673C273.518 142.624 273.521 142.574 273.516 142.524C273.51 142.474 273.497 142.426 273.477 142.382C273.255 141.852 272.933 141.399 272.539 141.064C272.146 140.729 271.692 140.521 271.219 140.46C271.18 140.456 271.141 140.462 271.103 140.478C271.066 140.493 271.031 140.519 271.002 140.552C270.973 140.585 270.949 140.625 270.933 140.67C270.916 140.715 270.907 140.764 270.906 140.814C270.903 140.864 270.907 140.914 270.92 140.962C270.932 141.009 270.952 141.053 270.978 141.091C271.004 141.129 271.036 141.16 271.072 141.182C271.108 141.203 271.147 141.216 271.186 141.219C271.558 141.272 271.914 141.44 272.221 141.708C272.529 141.976 272.779 142.336 272.95 142.756C272.981 142.806 273.021 142.845 273.067 142.871C273.113 142.896 273.163 142.907 273.213 142.902Z" fill="#263238"/>
<path d="M263.193 141.271C263.242 141.273 263.291 141.258 263.334 141.229C263.378 141.2 263.414 141.157 263.44 141.104C263.649 140.694 263.931 140.349 264.262 140.097C264.593 139.845 264.966 139.692 265.352 139.65C265.423 139.635 265.488 139.589 265.535 139.519C265.581 139.45 265.607 139.362 265.607 139.271C265.607 139.18 265.581 139.092 265.535 139.022C265.488 138.953 265.423 138.907 265.352 138.892C264.868 138.932 264.399 139.115 263.981 139.425C263.563 139.735 263.209 140.165 262.946 140.678C262.901 140.761 262.883 140.863 262.897 140.962C262.911 141.062 262.955 141.15 263.02 141.208C263.072 141.248 263.132 141.269 263.193 141.271Z" fill="#263238"/>
<path d="M279.714 154.473C279.714 154.473 275.776 149.394 277.704 136.929C277.704 136.929 274.532 140.326 267.165 137.812C267.165 137.812 271.524 138.352 273.518 135.734C273.518 135.734 269.456 138.113 262.888 135.734C262.888 135.734 264.058 127.351 271.128 126.926C271.128 126.926 268.846 124.505 266.646 124.973C266.646 124.973 268.895 122.532 274.606 127.279L276.863 128.442C276.863 128.442 283.225 125.554 286.751 132.348C289.561 137.718 288.152 154.629 279.714 154.473Z" fill="#263238"/>
<path d="M265.27 152.178C265.27 152.178 267.264 151.544 272.883 151.388C272.257 153.539 271.062 155.315 268.178 155.356C267.819 155.407 267.455 155.363 267.11 155.227C266.765 155.092 266.445 154.868 266.172 154.569C265.899 154.271 265.678 153.904 265.522 153.493C265.367 153.081 265.281 152.633 265.27 152.178Z" fill="#263238"/>
<path d="M269.447 153.643C268.34 153.591 267.247 153.98 266.324 154.754C266.864 155.189 267.498 155.396 268.137 155.346C269.24 155.404 270.329 155.015 271.244 154.235C270.709 153.804 270.081 153.597 269.447 153.643Z" fill="#A02724"/>
<path d="M265.525 152.115C265.584 152.376 265.699 152.612 265.858 152.795C266.016 152.979 266.212 153.103 266.424 153.154C268.083 153.106 269.737 152.883 271.368 152.489C271.628 152.46 271.879 152.35 272.098 152.169C272.316 151.988 272.496 151.741 272.62 151.451C270.245 151.441 267.873 151.663 265.525 152.115Z" fill="white"/>
<path d="M282.771 146.89V138.508C282.772 136.027 282.137 133.612 280.961 131.622C279.785 129.633 278.131 128.175 276.245 127.466L274.021 126.967C275.954 127.694 277.65 129.189 278.856 131.229C280.061 133.269 280.712 135.745 280.711 138.289V146.89H282.771Z" fill="#2D485C"/>
<path d="M277.605 150.952C277.383 154.141 278.676 156.717 280.489 156.717C282.302 156.717 283.958 154.141 284.172 150.952C284.387 147.763 283.101 145.177 281.288 145.177C279.476 145.177 277.828 147.763 277.605 150.952Z" fill="#2D485C"/>
<path opacity="0.5" d="M277.605 150.952C277.383 154.141 278.676 156.717 280.489 156.717C282.302 156.717 283.958 154.141 284.172 150.952C284.387 147.763 283.101 145.177 281.288 145.177C279.476 145.177 277.828 147.763 277.605 150.952Z" fill="black"/>
<path d="M278.701 150.952C278.487 154.141 279.772 156.717 281.593 156.717C283.414 156.717 285.054 154.141 285.276 150.952C285.499 147.763 284.205 145.177 282.392 145.177C280.58 145.177 278.923 147.763 278.701 150.952Z" fill="#2D485C"/>
<path opacity="0.3" d="M280.983 151.793L281.132 150.11H280.876C281.206 148.459 282.129 147.223 283.142 147.223C284.156 147.223 284.897 148.459 285.004 150.11H284.831L284.683 151.793H284.881C284.551 153.445 283.628 154.671 282.623 154.671C281.618 154.671 280.86 153.445 280.761 151.793H280.983Z" fill="white"/>
<path d="M292.824 151.659L289.223 142.725L286.315 151.389C286.315 151.389 289.232 156.063 292.239 155.388L292.824 151.659Z" fill="#DBB178"/>
<path d="M283.629 139.432L281.511 146.859L286.323 151.388L289.224 142.725L283.629 139.432Z" fill="#DBB178"/>
<path d="M291.876 161.277L288.416 153.933L288.778 150.941L291.827 149.581L296.169 158.098L291.876 161.277Z" fill="#DBB178"/>
<path d="M289.38 156.707L295.7 174.241C295.7 174.241 292.627 170.761 290.929 170.262C288.226 169.462 280.069 172.568 288.334 183.88C288.334 183.88 304.698 196.771 308.035 191.775C310.631 187.89 299.606 164.279 294.555 153.933L289.38 156.707Z" fill="#2D485C"/>
<path opacity="0.6" d="M289.38 156.707L295.7 174.241C295.7 174.241 292.627 170.761 290.929 170.262C288.226 169.462 280.069 172.568 288.334 183.88C288.334 183.88 304.698 196.771 308.035 191.775C310.631 187.89 299.606 164.279 294.555 153.933L289.38 156.707Z" fill="white"/>
<path opacity="0.2" d="M295.7 174.241L297.463 181.086L292.289 171.052C293.496 171.991 294.637 173.058 295.7 174.241Z" fill="black"/>
<path d="M272.027 158.691C272.718 158.713 273.411 158.657 274.095 158.525C275.858 157.725 277.565 156.738 279.195 155.575L278.866 154.827C277.282 155.947 275.629 156.902 273.922 157.683C272.167 157.866 270.403 157.866 268.648 157.683L268.599 158.545C268.731 158.545 270.461 158.691 272.027 158.691Z" fill="#2D485C"/>
<path d="M271.285 158.867L267.989 158.556C267.989 158.556 268.08 157.268 269.637 157.32C271.195 157.372 271.285 158.867 271.285 158.867Z" fill="#2D485C"/>
<g opacity="0.5">
<path d="M272.027 158.691C272.718 158.713 273.411 158.657 274.095 158.525C275.858 157.725 277.565 156.738 279.195 155.575L278.866 154.827C277.282 155.947 275.629 156.902 273.922 157.683C272.167 157.866 270.403 157.866 268.648 157.683L268.599 158.545C268.731 158.545 270.461 158.691 272.027 158.691Z" fill="black"/>
<path d="M271.285 158.867L267.989 158.556C267.989 158.556 268.079 157.268 269.637 157.32C271.194 157.371 271.285 158.867 271.285 158.867Z" fill="black"/>
</g>
<path d="M140.031 367.243C140.204 367.251 140.377 367.216 140.539 367.14C140.702 367.064 140.851 366.949 140.978 366.8C141.105 366.652 141.207 366.473 141.279 366.274C141.352 366.076 141.392 365.861 141.398 365.643L149.638 245.376C149.653 244.338 149.974 243.345 150.54 242.592C151.106 241.838 151.875 241.379 152.696 241.304H191.621C192.442 241.379 193.211 241.838 193.777 242.592C194.342 243.345 194.664 244.338 194.678 245.376L202.918 365.643C202.919 365.866 202.956 366.086 203.026 366.29C203.095 366.495 203.197 366.68 203.325 366.834C203.452 366.988 203.603 367.108 203.768 367.187C203.934 367.266 204.11 367.303 204.286 367.294C204.642 367.204 204.957 366.944 205.166 366.569C205.374 366.194 205.46 365.732 205.407 365.279L197.167 245.002C196.878 240.795 194.497 237.626 191.621 237.626H152.696C149.82 237.626 147.438 240.795 147.15 245.002L138.91 365.279C138.856 365.732 138.943 366.194 139.151 366.569C139.36 366.944 139.675 367.204 140.031 367.294V367.243Z" fill="#2D485C"/>
<g opacity="0.4">
<path d="M140.031 367.243C140.204 367.251 140.377 367.216 140.54 367.14C140.702 367.065 140.851 366.949 140.978 366.8C141.105 366.652 141.208 366.473 141.28 366.275C141.352 366.076 141.393 365.861 141.399 365.643L149.639 245.376C149.653 244.339 149.975 243.345 150.541 242.592C151.106 241.838 151.875 241.379 152.696 241.304H191.622C192.443 241.379 193.211 241.838 193.777 242.592C194.343 243.345 194.665 244.339 194.679 245.376L202.919 365.643C202.92 365.866 202.956 366.086 203.026 366.291C203.096 366.495 203.198 366.68 203.325 366.834C203.453 366.988 203.604 367.108 203.769 367.187C203.934 367.267 204.11 367.303 204.287 367.295C204.643 367.204 204.958 366.944 205.166 366.569C205.375 366.194 205.461 365.732 205.407 365.28L197.167 245.002C196.879 240.795 194.498 237.627 191.622 237.627H152.696C149.82 237.627 147.439 240.795 147.15 245.002L138.91 365.28C138.857 365.732 138.943 366.194 139.152 366.569C139.36 366.944 139.675 367.204 140.031 367.295V367.243Z" fill="black"/>
</g>
<path d="M140.575 232.422H246.384C247.308 232.422 248.057 233.366 248.057 234.531V241.366C248.057 242.53 247.308 243.474 246.384 243.474H140.575C139.651 243.474 138.902 242.53 138.902 241.366V234.531C138.902 233.366 139.651 232.422 140.575 232.422Z" fill="#263238"/>
<path opacity="0.2" d="M186.801 232.422H140.575C140.138 232.422 139.719 232.641 139.41 233.03C139.1 233.42 138.927 233.949 138.927 234.5V241.335C138.927 241.886 139.1 242.414 139.41 242.804C139.719 243.193 140.138 243.412 140.575 243.412H186.801V232.422Z" fill="white"/>
<path d="M182.665 367.242C182.842 367.252 183.019 367.217 183.185 367.138C183.351 367.06 183.503 366.94 183.631 366.786C183.76 366.631 183.862 366.446 183.933 366.241C184.003 366.035 184.04 365.814 184.041 365.591L192.281 245.323C192.295 244.286 192.617 243.293 193.182 242.539C193.748 241.786 194.517 241.326 195.338 241.251H234.263C235.083 241.329 235.85 241.79 236.414 242.543C236.978 243.296 237.298 244.288 237.312 245.323L245.552 365.643C245.553 365.865 245.59 366.085 245.659 366.29C245.729 366.495 245.831 366.68 245.959 366.834C246.086 366.988 246.237 367.108 246.402 367.187C246.567 367.266 246.743 367.303 246.92 367.294C247.281 367.199 247.599 366.929 247.805 366.543C248.011 366.157 248.09 365.685 248.024 365.227L239.784 244.949C239.496 240.742 237.106 237.574 234.239 237.574H195.313C192.437 237.574 190.056 240.742 189.767 244.949L181.527 365.227C181.473 365.679 181.559 366.139 181.766 366.514C181.972 366.888 182.285 367.149 182.64 367.242H182.665Z" fill="#2D485C"/>
<g opacity="0.4">
<path d="M182.664 367.242C182.841 367.252 183.018 367.216 183.184 367.138C183.35 367.059 183.502 366.939 183.631 366.785C183.759 366.631 183.862 366.446 183.932 366.24C184.002 366.035 184.039 365.814 184.04 365.59L192.28 245.323C192.294 244.286 192.616 243.293 193.182 242.539C193.747 241.786 194.516 241.326 195.337 241.251H234.263C235.082 241.329 235.849 241.789 236.413 242.543C236.977 243.296 237.298 244.287 237.312 245.323L245.552 365.642C245.553 365.865 245.589 366.085 245.659 366.29C245.729 366.494 245.831 366.679 245.958 366.833C246.086 366.987 246.237 367.108 246.402 367.187C246.567 367.266 246.743 367.302 246.92 367.294C247.281 367.199 247.598 366.929 247.805 366.543C248.011 366.157 248.089 365.685 248.024 365.227L239.784 244.949C239.495 240.742 237.106 237.574 234.238 237.574H195.312C192.437 237.574 190.055 240.742 189.767 244.949L181.527 365.227C181.473 365.678 181.558 366.139 181.765 366.513C181.972 366.888 182.285 367.149 182.639 367.242H182.664Z" fill="black"/>
</g>
<path d="M213.144 226.979H182.607V230.604C182.607 231.087 182.759 231.549 183.029 231.89C183.299 232.231 183.666 232.422 184.049 232.422H211.702C212.084 232.422 212.451 232.231 212.722 231.89C212.992 231.549 213.144 231.087 213.144 230.604V227V226.979Z" fill="#263238"/>
<path opacity="0.2" d="M213.144 226.979H182.607V230.604C182.607 231.087 182.759 231.549 183.029 231.89C183.299 232.231 183.666 232.422 184.049 232.422H211.702C212.084 232.422 212.451 232.231 212.722 231.89C212.992 231.549 213.144 231.087 213.144 230.604V227V226.979Z" fill="white"/>
<path d="M234.741 226.979H204.204V230.604C204.204 231.087 204.356 231.549 204.626 231.89C204.897 232.231 205.263 232.422 205.646 232.422H233.299C233.682 232.422 234.048 232.231 234.319 231.89C234.589 231.549 234.741 231.087 234.741 230.604V227V226.979Z" fill="#263238"/>
<path opacity="0.6" d="M234.741 226.979H204.204V230.604C204.204 231.087 204.356 231.549 204.626 231.89C204.897 232.231 205.263 232.422 205.646 232.422H233.299C233.682 232.422 234.048 232.231 234.319 231.89C234.589 231.549 234.741 231.087 234.741 230.604V227V226.979Z" fill="white"/>
<path d="M207.739 229.046H210.573V230.334H207.739V229.046Z" fill="#263238"/>
<path d="M212.279 229.046H215.114V230.334H212.279V229.046Z" fill="#263238"/>
<path d="M180.456 232.422H178.998C178.599 232.412 178.215 232.225 177.914 231.895C177.613 231.564 177.413 231.112 177.35 230.615L172.406 192.295C172.367 191.991 172.38 191.68 172.444 191.382C172.509 191.085 172.623 190.809 172.779 190.572C172.935 190.335 173.129 190.142 173.349 190.008C173.569 189.873 173.809 189.8 174.054 189.792L197.76 189.74L204.171 232.329H202.712L180.456 232.422Z" fill="#263238"/>
<path opacity="0.6" d="M180.456 232.422H178.998C178.599 232.412 178.215 232.225 177.914 231.895C177.613 231.564 177.413 231.112 177.35 230.615L172.406 192.295C172.367 191.991 172.38 191.68 172.444 191.382C172.509 191.085 172.623 190.809 172.779 190.572C172.935 190.335 173.129 190.142 173.349 190.008C173.569 189.873 173.809 189.8 174.054 189.792L197.76 189.74L204.171 232.329H202.712L180.456 232.422Z" fill="white"/>
<path opacity="0.2" d="M203.8 229.649L204.212 232.37H202.753L180.505 232.422H179.047C178.648 232.412 178.264 232.225 177.963 231.895C177.662 231.564 177.463 231.111 177.399 230.615L177.284 229.711L203.8 229.649Z" fill="black"/>
<path d="M204.179 232.401H202.704C202.305 232.391 201.922 232.204 201.621 231.874C201.319 231.544 201.12 231.091 201.056 230.594L196.112 192.254C196.073 191.95 196.086 191.639 196.151 191.343C196.215 191.046 196.33 190.77 196.486 190.534C196.642 190.297 196.837 190.106 197.056 189.973C197.276 189.839 197.516 189.767 197.76 189.76L204.179 232.401Z" fill="#263238"/>
<path opacity="0.3" d="M204.179 232.401H202.704C202.305 232.391 201.922 232.204 201.621 231.874C201.319 231.544 201.12 231.091 201.056 230.594L196.112 192.254C196.073 191.95 196.086 191.639 196.151 191.343C196.215 191.046 196.33 190.77 196.486 190.534C196.642 190.297 196.837 190.106 197.056 189.973C197.276 189.839 197.516 189.767 197.76 189.76L204.179 232.401Z" fill="white"/>
</svg>
