<svg width="354" height="358" viewBox="0 0 354 358" fill="none" xmlns="http://www.w3.org/2000/svg">
<path d="M354 240.878H218.195V159.911H354V240.878ZM219.024 240.024H353.171V160.765H219.024V240.024Z" fill="#E0E0E0"/>
<path d="M325.984 203.083H236.384V205.79H325.984V203.083Z" fill="#F0F0F0"/>
<path d="M332.157 213.174H236.384V216.128H332.157V213.174Z" fill="#F0F0F0"/>
<path d="M332.157 223.385H236.384V226.339H332.157V223.385Z" fill="#F0F0F0"/>
<path d="M267.698 188.425H236.384V195.451H267.698V188.425Z" fill="#F0F0F0"/>
<path d="M353.586 160.338H218.635V173.229H353.586V160.338Z" fill="#E0E0E0"/>
<path d="M343.202 171.3C343.028 171.129 344.769 168.969 347.08 166.476C349.392 163.983 351.422 162.097 351.588 162.259C351.754 162.421 350.022 164.589 347.71 167.091C345.398 169.592 343.368 171.47 343.202 171.3Z" fill="white"/>
<path d="M351.605 171.3C351.439 171.47 349.417 169.592 347.097 167.091C344.777 164.589 343.045 162.43 343.219 162.259C343.393 162.088 345.407 163.966 347.727 166.476C350.047 168.986 351.762 171.129 351.605 171.3Z" fill="white"/>
<path d="M186.89 0H51.9385V80.1219H186.89V0Z" fill="#E6E6E6"/>
<path d="M159.295 42.7544H69.6953V45.4607H159.295V42.7544Z" fill="#F0F0F0"/>
<path d="M165.469 52.8452H69.6953V55.7991H165.469V52.8452Z" fill="#F0F0F0"/>
<path d="M165.469 63.0552H69.6953V66.0091H165.469V63.0552Z" fill="#F0F0F0"/>
<path d="M101.009 28.0962H69.6953V35.1223H101.009V28.0962Z" fill="#F0F0F0"/>
<path d="M186.89 0H51.9385V12.8912H186.89V0Z" fill="#E0E0E0"/>
<path d="M176.051 10.902C175.877 10.7398 177.617 8.57134 179.929 6.07847C182.241 3.5856 184.271 1.69888 184.437 1.86962C184.603 2.04036 182.871 4.20028 180.559 6.69315C178.247 9.18602 176.217 11.0557 176.051 10.902Z" fill="white"/>
<path d="M184.437 10.902C184.271 11.0728 182.249 9.1946 179.929 6.69319C177.609 4.19179 175.877 2.04041 176.051 1.86966C176.225 1.69892 178.239 3.57711 180.559 6.07851C182.879 8.57992 184.611 10.7398 184.437 10.902Z" fill="white"/>
<path d="M135.78 148.838H0V67.8628H135.78V148.838ZM0.828632 147.985H134.951V68.7165H0.828632V147.985Z" fill="#E0E0E0"/>
<path d="M107.772 111.043H18.1719V113.75H107.772V111.043Z" fill="#F0F0F0"/>
<path d="M113.945 121.135H18.1719V124.089H113.945V121.135Z" fill="#F0F0F0"/>
<path d="M113.945 131.345H18.1719V134.299H113.945V131.345Z" fill="#F0F0F0"/>
<path d="M49.4859 96.3848H18.1719V103.411H49.4859V96.3848Z" fill="#F0F0F0"/>
<path d="M135.365 68.2896H0.414062V81.1808H135.365V68.2896Z" fill="#E0E0E0"/>
<path d="M292.482 167.39H133.136V314.367H292.482V167.39Z" fill="#E6E6E6"/>
<path d="M141.149 121.091H16.3242V254.707H141.149V121.091Z" fill="#F0F0F0"/>
<path d="M141.149 121.091H16.3242V135.647H141.149V121.091Z" fill="#E0E0E0"/>
<path d="M26.6318 128.221C26.6091 128.748 26.4365 129.258 26.1353 129.685C25.8341 130.113 25.4177 130.44 24.9376 130.626C24.4576 130.812 23.9352 130.849 23.4351 130.732C22.935 130.614 22.4794 130.349 22.1247 129.967C21.77 129.585 21.5319 129.105 21.4399 128.585C21.3479 128.065 21.4061 127.529 21.6073 127.043C21.8084 126.557 22.1437 126.142 22.5714 125.851C22.9991 125.56 23.5005 125.404 24.0134 125.403C24.7226 125.421 25.396 125.728 25.8867 126.255C26.3773 126.783 26.6452 127.49 26.6318 128.221Z" fill="white"/>
<path d="M37.264 128.221C37.2429 128.751 37.0708 129.263 36.7693 129.694C36.4678 130.124 36.05 130.453 35.5681 130.641C35.0862 130.829 34.5614 130.866 34.0589 130.749C33.5564 130.632 33.0986 130.365 32.7423 129.981C32.3859 129.598 32.1469 129.115 32.0549 128.593C31.9629 128.071 32.022 127.532 32.2249 127.044C32.4277 126.556 32.7654 126.14 33.1958 125.849C33.6262 125.557 34.1303 125.402 34.6455 125.403C35.3547 125.421 36.0282 125.728 36.5188 126.255C37.0095 126.783 37.2774 127.49 37.264 128.221Z" fill="white"/>
<path d="M47.8949 128.221C47.8737 128.751 47.7017 129.263 47.4002 129.694C47.0986 130.124 46.6809 130.453 46.199 130.641C45.7171 130.829 45.1922 130.866 44.6898 130.749C44.1873 130.632 43.7294 130.365 43.3731 129.981C43.0168 129.598 42.7778 129.115 42.6858 128.593C42.5938 128.071 42.6529 127.532 42.8557 127.044C43.0586 126.556 43.3962 126.14 43.8266 125.849C44.257 125.557 44.7612 125.402 45.2764 125.403C45.9856 125.421 46.6591 125.728 47.1497 126.255C47.6403 126.783 47.9082 127.49 47.8949 128.221Z" fill="white"/>
<path d="M336.176 29.2231H176.83V192.848H336.176V29.2231Z" fill="#F0F0F0"/>
<path d="M336.176 29.2231H176.83V48.3892H336.176V29.2231Z" fill="#E0E0E0"/>
<path d="M190.403 38.6141C190.373 39.3109 190.146 39.9834 189.749 40.5483C189.352 41.1132 188.803 41.5455 188.17 41.7915C187.536 42.0376 186.847 42.0865 186.186 41.9323C185.526 41.7781 184.925 41.4275 184.456 40.924C183.988 40.4205 183.673 39.7864 183.551 39.1004C183.43 38.4143 183.506 37.7065 183.772 37.0649C184.037 36.4233 184.479 35.8761 185.044 35.4913C185.609 35.1065 186.27 34.901 186.947 34.9004C187.883 34.9228 188.772 35.3261 189.419 36.0221C190.067 36.7181 190.42 37.6501 190.403 38.6141Z" fill="white"/>
<path d="M203.387 36.1043C203.846 36.6183 204.149 37.2601 204.257 37.95C204.364 38.6398 204.273 39.347 203.993 39.9836C203.714 40.6201 203.258 41.1578 202.684 41.5297C202.11 41.9016 201.442 42.0912 200.764 42.0749C200.086 42.0586 199.428 41.8371 198.871 41.438C198.315 41.039 197.884 40.48 197.634 39.8307C197.383 39.1814 197.324 38.4705 197.463 37.7866C197.602 37.1028 197.933 36.4761 198.415 35.9848C199.09 35.3227 199.993 34.9634 200.925 34.9859C201.857 35.0083 202.742 35.4105 203.387 36.1043Z" fill="white"/>
<path d="M218.394 38.6141C218.365 39.3109 218.137 39.9834 217.74 40.5483C217.343 41.1132 216.794 41.5455 216.161 41.7915C215.527 42.0376 214.838 42.0865 214.178 41.9323C213.517 41.7781 212.916 41.4275 212.447 40.924C211.979 40.4205 211.664 39.7864 211.543 39.1004C211.421 38.4143 211.498 37.7065 211.763 37.0649C212.028 36.4233 212.471 35.8761 213.035 35.4913C213.6 35.1065 214.262 34.901 214.939 34.9004C215.874 34.9228 216.763 35.3261 217.411 36.0221C218.058 36.7181 218.412 37.6501 218.394 38.6141Z" fill="white"/>
<path d="M301.754 357.778C301.754 357.897 244.214 358 173.258 358C102.302 358 44.7373 357.897 44.7373 357.778C44.7373 357.658 102.269 357.556 173.258 357.556C244.247 357.556 301.754 357.667 301.754 357.778Z" fill="#263238"/>
<path d="M245.689 253.266C232.887 244.054 229.987 226.954 230.492 211.579C230.575 209.017 230.302 206.303 231.487 204.057C232.672 201.812 235.439 200.267 237.668 201.342C239.516 202.239 240.32 204.459 241.356 206.294C242.738 208.739 244.763 210.731 247.198 212.04C248.78 212.893 250.744 213.406 252.31 212.518C254.465 211.297 254.713 208.249 254.697 205.688C254.697 200.924 254.669 196.166 254.614 191.414C254.465 188.862 254.717 186.302 255.36 183.833C256.13 181.408 257.845 179.163 260.191 178.48C262.536 177.797 265.461 179.205 265.991 181.698C266.082 182.754 266.107 183.815 266.066 184.874C266.132 185.941 266.612 187.111 267.582 187.435C268.551 187.76 269.562 187.017 270.308 186.266C272.86 183.705 274.6 180.366 276.216 177.071C277.832 173.776 279.415 170.386 281.735 167.578C284.055 164.769 287.262 162.541 290.85 162.327C294.438 162.114 298.175 164.385 299.07 167.97C299.965 171.556 297.935 175.219 295.755 178.13C292.467 182.451 288.59 186.261 284.246 189.442C283.398 189.919 282.721 190.664 282.315 191.567C281.776 193.275 283.343 194.982 284.975 195.52C286.823 196.152 288.828 195.955 290.775 196.194C292.723 196.434 294.794 197.304 295.532 199.183C296.543 201.795 294.421 204.527 292.341 206.32C288.165 209.905 283.423 212.726 278.321 214.66C276.498 215.343 274.584 215.95 273.109 217.264C271.634 218.579 270.756 220.876 271.642 222.677C272.529 224.478 274.808 225.05 276.722 224.683C278.636 224.316 280.335 223.257 282.158 222.549C285.563 221.226 289.955 221.465 292.101 224.495C292.766 225.539 293.187 226.728 293.331 227.968C293.474 229.208 293.337 230.465 292.93 231.641C292.1 233.981 290.824 236.127 289.176 237.95C283.749 244.631 276.697 249.707 268.742 252.66C260.845 255.477 253.528 256.245 245.681 253.283" fill="#2D485C"/>
<path d="M295.424 164.436C295.424 164.436 295.349 164.521 295.183 164.675L294.446 165.349C293.799 165.947 292.847 166.817 291.645 167.97C288.238 171.229 285.075 174.748 282.182 178.496C280.334 180.861 278.42 183.542 276.382 186.453C274.343 189.364 272.238 192.506 270.15 195.844C267.924 199.364 265.885 203.006 264.043 206.755C263.082 208.71 262.237 210.75 261.367 212.833L258.798 219.193C255.412 227.205 252.463 235.405 249.965 243.755C247.952 250.587 246.565 257.598 245.822 264.697C245.34 269.487 245.262 274.312 245.59 279.116C245.722 280.824 245.847 282.13 245.963 283.018C246.012 283.444 246.045 283.786 246.079 284.034V284.384C246.043 284.273 246.018 284.158 246.004 284.042C245.963 283.794 245.913 283.462 245.847 283.035C245.697 282.181 245.54 280.832 245.391 279.125C244.991 274.311 245.019 269.471 245.474 264.663C246.171 257.534 247.528 250.49 249.526 243.627C252.003 235.253 254.944 227.033 258.334 219.005L260.969 212.671C261.839 210.596 262.693 208.539 263.662 206.575C265.517 202.816 267.572 199.165 269.819 195.639C271.94 192.224 274.078 189.134 276.092 186.248C278.105 183.363 280.052 180.665 281.892 178.309C284.815 174.57 288.02 171.075 291.479 167.859C292.706 166.724 293.683 165.87 294.346 165.298L295.117 164.658C295.211 164.573 295.314 164.498 295.424 164.436Z" fill="#263238"/>
<path d="M263.771 206.558C263.654 206.207 263.574 205.843 263.531 205.474C263.398 204.766 263.249 203.767 263.075 202.469C262.719 199.908 262.354 196.399 261.965 192.515C261.575 188.63 261.136 185.113 260.771 182.577C260.581 181.314 260.415 180.298 260.299 179.589C260.209 179.227 260.161 178.854 260.158 178.479C260.301 178.822 260.404 179.18 260.465 179.547C260.647 180.247 260.854 181.254 261.086 182.526C261.559 185.087 262.023 188.57 262.412 192.463C262.802 196.356 263.133 199.771 263.39 202.426C263.514 203.622 263.622 204.638 263.705 205.449C263.769 205.815 263.791 206.187 263.771 206.558Z" fill="#263238"/>
<path d="M295.656 200.429C295.253 200.519 294.843 200.571 294.43 200.583C293.601 200.659 292.425 200.762 290.966 200.933C288.05 201.257 284.039 201.855 279.639 202.708C275.239 203.562 271.286 204.527 268.444 205.27C267.027 205.645 265.884 205.987 265.13 206.217C264.727 206.365 264.31 206.468 263.887 206.524C264.27 206.326 264.669 206.163 265.08 206.038C265.859 205.756 266.986 205.363 268.394 204.945C271.22 204.091 275.173 203.075 279.589 202.205C283.331 201.468 287.106 200.926 290.9 200.583C292.367 200.455 293.552 200.403 294.38 200.386C294.806 200.356 295.234 200.371 295.656 200.429Z" fill="#263238"/>
<path d="M249.932 243.03C249.844 242.906 249.772 242.771 249.717 242.628L249.17 241.442C248.698 240.409 248.06 238.881 247.297 237.011C245.756 233.254 243.792 227.996 241.704 222.156C239.616 216.317 237.694 211.058 236.235 207.259C235.523 205.415 234.934 203.903 234.495 202.777L234.031 201.556C233.967 201.415 233.922 201.266 233.898 201.112C233.987 201.235 234.059 201.37 234.114 201.513L234.661 202.7C235.125 203.733 235.771 205.261 236.533 207.131C238.075 210.887 240.039 216.146 242.127 221.985C244.215 227.825 246.137 233.084 247.596 236.883C248.308 238.727 248.897 240.238 249.328 241.365C249.518 241.851 249.676 242.219 249.8 242.586C249.864 242.726 249.909 242.876 249.932 243.03Z" fill="#263238"/>
<path d="M292.259 228.968C292.126 229.047 291.984 229.107 291.836 229.148L290.61 229.574L286.077 231.086C282.249 232.366 276.962 234.193 271.162 236.208C265.361 238.223 260.05 240.015 256.197 241.211C254.274 241.817 252.708 242.278 251.623 242.585L250.371 242.918C250.226 242.966 250.076 242.997 249.924 243.012C250.057 242.934 250.199 242.873 250.346 242.833L251.573 242.406L256.105 240.895C259.934 239.614 265.22 237.787 271.021 235.772C276.821 233.758 282.124 231.965 285.978 230.77C287.908 230.163 289.466 229.702 290.56 229.395L291.811 229.062C291.957 229.015 292.107 228.983 292.259 228.968Z" fill="#263238"/>
<path d="M274.99 21.8813L270.723 23.4521L268.892 17.7066C265.527 7.11189 254.805 1.48586 244.952 5.06296C235.1 8.64005 229.855 20.2592 233.219 30.8539L235.05 36.5995L230.766 38.1789C229.133 38.8317 227.806 40.1079 227.062 41.7424C226.318 43.3769 226.215 45.2438 226.772 46.9551L238.646 84.3396C238.893 85.1868 239.302 85.9743 239.85 86.6553C240.398 87.3363 241.073 87.8969 241.835 88.3039C242.597 88.7108 243.431 88.9558 244.287 89.0242C245.142 89.0926 246.003 88.9831 246.817 88.7021L291.041 72.4046C292.696 71.7529 294.041 70.4653 294.794 68.8126C295.547 67.1599 295.648 65.2709 295.076 63.5429L283.194 26.1584C282.941 25.3136 282.525 24.53 281.972 23.8542C281.419 23.1785 280.739 22.6245 279.973 22.2253C279.208 21.8261 278.372 21.5899 277.516 21.5308C276.66 21.4717 275.801 21.5909 274.99 21.8813ZM241.282 27.8573C240.374 25.1026 240.537 22.093 241.736 19.4592C242.935 16.8253 245.076 14.7716 247.712 13.7282C249.013 13.2695 250.391 13.0855 251.763 13.1873C253.135 13.2891 254.473 13.6746 255.697 14.3208C256.921 14.967 258.007 15.8606 258.888 16.9483C259.77 18.0361 260.43 19.2957 260.829 20.6519L262.652 26.3975L243.105 33.6029L241.282 27.8573ZM266.14 61.033L269.173 70.5776C269.229 70.769 269.211 70.9751 269.123 71.1532C269.035 71.3313 268.884 71.4676 268.701 71.5338L264.45 73.0961C264.281 73.1444 264.1 73.1234 263.946 73.0375C263.791 72.9515 263.675 72.8073 263.621 72.6351L260.564 63.1332C258.878 63.0385 257.26 62.4155 255.927 61.3475C254.594 60.2794 253.61 58.8174 253.106 57.1571C252.385 54.9621 252.517 52.565 253.473 50.4676C254.429 48.3703 256.136 46.7353 258.235 45.905C259.272 45.5401 260.37 45.3939 261.462 45.4753C262.555 45.5566 263.621 45.8637 264.596 46.3783C265.571 46.893 266.435 47.6046 267.138 48.4708C267.84 49.337 268.366 50.34 268.684 51.4201C269.218 53.1067 269.262 54.9168 268.811 56.6288C268.361 58.3408 267.436 59.8803 266.149 61.0586L266.14 61.033Z" fill="#2D485C"/>
<path d="M270.532 23.3497C270.532 23.4692 262.619 26.5341 252.775 30.1795C242.93 33.8249 234.901 36.7532 234.86 36.6678C234.818 36.5824 242.773 33.4919 252.625 29.838C262.478 26.1841 270.491 23.2387 270.532 23.3497Z" fill="#263238"/>
<path d="M279.929 24.9204C279.966 24.9945 279.996 25.0716 280.02 25.1509C280.087 25.3217 280.161 25.5436 280.261 25.8168C280.476 26.44 280.775 27.3023 281.147 28.378L284.329 37.9226C285.655 41.9692 287.238 46.7672 288.995 52.0944C289.823 54.7665 290.801 57.5497 291.712 60.4779C292.2 61.9869 292.411 63.5764 292.334 65.1649C292.264 65.991 292.036 66.7947 291.663 67.5297C291.265 68.2622 290.733 68.9087 290.097 69.4335C288.816 70.3963 287.395 71.1427 285.887 71.6446L281.62 73.224L273.541 76.2035L259.86 81.2234L250.621 84.57L248.135 85.4237L247.472 85.6457C247.401 85.6782 247.325 85.6984 247.248 85.7054C247.248 85.7054 247.314 85.7055 247.455 85.603L248.102 85.3383L250.587 84.3736L259.777 80.8905L273.433 75.7681L281.495 72.763L285.763 71.1751C287.228 70.6936 288.608 69.9699 289.848 69.0322C290.44 68.5452 290.935 67.9452 291.306 67.265C291.657 66.5853 291.869 65.8385 291.928 65.071C292.004 63.5404 291.802 62.0087 291.331 60.5548C290.436 57.6521 289.492 54.8434 288.638 52.1712C286.915 46.8355 285.324 42.0205 284.064 37.9738C282.805 33.9272 281.744 30.6745 281.015 28.3865C280.667 27.2681 280.402 26.3974 280.186 25.7656L279.987 25.0826C279.962 25.0309 279.943 24.9765 279.929 24.9204Z" fill="#263238"/>
<path d="M256.594 13.148C256.594 13.148 256.155 12.9261 255.342 12.5846C254.185 12.1264 252.961 11.8724 251.721 11.8333C249.884 11.7684 248.056 12.1241 246.368 12.8748C244.316 13.8096 242.561 15.3217 241.305 17.2374C240.041 19.1476 239.363 21.405 239.358 23.7171C239.375 25.6121 239.654 27.495 240.187 29.309C240.618 30.8628 241.065 32.1007 241.363 32.9629C241.539 33.4009 241.683 33.8518 241.794 34.3118C241.559 33.9023 241.362 33.4707 241.206 33.0227C240.866 32.169 240.377 30.9567 239.897 29.3944C239.307 27.5613 238.986 25.6478 238.944 23.7171C238.922 21.3177 239.616 18.9692 240.933 16.9898C242.232 15.0041 244.059 13.4453 246.194 12.4992C247.935 11.7444 249.82 11.4114 251.705 11.526C252.971 11.5924 254.215 11.8962 255.376 12.4224C255.686 12.5699 255.985 12.7411 256.271 12.9346C256.388 12.9879 256.497 13.06 256.594 13.148Z" fill="#263238"/>
<path d="M256.976 46.5543C257.108 46.4717 257.246 46.4003 257.39 46.3409C257.805 46.148 258.234 45.991 258.674 45.8713C259.373 45.6589 260.093 45.5328 260.82 45.4957C261.81 45.4409 262.799 45.5949 263.729 45.9481C265.85 46.7165 267.797 48.9447 268.759 51.9242C269.22 53.5231 269.22 55.2256 268.759 56.8246C268.248 58.56 267.331 60.1399 266.09 61.4261L266.14 61.1956C267.242 64.3117 268.444 67.6925 269.687 71.2183L269.761 71.4318L269.554 71.5086L267.657 72.1574L263.513 73.5831L263.306 73.6514L263.24 73.438C262.105 69.9036 260.862 66.6082 259.925 63.3726L260.108 63.5177C258.488 63.3791 256.943 62.7527 255.666 61.7164C254.511 60.7996 253.564 59.6342 252.89 58.3015C252.283 57.1196 251.98 55.7967 252.012 54.4598C252.05 53.0933 252.382 51.7525 252.982 50.5334C253.582 49.3143 254.436 48.247 255.484 47.408C255.915 47.0474 256.399 46.7593 256.918 46.5543C256.449 46.8404 255.996 47.151 255.559 47.4848C254.408 48.4878 253.526 49.7783 252.998 51.2327C252.545 52.3294 252.333 53.5159 252.377 54.7071C252.422 55.8983 252.721 57.0645 253.255 58.1222C253.917 59.4043 254.842 60.5229 255.965 61.4005C257.183 62.3855 258.655 62.9793 260.199 63.108H260.34L260.381 63.236C261.293 66.4119 262.544 69.7328 263.696 73.2843L263.422 73.1477L267.565 71.722L269.455 71.0647L269.322 71.3549C268.087 67.829 266.894 64.4398 265.8 61.3237V61.1956L265.9 61.0932C267.105 59.8603 268.003 58.3462 268.518 56.6794C268.958 55.1499 268.958 53.522 268.518 51.9925C267.615 49.124 265.751 46.947 263.729 46.1786C262.834 45.8231 261.878 45.6576 260.92 45.692C260.204 45.7089 259.492 45.8092 258.799 45.9908C257.564 46.3067 256.984 46.597 256.976 46.5543Z" fill="#263238"/>
<path d="M231.363 293.057L148.59 292.664C143.81 292.637 139.236 290.656 135.873 287.157C132.509 283.658 130.631 278.926 130.651 274.002L131.529 60.2209C131.539 57.781 132.015 55.367 132.931 53.1169C133.847 50.8668 135.184 48.8247 136.866 47.1074C138.548 45.39 140.543 44.0311 142.735 43.1083C144.927 42.1855 147.275 41.7169 149.643 41.7292L232.407 42.122C237.187 42.1468 241.762 44.1253 245.127 47.6228C248.492 51.1204 250.372 55.851 250.355 60.7758L249.476 274.548C249.467 276.989 248.99 279.403 248.075 281.654C247.159 283.906 245.822 285.949 244.14 287.667C242.458 289.386 240.464 290.747 238.272 291.671C236.079 292.596 233.731 293.067 231.363 293.057Z" fill="#455A64"/>
<path d="M232.282 49.4721H216.239C215.716 49.4821 215.199 49.5983 214.72 49.8139C214.24 50.0296 213.806 50.3405 213.443 50.729C213.079 51.1175 212.794 51.5758 212.603 52.078C212.412 52.5801 212.318 53.1161 212.328 53.6554V56.6519C212.338 57.1908 212.245 57.7264 212.053 58.228C211.862 58.7297 211.577 59.1875 211.213 59.5753C210.85 59.963 210.416 60.2732 209.936 60.4879C209.456 60.7027 208.94 60.8178 208.417 60.8266L177.144 60.6815C176.087 60.6524 175.083 60.192 174.354 59.4012C173.626 58.6105 173.231 57.5541 173.258 56.4641V53.4676C173.285 52.379 172.892 51.3239 172.165 50.5334C171.438 49.7429 170.437 49.2814 169.38 49.2502H163.737L149.692 49.1819C146.351 49.1614 143.139 50.5056 140.758 52.9201C138.377 55.3346 137.022 58.6228 136.989 62.0645L136.16 270.731C136.153 272.439 136.472 274.131 137.099 275.712C137.726 277.292 138.649 278.73 139.816 279.943C140.982 281.156 142.369 282.12 143.897 282.781C145.425 283.441 147.065 283.786 148.722 283.793L231.32 284.186C232.979 284.194 234.622 283.865 236.158 283.219C237.693 282.572 239.089 281.62 240.267 280.418C241.445 279.215 242.382 277.785 243.023 276.21C243.665 274.634 243.999 272.944 244.007 271.235L244.835 62.5682C244.855 59.1168 243.544 55.7984 241.19 53.3427C238.836 50.8869 235.632 49.4947 232.282 49.4721Z" fill="white"/>
<path d="M221.17 256.346L159.752 256.073C159.114 256.073 158.6 255.356 158.608 254.485L158.675 237.932C158.675 237.078 159.197 236.344 159.835 236.344L221.253 236.634C221.607 236.697 221.923 236.898 222.136 237.196C222.349 237.493 222.442 237.864 222.397 238.23L222.339 254.767C222.339 255.646 221.808 256.355 221.17 256.346Z" fill="#2D485C"/>
<path d="M178.92 249.311C178.497 249.311 178.091 249.243 177.7 249.108C177.316 248.967 177.017 248.788 176.806 248.571L177.042 248.108C177.242 248.303 177.511 248.468 177.847 248.604C178.188 248.734 178.546 248.799 178.92 248.799C179.278 248.799 179.568 248.755 179.79 248.669C180.018 248.576 180.183 248.454 180.286 248.303C180.395 248.151 180.449 247.983 180.449 247.799C180.449 247.576 180.384 247.397 180.254 247.262C180.129 247.126 179.964 247.021 179.758 246.945C179.552 246.863 179.324 246.793 179.075 246.733C178.825 246.674 178.576 246.611 178.327 246.546C178.077 246.476 177.847 246.384 177.635 246.27C177.429 246.156 177.261 246.007 177.131 245.823C177.007 245.633 176.944 245.386 176.944 245.083C176.944 244.801 177.017 244.543 177.164 244.31C177.316 244.072 177.546 243.882 177.855 243.741C178.164 243.595 178.56 243.522 179.042 243.522C179.362 243.522 179.679 243.568 179.993 243.66C180.308 243.746 180.579 243.868 180.807 244.026L180.603 244.505C180.359 244.343 180.099 244.224 179.823 244.148C179.552 244.072 179.289 244.034 179.034 244.034C178.692 244.034 178.411 244.08 178.188 244.172C177.966 244.264 177.801 244.389 177.692 244.546C177.589 244.698 177.538 244.871 177.538 245.066C177.538 245.289 177.6 245.468 177.725 245.603C177.855 245.739 178.023 245.844 178.229 245.92C178.44 245.996 178.671 246.064 178.92 246.124C179.169 246.183 179.416 246.248 179.66 246.319C179.909 246.389 180.137 246.481 180.343 246.595C180.555 246.704 180.723 246.85 180.847 247.034C180.977 247.219 181.042 247.46 181.042 247.758C181.042 248.034 180.967 248.292 180.815 248.53C180.663 248.763 180.43 248.953 180.115 249.1C179.806 249.241 179.408 249.311 178.92 249.311ZM182.353 249.262V243.57H182.955V249.262H182.353ZM184.807 249.262V243.57H185.303L189.231 248.514H188.97V243.57H189.564V249.262H189.068L185.149 244.318H185.409V249.262H184.807ZM193.918 249.311C193.484 249.311 193.083 249.241 192.715 249.1C192.351 248.953 192.034 248.75 191.763 248.49C191.498 248.23 191.289 247.923 191.137 247.571C190.991 247.219 190.918 246.834 190.918 246.416C190.918 245.999 190.991 245.614 191.137 245.262C191.289 244.909 191.5 244.603 191.771 244.343C192.042 244.083 192.36 243.882 192.723 243.741C193.091 243.595 193.492 243.522 193.926 243.522C194.36 243.522 194.756 243.589 195.113 243.725C195.477 243.86 195.786 244.066 196.04 244.343L195.666 244.725C195.428 244.486 195.165 244.316 194.878 244.213C194.59 244.11 194.281 244.058 193.951 244.058C193.598 244.058 193.273 244.118 192.975 244.237C192.682 244.351 192.425 244.516 192.202 244.733C191.986 244.944 191.815 245.194 191.69 245.481C191.571 245.763 191.511 246.075 191.511 246.416C191.511 246.752 191.571 247.064 191.69 247.351C191.815 247.639 191.986 247.891 192.202 248.108C192.425 248.319 192.682 248.484 192.975 248.604C193.273 248.717 193.595 248.774 193.942 248.774C194.268 248.774 194.574 248.726 194.861 248.628C195.154 248.53 195.422 248.365 195.666 248.132L196.008 248.587C195.737 248.826 195.42 249.007 195.056 249.132C194.693 249.251 194.314 249.311 193.918 249.311ZM195.43 248.514V246.416H196.008V248.587L195.43 248.514ZM179.644 259.311C178.917 259.311 178.346 259.102 177.928 258.685C177.511 258.267 177.302 257.65 177.302 256.831V253.57H177.904V256.807C177.904 257.479 178.056 257.975 178.359 258.295C178.663 258.614 179.091 258.774 179.644 258.774C180.202 258.774 180.633 258.614 180.937 258.295C181.24 257.975 181.392 257.479 181.392 256.807V253.57H181.977V256.831C181.977 257.65 181.769 258.267 181.351 258.685C180.939 259.102 180.37 259.311 179.644 259.311ZM183.791 259.262V253.57H185.921C186.404 253.57 186.818 253.649 187.165 253.806C187.512 253.958 187.778 254.18 187.962 254.473C188.152 254.76 188.247 255.11 188.247 255.522C188.247 255.923 188.152 256.27 187.962 256.563C187.778 256.85 187.512 257.072 187.165 257.229C186.818 257.387 186.404 257.465 185.921 257.465H184.124L184.392 257.181V259.262H183.791ZM184.392 257.229L184.124 256.937H185.905C186.474 256.937 186.905 256.815 187.198 256.571C187.496 256.321 187.645 255.972 187.645 255.522C187.645 255.066 187.496 254.714 187.198 254.465C186.905 254.215 186.474 254.091 185.905 254.091H184.124L184.392 253.806V257.229Z" fill="#E8E8E3"/>
<path d="M172.003 110.813L150.69 110.713L150.673 114.742L171.985 114.842L172.003 110.813Z" fill="#2D485C"/>
<path opacity="0.1" d="M172.003 110.813L150.69 110.713L150.673 114.742L171.985 114.842L172.003 110.813Z" fill="black"/>
<path d="M234.478 135.553C234.645 135.536 234.81 135.495 234.967 135.433C235.196 135.341 235.396 135.184 235.542 134.98C235.689 134.776 235.777 134.534 235.795 134.281C235.795 132.923 235.795 130.943 235.795 128.399C235.795 127.127 235.795 125.701 235.795 124.13C235.795 123.746 235.795 123.345 235.795 122.943C235.849 122.554 235.767 122.158 235.563 121.825C235.449 121.666 235.301 121.536 235.13 121.445C234.959 121.355 234.77 121.307 234.577 121.304H233.285H221.311L152.004 121.04C151.827 121.037 151.651 121.078 151.493 121.159C151.334 121.241 151.197 121.361 151.093 121.509C150.893 121.843 150.816 122.24 150.877 122.628C150.877 123.481 150.877 124.335 150.877 125.189C150.877 126.896 150.877 128.604 150.877 130.311C150.877 131.165 150.877 132.019 150.877 132.872C150.843 133.27 150.843 133.67 150.877 134.067C150.921 134.238 151.002 134.396 151.114 134.529C151.226 134.662 151.366 134.767 151.524 134.836C151.687 134.903 151.862 134.935 152.037 134.93H156.255L174.659 135.032L205.816 135.229L226.821 135.399L232.531 135.468H234.014C234.354 135.468 234.519 135.468 234.519 135.468H234.014H232.531H226.821H205.816L174.659 135.365L156.255 135.288H152.037C151.805 135.298 151.574 135.257 151.358 135.169C151.14 135.073 150.946 134.927 150.791 134.742C150.635 134.557 150.523 134.338 150.463 134.102C150.415 133.878 150.398 133.648 150.413 133.419V132.787C150.413 131.933 150.413 131.079 150.413 130.226C150.413 128.518 150.413 126.811 150.413 125.103C150.413 124.25 150.413 123.396 150.413 122.542C150.397 122.315 150.397 122.087 150.413 121.859C150.444 121.608 150.539 121.37 150.687 121.168C150.83 120.962 151.019 120.794 151.238 120.68C151.457 120.565 151.7 120.507 151.946 120.51L221.253 120.903L233.227 120.988H234.519C234.747 120.989 234.971 121.045 235.173 121.154C235.375 121.262 235.549 121.419 235.679 121.612C235.913 121.983 236.007 122.429 235.945 122.867C235.945 123.268 235.945 123.669 235.945 124.053C235.945 125.607 235.945 127.033 235.945 128.322C235.945 130.883 235.887 132.847 235.87 134.213C235.85 134.475 235.757 134.726 235.603 134.937C235.449 135.147 235.24 135.307 235 135.399C234.843 135.499 234.662 135.553 234.478 135.553Z" fill="#E0E0E0"/>
<path d="M196.071 125.326H157.092V129.091H196.071V125.326Z" fill="#2D485C"/>
<path opacity="0.2" d="M196.071 125.326H157.092V129.091H196.071V125.326Z" fill="white"/>
<path d="M171.858 147.573L150.546 147.474L150.528 151.503L171.84 151.603L171.858 147.573Z" fill="#2D485C"/>
<path opacity="0.1" d="M171.858 147.573L150.546 147.474L150.528 151.503L171.84 151.603L171.858 147.573Z" fill="black"/>
<path d="M233.94 172.315C234.107 172.294 234.273 172.262 234.437 172.221C234.668 172.145 234.881 172.019 235.061 171.851C235.242 171.683 235.385 171.477 235.481 171.248C235.611 170.903 235.663 170.532 235.63 170.164C235.63 169.754 235.63 169.31 235.63 168.815C235.63 167.824 235.63 166.697 235.63 165.4V159.979C235.67 159.586 235.585 159.191 235.39 158.852C235.185 158.504 234.864 158.245 234.487 158.126C234.074 158.05 233.654 158.027 233.235 158.058H221.311L152.245 157.793C151.873 157.794 151.515 157.934 151.236 158.187C150.957 158.439 150.777 158.788 150.729 159.168C150.729 159.979 150.729 160.875 150.729 161.729C150.729 163.436 150.729 165.144 150.729 166.851C150.729 167.705 150.729 168.559 150.729 169.412C150.698 169.811 150.714 170.213 150.778 170.607C150.882 170.954 151.095 171.254 151.383 171.461C151.689 171.661 152.049 171.757 152.411 171.734H153.562H155.957L174.295 171.828L205.344 172.025L226.275 172.195L231.968 172.264H226.275H205.344L174.278 172.23L155.941 172.161H152.336C151.888 172.189 151.443 172.066 151.068 171.811C150.691 171.542 150.416 171.147 150.289 170.693C150.215 170.259 150.193 169.817 150.223 169.378C150.223 168.524 150.223 167.671 150.223 166.817C150.223 165.109 150.223 163.402 150.223 161.695C150.223 160.841 150.223 159.987 150.223 159.133C150.283 158.645 150.515 158.197 150.873 157.871C151.231 157.546 151.693 157.366 152.17 157.366L221.237 157.759L233.161 157.853C233.605 157.825 234.051 157.856 234.487 157.947C234.917 158.092 235.28 158.396 235.506 158.8C235.72 159.176 235.813 159.613 235.771 160.047C235.771 160.448 235.771 160.841 235.771 161.234C235.771 162.779 235.771 164.196 235.771 165.502C235.771 166.808 235.771 167.91 235.771 168.917C235.771 169.404 235.771 169.856 235.771 170.274C235.801 170.656 235.741 171.04 235.597 171.393C235.489 171.628 235.334 171.837 235.141 172.005C234.948 172.173 234.722 172.296 234.478 172.366C234.297 172.382 234.115 172.364 233.94 172.315Z" fill="#E0E0E0"/>
<path d="M171.697 185.929L150.385 185.83L150.367 189.859L171.679 189.959L171.697 185.929Z" fill="#2D485C"/>
<path opacity="0.1" d="M171.697 185.929L150.385 185.83L150.367 189.859L171.679 189.959L171.697 185.929Z" fill="black"/>
<path d="M233.773 210.655C233.941 210.635 234.107 210.604 234.271 210.561C234.501 210.486 234.713 210.361 234.893 210.195C235.073 210.028 235.217 209.825 235.315 209.597C235.445 209.252 235.496 208.881 235.464 208.513C235.464 208.094 235.464 207.659 235.464 207.155C235.464 206.173 235.464 205.038 235.464 203.74V198.319C235.503 197.927 235.419 197.531 235.223 197.192C235.014 196.851 234.694 196.596 234.32 196.475C233.908 196.396 233.488 196.37 233.069 196.398H221.145L152.079 196.134C151.707 196.134 151.348 196.274 151.07 196.527C150.791 196.78 150.61 197.129 150.562 197.508C150.562 198.362 150.562 199.215 150.562 200.069C150.562 201.777 150.562 203.484 150.562 205.192C150.562 206.045 150.562 206.899 150.562 207.753C150.531 208.149 150.548 208.547 150.612 208.939C150.711 209.288 150.925 209.59 151.217 209.793C151.521 209.998 151.882 210.094 152.244 210.066H155.849L174.186 210.169L205.235 210.365L226.167 210.536L231.859 210.604H226.167H205.235L174.186 210.51L155.849 210.433H152.244C151.796 210.465 151.35 210.341 150.976 210.083C150.599 209.814 150.324 209.419 150.198 208.965C150.123 208.531 150.101 208.09 150.131 207.65C150.131 206.797 150.131 205.943 150.131 205.089C150.131 203.382 150.131 201.674 150.131 199.967C150.131 199.113 150.131 198.259 150.131 197.363C150.19 196.875 150.419 196.427 150.776 196.101C151.133 195.776 151.594 195.596 152.07 195.596L221.137 195.988L233.061 196.082C233.505 196.054 233.95 196.086 234.387 196.176C234.817 196.321 235.18 196.625 235.406 197.03C235.62 197.406 235.713 197.842 235.671 198.276C235.671 198.678 235.671 199.079 235.671 199.463C235.671 201.008 235.671 202.425 235.671 203.732C235.671 205.038 235.671 206.139 235.671 207.147C235.671 207.633 235.671 208.086 235.671 208.504C235.703 208.886 235.643 209.27 235.497 209.622C235.389 209.858 235.234 210.067 235.041 210.235C234.848 210.403 234.622 210.526 234.378 210.596C234.184 210.664 233.977 210.685 233.773 210.655Z" fill="#E0E0E0"/>
<path d="M195.239 163.151L156.261 162.969L156.244 166.734L195.223 166.916L195.239 163.151Z" fill="#2D485C"/>
<path opacity="0.2" d="M195.239 163.151L156.261 162.969L156.244 166.734L195.223 166.916L195.239 163.151Z" fill="white"/>
<path d="M159.785 203.689C159.761 204.032 159.639 204.36 159.435 204.633C159.231 204.906 158.954 205.111 158.638 205.223C158.322 205.335 157.981 205.349 157.657 205.263C157.334 205.177 157.042 204.995 156.817 204.74C156.593 204.485 156.446 204.167 156.396 203.827C156.345 203.487 156.392 203.138 156.532 202.825C156.672 202.513 156.897 202.249 157.181 202.067C157.465 201.885 157.794 201.793 158.128 201.802C158.59 201.828 159.023 202.041 159.333 202.395C159.643 202.748 159.806 203.213 159.785 203.689Z" fill="#2D485C"/>
<path d="M165.064 203.715C165.08 203.955 165.048 204.197 164.97 204.424C164.892 204.652 164.769 204.86 164.61 205.037C164.45 205.213 164.257 205.354 164.042 205.45C163.827 205.546 163.595 205.596 163.361 205.596C163.127 205.596 162.895 205.546 162.681 205.45C162.466 205.354 162.273 205.213 162.113 205.037C161.953 204.86 161.83 204.652 161.752 204.424C161.674 204.197 161.642 203.955 161.658 203.715C161.642 203.474 161.674 203.232 161.752 203.005C161.83 202.778 161.953 202.569 162.113 202.393C162.273 202.216 162.466 202.076 162.681 201.979C162.895 201.883 163.127 201.833 163.361 201.833C163.595 201.833 163.827 201.883 164.042 201.979C164.257 202.076 164.45 202.216 164.61 202.393C164.769 202.569 164.892 202.778 164.97 203.005C165.048 203.232 165.08 203.474 165.064 203.715Z" fill="#2D485C"/>
<path d="M170.351 203.74C170.326 204.084 170.205 204.412 170.001 204.685C169.797 204.958 169.519 205.163 169.203 205.275C168.887 205.387 168.546 205.401 168.223 205.315C167.899 205.229 167.607 205.047 167.383 204.792C167.158 204.536 167.012 204.219 166.961 203.879C166.91 203.538 166.958 203.19 167.097 202.877C167.237 202.564 167.463 202.301 167.746 202.119C168.03 201.937 168.359 201.845 168.694 201.854C169.154 201.882 169.586 202.096 169.896 202.449C170.206 202.801 170.369 203.265 170.351 203.74Z" fill="#2D485C"/>
<path d="M175.628 203.766C175.604 204.109 175.482 204.438 175.278 204.71C175.074 204.983 174.797 205.188 174.481 205.3C174.165 205.412 173.824 205.426 173.5 205.34C173.176 205.254 172.884 205.072 172.66 204.817C172.436 204.562 172.289 204.244 172.239 203.904C172.188 203.564 172.235 203.215 172.375 202.903C172.514 202.59 172.74 202.326 173.024 202.144C173.307 201.962 173.637 201.87 173.971 201.879C174.432 201.908 174.863 202.121 175.173 202.474C175.483 202.827 175.646 203.29 175.628 203.766Z" fill="#2D485C"/>
<path d="M180.907 203.783C180.884 204.127 180.764 204.456 180.561 204.73C180.358 205.004 180.081 205.211 179.765 205.324C179.449 205.437 179.107 205.452 178.783 205.367C178.459 205.282 178.166 205.101 177.941 204.846C177.716 204.591 177.569 204.273 177.517 203.933C177.466 203.592 177.513 203.243 177.652 202.93C177.792 202.617 178.018 202.352 178.302 202.17C178.586 201.988 178.915 201.896 179.25 201.905C179.709 201.934 180.14 202.146 180.449 202.497C180.759 202.848 180.923 203.309 180.907 203.783Z" fill="#2D485C"/>
<path d="M186.194 203.808C186.172 204.15 186.052 204.478 185.851 204.751C185.65 205.024 185.376 205.231 185.062 205.346C184.748 205.46 184.409 205.478 184.086 205.397C183.762 205.315 183.469 205.138 183.242 204.887C183.015 204.636 182.865 204.323 182.809 203.985C182.753 203.647 182.794 203.299 182.927 202.985C183.06 202.67 183.279 202.403 183.558 202.216C183.837 202.028 184.163 201.929 184.495 201.93C184.962 201.947 185.403 202.155 185.721 202.507C186.04 202.859 186.21 203.327 186.194 203.808Z" fill="#2D485C"/>
<path d="M191.472 203.834C191.489 204.074 191.457 204.316 191.378 204.543C191.3 204.771 191.178 204.979 191.018 205.156C190.858 205.332 190.665 205.473 190.45 205.569C190.235 205.665 190.004 205.715 189.769 205.715C189.535 205.715 189.304 205.665 189.089 205.569C188.874 205.473 188.681 205.332 188.521 205.156C188.361 204.979 188.239 204.771 188.16 204.543C188.082 204.316 188.05 204.074 188.067 203.834C188.05 203.593 188.082 203.352 188.16 203.124C188.239 202.897 188.361 202.688 188.521 202.512C188.681 202.335 188.874 202.195 189.089 202.098C189.304 202.002 189.535 201.953 189.769 201.953C190.004 201.953 190.235 202.002 190.45 202.098C190.665 202.195 190.858 202.335 191.018 202.512C191.178 202.688 191.3 202.897 191.378 203.124C191.457 203.352 191.489 203.593 191.472 203.834Z" fill="#2D485C"/>
<path d="M196.751 203.86C196.728 204.202 196.609 204.53 196.408 204.803C196.207 205.076 195.932 205.283 195.619 205.397C195.305 205.512 194.966 205.53 194.642 205.448C194.319 205.367 194.026 205.19 193.799 204.939C193.572 204.688 193.421 204.374 193.365 204.036C193.309 203.698 193.35 203.351 193.483 203.036C193.617 202.722 193.836 202.455 194.115 202.267C194.393 202.08 194.719 201.981 195.052 201.981C195.519 201.999 195.96 202.207 196.278 202.559C196.597 202.911 196.766 203.379 196.751 203.86Z" fill="#2D485C"/>
<path d="M202.028 203.886C202.005 204.23 201.885 204.559 201.682 204.833C201.479 205.107 201.202 205.313 200.886 205.427C200.57 205.54 200.229 205.555 199.904 205.47C199.58 205.385 199.287 205.204 199.062 204.948C198.837 204.693 198.69 204.376 198.638 204.035C198.587 203.695 198.634 203.346 198.773 203.033C198.913 202.719 199.139 202.455 199.423 202.273C199.707 202.09 200.036 201.998 200.371 202.007C200.83 202.036 201.261 202.248 201.57 202.599C201.88 202.95 202.044 203.412 202.028 203.886Z" fill="#2D485C"/>
<g opacity="0.2">
<path d="M159.785 203.689C159.761 204.032 159.639 204.36 159.435 204.633C159.231 204.906 158.954 205.111 158.638 205.223C158.322 205.335 157.981 205.349 157.657 205.263C157.334 205.177 157.042 204.995 156.817 204.74C156.593 204.485 156.446 204.167 156.396 203.827C156.345 203.487 156.392 203.138 156.532 202.825C156.672 202.513 156.897 202.249 157.181 202.067C157.465 201.885 157.794 201.793 158.128 201.802C158.59 201.828 159.023 202.041 159.333 202.395C159.643 202.748 159.806 203.213 159.785 203.689Z" fill="white"/>
<path d="M165.063 203.714C165.079 203.954 165.048 204.196 164.969 204.423C164.891 204.651 164.768 204.859 164.609 205.036C164.449 205.212 164.256 205.353 164.041 205.449C163.826 205.545 163.594 205.595 163.36 205.595C163.126 205.595 162.894 205.545 162.68 205.449C162.465 205.353 162.272 205.212 162.112 205.036C161.952 204.859 161.829 204.651 161.751 204.423C161.673 204.196 161.641 203.954 161.657 203.714C161.641 203.473 161.673 203.231 161.751 203.004C161.829 202.777 161.952 202.568 162.112 202.392C162.272 202.215 162.465 202.075 162.68 201.978C162.894 201.882 163.126 201.833 163.36 201.833C163.594 201.833 163.826 201.882 164.041 201.978C164.256 202.075 164.449 202.215 164.609 202.392C164.768 202.568 164.891 202.777 164.969 203.004C165.048 203.231 165.079 203.473 165.063 203.714Z" fill="white"/>
<path d="M170.35 203.74C170.325 204.083 170.204 204.412 170 204.685C169.796 204.957 169.518 205.162 169.202 205.274C168.886 205.386 168.545 205.4 168.222 205.314C167.898 205.228 167.606 205.047 167.382 204.791C167.157 204.536 167.011 204.218 166.96 203.878C166.909 203.538 166.957 203.19 167.096 202.877C167.236 202.564 167.462 202.3 167.745 202.118C168.029 201.936 168.358 201.844 168.693 201.853C169.153 201.882 169.585 202.095 169.895 202.448C170.205 202.801 170.368 203.265 170.35 203.74Z" fill="white"/>
<path d="M175.629 203.765C175.605 204.108 175.483 204.437 175.279 204.709C175.075 204.982 174.798 205.187 174.482 205.299C174.166 205.411 173.825 205.425 173.501 205.339C173.177 205.253 172.885 205.071 172.661 204.816C172.437 204.561 172.29 204.243 172.24 203.903C172.189 203.563 172.236 203.214 172.376 202.902C172.515 202.589 172.741 202.325 173.025 202.143C173.308 201.961 173.638 201.869 173.972 201.878C174.433 201.907 174.864 202.12 175.174 202.473C175.484 202.826 175.647 203.289 175.629 203.765Z" fill="white"/>
<path d="M180.907 203.783C180.884 204.127 180.764 204.456 180.561 204.73C180.358 205.004 180.081 205.21 179.765 205.324C179.449 205.437 179.107 205.452 178.783 205.367C178.459 205.282 178.166 205.101 177.941 204.845C177.716 204.59 177.569 204.273 177.517 203.932C177.466 203.592 177.513 203.243 177.652 202.93C177.792 202.616 178.018 202.352 178.302 202.17C178.586 201.987 178.915 201.895 179.25 201.904C179.709 201.933 180.14 202.145 180.449 202.496C180.759 202.847 180.923 203.309 180.907 203.783Z" fill="white"/>
<path d="M186.193 203.808C186.171 204.15 186.051 204.478 185.85 204.751C185.649 205.024 185.375 205.231 185.061 205.346C184.747 205.46 184.408 205.478 184.085 205.397C183.761 205.315 183.468 205.138 183.241 204.887C183.014 204.636 182.864 204.323 182.808 203.985C182.752 203.647 182.793 203.299 182.926 202.985C183.059 202.67 183.278 202.403 183.557 202.216C183.836 202.028 184.162 201.929 184.495 201.93C184.961 201.947 185.402 202.155 185.72 202.507C186.039 202.859 186.209 203.327 186.193 203.808Z" fill="white"/>
<path d="M191.472 203.834C191.489 204.074 191.457 204.316 191.378 204.543C191.3 204.771 191.178 204.979 191.018 205.156C190.858 205.332 190.665 205.473 190.45 205.569C190.235 205.665 190.004 205.715 189.769 205.715C189.535 205.715 189.304 205.665 189.089 205.569C188.874 205.473 188.681 205.332 188.521 205.156C188.361 204.979 188.239 204.771 188.16 204.543C188.082 204.316 188.05 204.074 188.067 203.834C188.05 203.593 188.082 203.352 188.16 203.124C188.239 202.897 188.361 202.688 188.521 202.512C188.681 202.335 188.874 202.195 189.089 202.098C189.304 202.002 189.535 201.953 189.769 201.953C190.004 201.953 190.235 202.002 190.45 202.098C190.665 202.195 190.858 202.335 191.018 202.512C191.178 202.688 191.3 202.897 191.378 203.124C191.457 203.352 191.489 203.593 191.472 203.834Z" fill="white"/>
<path d="M196.751 203.859C196.728 204.201 196.609 204.529 196.408 204.802C196.207 205.076 195.932 205.282 195.619 205.397C195.305 205.512 194.966 205.529 194.642 205.448C194.319 205.367 194.026 205.189 193.799 204.939C193.572 204.688 193.421 204.374 193.365 204.036C193.309 203.698 193.35 203.35 193.483 203.036C193.617 202.722 193.836 202.454 194.115 202.267C194.393 202.079 194.719 201.98 195.052 201.981C195.519 201.999 195.96 202.206 196.278 202.558C196.597 202.911 196.766 203.378 196.751 203.859Z" fill="white"/>
<path d="M202.029 203.885C202.006 204.229 201.886 204.558 201.683 204.832C201.48 205.106 201.203 205.312 200.887 205.426C200.571 205.539 200.23 205.554 199.905 205.469C199.581 205.384 199.288 205.203 199.063 204.948C198.838 204.692 198.691 204.375 198.639 204.034C198.588 203.694 198.635 203.345 198.774 203.032C198.914 202.718 199.14 202.454 199.424 202.272C199.708 202.089 200.037 201.997 200.372 202.006C200.831 202.035 201.262 202.248 201.571 202.598C201.881 202.949 202.045 203.411 202.029 203.885Z" fill="white"/>
</g>
<path d="M194.53 80.6424C195.106 80.3812 195.594 79.9514 195.935 79.4065C196.275 78.8615 196.452 78.2255 196.444 77.5775C196.466 77.1563 196.404 76.735 196.262 76.3392C196.121 75.9435 195.902 75.5816 195.62 75.2756C195.339 74.9697 194.999 74.726 194.623 74.5595C194.247 74.393 193.842 74.3071 193.432 74.3071C193.023 74.3071 192.618 74.393 192.242 74.5595C191.866 74.726 191.526 74.9697 191.244 75.2756C190.963 75.5816 190.744 75.9435 190.603 76.3392C190.461 76.735 190.399 77.1563 190.42 77.5775C190.408 78.232 190.584 78.8756 190.926 79.4272C191.268 79.9787 191.761 80.4135 192.343 80.6765C187.702 81.3936 187.91 86.5843 187.91 86.5843L198.881 86.6355C198.881 86.6355 199.138 81.351 194.53 80.6424Z" fill="#2D485C"/>
<path opacity="0.1" d="M194.53 80.6424C195.106 80.3812 195.594 79.9514 195.935 79.4065C196.275 78.8615 196.452 78.2255 196.444 77.5775C196.466 77.1563 196.404 76.735 196.262 76.3392C196.121 75.9435 195.902 75.5816 195.62 75.2756C195.339 74.9697 194.999 74.726 194.623 74.5595C194.247 74.393 193.842 74.3071 193.432 74.3071C193.023 74.3071 192.618 74.393 192.242 74.5595C191.866 74.726 191.526 74.9697 191.244 75.2756C190.963 75.5816 190.744 75.9435 190.603 76.3392C190.461 76.735 190.399 77.1563 190.42 77.5775C190.408 78.232 190.584 78.8756 190.926 79.4272C191.268 79.9787 191.761 80.4135 192.343 80.6765C187.702 81.3936 187.91 86.5843 187.91 86.5843L198.881 86.6355C198.881 86.6355 199.138 81.351 194.53 80.6424Z" fill="black"/>
<path d="M212.357 89.9826L173.254 89.7998L173.233 94.6147L212.335 94.7976L212.357 89.9826Z" fill="#2D485C"/>
<path opacity="0.2" d="M212.357 89.9826L173.254 89.7998L173.233 94.6147L212.335 94.7976L212.357 89.9826Z" fill="white"/>
<path d="M68.6028 114.937H68.2133L67.0864 115.022C66.4765 115.06 65.8701 115.142 65.2717 115.27C64.8841 115.326 64.4997 115.403 64.1199 115.5L62.8355 115.867C60.6494 116.558 58.5869 117.611 56.7285 118.983C54.2731 120.819 52.2229 123.17 50.7126 125.881C49.8249 127.444 49.1185 129.109 48.6079 130.841C48.0713 132.725 47.7624 134.669 47.6881 136.63C47.6387 137.66 47.6553 138.692 47.7378 139.72C47.7378 140.241 47.8787 140.762 47.945 141.291C48.0007 141.825 48.0977 142.353 48.235 142.87C48.9801 146.296 50.492 149.495 52.65 152.212C54.8081 154.929 57.5525 157.089 60.6645 158.519C62.9168 159.52 65.3309 160.079 67.7824 160.167C70.3145 160.31 72.8491 159.936 75.2401 159.065L75.9693 158.784H76.0688L76.1516 158.835L86.6007 164.299L86.2941 164.572C85.1754 161.003 84.0982 157.546 83.0541 154.225V154.097L83.1453 154.003C85.6801 151.373 87.5618 148.151 88.6308 144.612C89.5991 141.376 89.8817 137.964 89.4595 134.606C89.0839 131.622 88.1526 128.741 86.7167 126.12C85.479 123.869 83.8822 121.849 81.9935 120.144C80.4352 118.795 78.7105 117.664 76.8643 116.781C75.4673 116.16 74.0124 115.688 72.5222 115.372L70.865 115.09L69.6634 114.996L68.9342 114.945H68.6857C68.7683 114.936 68.8516 114.936 68.9342 114.945H69.6717L70.8732 114.996L72.5305 115.244C74.0392 115.537 75.514 115.992 76.9305 116.601C78.8085 117.474 80.5643 118.603 82.1509 119.956C84.0744 121.654 85.705 123.674 86.9736 125.933C88.4502 128.581 89.4101 131.502 89.7992 134.53C90.2565 137.939 89.9936 141.41 89.0286 144.706C87.9525 148.319 86.0417 151.609 83.4602 154.293L83.5099 154.071C84.554 157.392 85.6395 160.85 86.7664 164.41L86.9239 164.931L86.4515 164.683L76.0025 159.228H76.1848L75.439 159.509C73.0019 160.393 70.4204 160.776 67.8405 160.636C65.3361 160.538 62.8715 159.959 60.5733 158.929C56.1896 156.995 52.5424 153.633 50.1906 149.359C49.1083 147.385 48.3179 145.255 47.8456 143.041C47.7162 142.51 47.6193 141.971 47.5555 141.428C47.4892 140.89 47.3815 140.36 47.3567 139.831C47.1324 136.793 47.444 133.739 48.2764 130.816C48.7998 129.059 49.5259 127.374 50.4392 125.796C51.9855 123.06 54.0784 120.694 56.5793 118.855C58.4683 117.479 60.5655 116.435 62.7858 115.765L64.0867 115.423C64.4696 115.332 64.8568 115.26 65.2468 115.21C65.8514 115.094 66.4636 115.026 67.0781 115.005L68.2133 114.962C68.3424 114.944 68.4725 114.936 68.6028 114.937Z" fill="#2D485C"/>
<path d="M73.3257 134.845H71.7928L68.4782 130.047V126.897C68.4782 126.897 66.1083 126.744 66.3901 130.867C66.6718 134.991 66.3901 133.94 66.3901 133.94C66.3901 133.94 61.3603 133.94 60.946 134.41C60.5316 134.88 60.5068 139.882 60.4488 142.674C60.417 143.347 60.6044 144.012 60.9813 144.562C61.3581 145.113 61.9027 145.518 62.5286 145.713C62.7041 145.763 62.8852 145.789 63.0673 145.79C64.3268 145.79 70.7321 144.74 70.7321 144.74H73.3754L73.3257 134.845Z" fill="#2D485C"/>
<path d="M77.7096 134L76.765 144.791H74.1465V134.222L77.7096 134Z" fill="#2D485C"/>
<path d="M108.941 353.689V346.39L96.2376 346.296L96.1299 357.335L96.9171 357.394C100.422 357.625 114.749 357.966 117.103 357.215C119.721 356.378 108.941 353.689 108.941 353.689Z" fill="#2D485C"/>
<path d="M117.401 356.532C117.401 356.651 112.645 356.753 106.787 356.753C100.928 356.753 96.1719 356.651 96.1719 356.532C96.1719 356.412 100.928 356.31 106.787 356.31C112.645 356.31 117.401 356.412 117.401 356.532Z" fill="#263238"/>
<path d="M109.164 355.183C109.056 355.124 109.164 354.739 109.42 354.33C109.677 353.92 110.025 353.749 110.108 353.834C110.191 353.92 110.017 354.244 109.768 354.594C109.52 354.944 109.271 355.243 109.164 355.183Z" fill="#263238"/>
<path d="M109.976 355.661C109.86 355.661 109.918 355.183 110.167 354.73C110.416 354.278 110.747 354.005 110.838 354.073C110.929 354.141 110.78 354.525 110.548 354.927C110.316 355.328 110.084 355.704 109.976 355.661Z" fill="#263238"/>
<path d="M100 356.497C99.9505 356.497 99.7599 356.344 99.4865 356.019C99.1527 355.602 98.7809 355.219 98.3761 354.875C97.9781 354.548 97.504 354.333 97.0006 354.252C96.6111 354.201 96.3625 354.252 96.3377 354.201C96.3128 354.15 96.5531 353.97 97.0089 353.936C97.6103 353.923 98.1971 354.129 98.6661 354.517C99.1056 354.886 99.4763 355.334 99.7599 355.84C99.9505 356.216 100.05 356.463 100 356.497Z" fill="#263238"/>
<path d="M109.207 353.809C109.265 353.911 109.049 354.167 108.685 354.304C108.32 354.441 107.997 354.389 107.98 354.304C107.964 354.219 108.221 354.039 108.535 353.92C108.85 353.8 109.14 353.706 109.207 353.809Z" fill="#263238"/>
<path d="M109.006 353.1C109.006 353.228 108.675 353.331 108.244 353.339C107.813 353.348 107.473 353.245 107.482 353.126C107.49 353.006 107.83 352.895 108.244 352.887C108.658 352.878 108.99 352.981 109.006 353.1Z" fill="#263238"/>
<path d="M140.222 353.689V346.39L127.519 346.296L127.411 357.224L128.198 357.283C131.703 357.514 146.039 357.966 148.384 357.215C151.002 356.378 140.222 353.689 140.222 353.689Z" fill="#2D485C"/>
<path d="M148.682 356.549C148.682 356.669 143.934 356.771 138.067 356.771C132.201 356.771 127.461 356.669 127.461 356.549C127.461 356.43 132.209 356.327 138.067 356.327C143.926 356.327 148.682 356.43 148.682 356.549Z" fill="#263238"/>
<path d="M140.445 355.183C140.346 355.124 140.445 354.739 140.702 354.33C140.959 353.92 141.307 353.749 141.39 353.834C141.473 353.92 141.299 354.244 141.05 354.594C140.801 354.944 140.553 355.243 140.445 355.183Z" fill="#263238"/>
<path d="M141.258 355.661C141.15 355.661 141.2 355.183 141.456 354.73C141.713 354.278 142.036 354.005 142.128 354.073C142.219 354.141 142.061 354.525 141.829 354.927C141.597 355.328 141.374 355.704 141.258 355.661Z" fill="#263238"/>
<path d="M131.281 356.497C131.231 356.497 131.049 356.344 130.767 356.019C130.433 355.602 130.061 355.219 129.656 354.875C129.258 354.548 128.784 354.333 128.281 354.252C127.9 354.201 127.643 354.252 127.618 354.201C127.593 354.15 127.833 353.97 128.289 353.936C128.891 353.923 129.477 354.129 129.946 354.517C130.388 354.883 130.759 355.332 131.04 355.84C131.231 356.216 131.33 356.463 131.281 356.497Z" fill="#263238"/>
<path d="M140.487 353.809C140.545 353.911 140.329 354.167 139.965 354.304C139.6 354.441 139.277 354.389 139.261 354.304C139.244 354.219 139.501 354.039 139.816 353.92C140.131 353.8 140.421 353.706 140.487 353.809Z" fill="#263238"/>
<path d="M140.305 353.1C140.305 353.228 139.973 353.331 139.542 353.339C139.111 353.348 138.78 353.245 138.788 353.126C138.797 353.006 139.128 352.895 139.542 352.887C139.957 352.878 140.305 352.981 140.305 353.1Z" fill="#263238"/>
<path d="M187.023 136.929C186.691 136.579 185.871 136.749 185.871 136.749C185.953 136.258 185.953 135.755 185.871 135.264C185.722 134.786 184.678 134.88 184.678 134.88C184.63 134.477 184.63 134.07 184.678 133.667C184.686 133.578 184.668 133.488 184.625 133.41C184.582 133.333 184.516 133.27 184.438 133.232C183.944 133.024 183.413 132.926 182.88 132.942C182.242 132.472 184.827 128.741 185.788 127.546C186.749 126.351 186.575 125.42 185.722 125.42C185.134 125.42 182.117 129.006 181.189 130.21C180.261 131.414 177.8 134.76 177.717 132.088C177.634 129.416 176.59 127.401 175.936 127.06C175.281 126.718 174.585 127.521 174.941 128.263C175.254 129.107 175.45 129.992 175.521 130.893C175.611 131.61 175.581 132.338 175.43 133.044C175.156 134.358 174.782 135.649 174.312 136.903H174.245C174.245 136.903 156.165 154.771 154.855 156.043C153.687 157.187 130.187 154.686 125.472 154.174C123.87 153.932 122.252 153.818 120.633 153.832C118.586 153.926 118.222 154.225 116.183 154.251C111.035 154.309 105.899 154.775 100.82 155.642C98.5205 156.045 96.3723 157.091 94.61 158.666C92.8478 160.24 91.5391 162.283 90.8269 164.572C86.0789 179.854 75.3232 216.026 73.4256 236.345C71.9917 239.024 70.6972 241.779 69.5476 244.6C68.2135 248.339 68.5367 248.467 68.9842 248.553C70.194 248.783 71.5695 242.073 72.0833 243.695C72.597 245.317 69.4731 251.694 70.7409 251.882C72.3981 252.121 73.7157 245.053 73.8731 244.489C74.0305 243.926 74.8509 244.105 74.7017 244.634C74.4614 245.385 72.133 253.351 73.7571 253.607C74.652 253.743 74.7515 252.062 74.7515 252.062C74.7515 252.062 76.4087 244.438 77.1628 244.592C77.9168 244.745 77.1131 249.244 76.7319 250.747C76.3507 252.249 76.881 253.009 77.66 252.642C78.1903 252.386 79.4581 247.819 79.8061 246.333C80.1541 244.848 81.0242 240.733 82.1926 243.115C83.3609 245.496 85.1342 246.879 85.8634 246.914C86.0277 246.894 86.1826 246.824 86.3081 246.713C86.4337 246.602 86.5241 246.455 86.5677 246.291C86.6114 246.127 86.6063 245.953 86.5532 245.791C86.5 245.63 86.4012 245.489 86.2694 245.385C85.6423 244.754 85.1039 244.036 84.6702 243.251C84.2836 242.64 84.0032 241.964 83.8416 241.253C83.5076 239.837 83.3133 238.39 83.2615 236.934L83.1289 236.08C84.9851 226.612 90.3297 198.823 98.0443 181.075L101.21 187.785L102.585 192.753L94.1497 214.208L130.129 213.721L124.759 192.429L131.281 170.232C138.332 170.395 156.438 170.668 159.454 169.259C163.249 167.552 182.88 142.008 182.88 142.008C184.159 140.984 185.385 139.89 186.551 138.73C186.551 138.73 187.744 137.697 187.023 136.929Z" fill="#FFBE9D"/>
<path d="M92.5674 198.354C93.6114 194.683 98.9727 176.533 98.9727 176.533C98.9727 176.533 101.608 191.328 100.912 193.112C100.271 194.64 99.515 196.113 98.6495 197.517C92.5674 207.053 93.3629 211.826 93.3629 211.826L130.113 210.673C130.196 205.38 127.154 193.069 126.525 191.106C125.895 189.142 127.991 182.714 127.991 182.714C127.991 182.714 132.135 178.368 131.985 176.132C131.907 174.122 131.666 172.123 131.264 170.156L153.638 171.009L152.933 155.386L120.799 152.074C119.68 155.326 109.563 153.73 109.563 153.73C98.6412 154.106 97.9618 156.172 93.4209 159.808C88.88 163.445 81.3643 194.657 81.3643 194.657L92.5674 198.354Z" fill="#2D485C"/>
<path d="M114.294 194.657C113.657 194.774 113.009 194.809 112.363 194.76C111.162 194.76 109.513 194.674 107.698 194.486C105.883 194.299 104.243 194.034 103.074 193.795C102.43 193.709 101.798 193.543 101.193 193.3C101.841 193.3 102.488 193.363 103.124 193.488C104.301 193.641 105.933 193.855 107.74 194.043C109.546 194.23 111.187 194.358 112.372 194.444C113.018 194.452 113.661 194.524 114.294 194.657Z" fill="#263238"/>
<path d="M116.813 191.439C116.175 191.761 115.502 191.999 114.807 192.148C111.501 193.043 108.091 193.459 104.673 193.385C103.966 193.409 103.259 193.34 102.568 193.181C103.266 193.09 103.97 193.053 104.673 193.07C105.974 193.027 107.764 192.933 109.736 192.694C111.708 192.455 113.465 192.113 114.708 191.84C115.398 191.65 116.102 191.516 116.813 191.439Z" fill="#263238"/>
<path d="M129.176 177.079C129.16 177.73 129.073 178.377 128.919 179.009C128.704 180.195 128.373 181.817 127.95 183.593C127.527 185.369 127.121 187.008 126.757 188.118C126.61 188.753 126.393 189.369 126.11 189.953C126.157 189.304 126.273 188.663 126.458 188.041C126.773 186.709 127.13 185.172 127.527 183.491C127.925 181.809 128.306 180.272 128.621 178.94C128.733 178.299 128.92 177.674 129.176 177.079Z" fill="#263238"/>
<path d="M92.9565 196.178C91.0395 195.873 89.1476 195.419 87.297 194.82C85.4059 194.365 83.5502 193.765 81.7451 193.027C83.6612 193.337 85.5527 193.791 87.4047 194.385C89.2961 194.839 91.1519 195.438 92.9565 196.178Z" fill="#263238"/>
<path d="M131.662 169.968C131.35 170.023 131.03 170.023 130.718 169.968C129.852 169.877 129.002 169.667 128.19 169.345C126.835 168.82 125.601 168.009 124.568 166.964C123.535 165.918 122.725 164.662 122.191 163.275C121.601 161.749 121.349 160.107 121.454 158.468C121.491 157.117 121.883 155.801 122.589 154.661C123.085 153.893 123.827 153.328 124.685 153.064C124.915 152.999 125.152 152.968 125.39 152.97C125.555 152.97 125.638 152.97 125.638 152.97C125.638 152.97 125.29 152.97 124.735 153.201C123.948 153.501 123.28 154.062 122.838 154.797C121.711 156.624 121.396 159.962 122.597 163.078C123.156 164.548 124.032 165.867 125.158 166.937C126.08 167.813 127.143 168.518 128.298 169.02C129.383 169.462 130.511 169.78 131.662 169.968Z" fill="#263238"/>
<path d="M150.978 170.703C150.77 168.085 150.704 165.457 150.779 162.832C150.714 160.208 150.791 157.583 151.011 154.969C151.218 157.584 151.285 160.209 151.21 162.832C151.279 165.458 151.202 168.086 150.978 170.703Z" fill="#263238"/>
<path d="M120.583 153.03C120.675 151.127 120.865 148.975 120.865 148.975C120.865 148.975 125.439 148.454 125.713 143.588C125.986 138.722 125.713 127.496 125.713 127.496L117.426 123.125L108.229 130.578L109.645 154.909L118.081 155.464C118.726 155.482 119.351 155.236 119.82 154.78C120.29 154.324 120.564 153.695 120.583 153.03Z" fill="#FFBE9D"/>
<path d="M121.404 139.737C121.404 139.737 121.404 139.831 121.329 139.942C121.267 140.023 121.188 140.087 121.097 140.128C121.006 140.17 120.906 140.188 120.807 140.181C120.277 140.181 119.763 139.55 119.581 138.815C119.494 138.46 119.494 138.087 119.581 137.731C119.598 137.576 119.652 137.427 119.739 137.299C119.826 137.171 119.942 137.067 120.078 136.997C120.189 136.95 120.314 136.95 120.426 136.997C120.508 137.039 120.575 137.108 120.616 137.193C120.674 137.338 120.616 137.432 120.616 137.424C120.616 137.415 120.616 137.338 120.534 137.253C120.49 137.192 120.427 137.149 120.355 137.134C120.283 137.118 120.208 137.13 120.144 137.168C120.042 137.231 119.958 137.32 119.899 137.426C119.839 137.532 119.807 137.652 119.804 137.774C119.735 138.091 119.735 138.421 119.804 138.739C119.97 139.404 120.418 139.942 120.815 139.994C120.893 140.004 120.972 139.999 121.048 139.977C121.123 139.955 121.194 139.917 121.254 139.866C121.354 139.797 121.387 139.729 121.404 139.737Z" fill="#EB996E"/>
<path d="M128.555 124.866C127.917 122.629 125.605 121.519 123.501 120.905C120.294 119.966 116.83 119.556 113.698 120.742C110.566 121.929 106.804 124.012 106.804 127.572C104.956 127.418 103.895 129.083 103.166 131.149C102.7 132.408 102.42 133.732 102.337 135.076C102.105 139.738 100.837 146.175 97.9041 149.59C96.2468 151.493 93.9515 152.808 93.0069 155.182C92.1782 157.239 92.6091 159.681 91.8385 161.764C91.1507 163.599 89.6343 164.905 88.524 166.502C87.3927 168.313 86.727 170.391 86.5893 172.54C86.4516 174.689 86.8464 176.838 87.7368 178.787C88.6335 180.686 89.896 182.376 91.4474 183.756C92.9988 185.136 94.8065 186.175 96.7606 186.812C100.631 188.025 104.759 188.067 108.651 186.931C111.573 186.212 114.298 184.82 116.623 182.859C119.001 180.858 120.635 178.071 121.247 174.971C121.835 171.488 120.89 167.945 120.186 164.479C117.982 153.525 118.612 152.953 121.396 142.786C121.462 142.606 121.495 142.418 121.545 142.239C121.595 142.06 121.62 141.974 121.653 141.838C121.732 141.436 121.773 141.027 121.777 140.617C121.37 140.773 120.929 140.806 120.505 140.712C120.08 140.618 119.691 140.402 119.382 140.088C119.073 139.753 118.857 139.338 118.758 138.887C118.658 138.436 118.68 137.966 118.819 137.527C119.014 137.046 119.306 136.613 119.674 136.255C120.042 135.898 120.479 135.624 120.957 135.452C121.876 135.059 122.862 134.854 123.766 134.419C125.68 133.48 127.006 131.533 127.909 129.493C128.651 128.079 128.881 126.438 128.555 124.866Z" fill="#263238"/>
<path d="M121.735 139.968C121.91 140.235 122.055 140.521 122.166 140.822C122.414 141.36 122.746 142.12 123.11 142.999L123.177 143.161H123.003L122.174 143.238C121.602 143.238 121.122 143.349 120.558 143.34C120.509 143.329 120.464 143.305 120.426 143.271C120.388 143.236 120.36 143.193 120.343 143.144C120.318 143.066 120.318 142.983 120.343 142.905C120.362 142.79 120.387 142.676 120.417 142.564L120.566 141.957C120.641 141.553 120.758 141.158 120.914 140.779C120.899 141.191 120.841 141.601 120.74 142L120.624 142.606C120.583 142.811 120.508 143.127 120.624 143.101C121.039 143.101 121.627 143.008 122.174 142.973L123.003 142.897L122.895 143.084C122.539 142.231 122.24 141.428 122.066 140.873C121.914 140.59 121.802 140.285 121.735 139.968Z" fill="#2D485C"/>
<path d="M93.3626 211.826L130.112 210.674L146.105 274.993L143.163 348.772H123.732L126.11 276.564L111.899 231.786L114.087 351.632L94.4481 351.931L92.3848 239.282C92.2937 236.149 91.2993 229.089 91.6722 225.981L93.3626 211.826Z" fill="#263238"/>
<path d="M116.788 232.699C116.186 232.738 115.582 232.701 114.99 232.588C113.879 232.452 112.363 232.213 110.697 231.871C109.032 231.53 107.54 231.137 106.463 230.821C105.887 230.691 105.33 230.484 104.806 230.206C104.806 230.078 107.507 230.744 110.822 231.436C114.136 232.127 116.804 232.571 116.788 232.699Z" fill="#455A64"/>
<path d="M142.964 344.725C142.964 344.844 138.564 344.947 133.137 344.947C127.709 344.947 123.301 344.844 123.301 344.725C123.301 344.605 127.701 344.503 133.137 344.503C138.572 344.503 142.964 344.597 142.964 344.725Z" fill="#455A64"/>
<path d="M113.913 348.515C113.913 348.643 109.638 348.737 104.368 348.737C99.0975 348.737 94.8301 348.643 94.8301 348.515C94.8301 348.387 99.1058 348.293 104.368 348.293C109.629 348.293 113.913 348.396 113.913 348.515Z" fill="#455A64"/>
<path d="M111.377 348.208C111.261 348.208 110.747 322.024 110.225 289.728C109.703 257.432 109.396 231.231 109.504 231.231C109.612 231.231 110.142 257.406 110.656 289.719C111.169 322.033 111.501 348.208 111.377 348.208Z" fill="#455A64"/>
<path d="M140.354 344.725C140.345 344.609 140.345 344.492 140.354 344.375V343.351C140.354 342.429 140.421 341.105 140.47 339.424C140.586 336.009 140.752 331.049 140.959 324.97C141.407 312.745 142.036 295.892 142.724 277.29C142.724 277.11 142.724 276.94 142.724 276.786V276.846C138.374 258.917 134.438 242.646 131.579 230.873L128.265 216.949C127.883 215.318 127.593 214.046 127.386 213.158C127.287 212.74 127.22 212.415 127.162 212.168C127.13 212.057 127.111 211.942 127.104 211.826C127.148 211.934 127.181 212.045 127.204 212.159C127.27 212.398 127.353 212.723 127.469 213.132C127.693 213.986 128.016 215.284 128.43 216.906C129.259 220.201 130.427 224.948 131.886 230.796C134.769 242.56 138.747 258.789 143.155 276.743V276.803C143.155 276.957 143.155 277.136 143.155 277.307C142.418 295.909 141.746 312.753 141.258 324.979C141.001 331.066 140.785 335.992 140.636 339.424C140.553 341.131 140.487 342.429 140.445 343.351C140.445 343.786 140.396 344.128 140.387 344.375C140.389 344.493 140.378 344.61 140.354 344.725Z" fill="#455A64"/>
<path d="M134.015 275.284C132.62 275.756 131.182 276.085 129.723 276.265C127.933 276.581 126.409 276.803 125.721 276.837V276.667C125.944 276.735 126.06 276.778 126.06 276.812C126.06 276.846 125.92 276.812 125.688 276.812H125.19L125.688 276.658C126.334 276.462 127.859 276.137 129.648 275.804C131.084 275.484 132.547 275.309 134.015 275.284Z" fill="#455A64"/>
<path d="M133.676 277.734C132.383 277.795 131.088 277.735 129.806 277.555C128.512 277.527 127.222 277.382 125.953 277.119C128.543 276.902 131.15 277.109 133.676 277.734Z" fill="#455A64"/>
<path opacity="0.2" d="M93.2051 213.184C93.6403 213.76 94.1885 214.234 94.8139 214.577C95.4393 214.92 96.1278 215.123 96.8345 215.173C98.3146 215.354 99.8117 215.325 101.284 215.088C110.772 214.003 120.823 213.004 130.112 210.674C118.089 211.365 105.386 211.135 93.3625 211.826L93.2382 212.885" fill="black"/>
<g opacity="0.2">
<path d="M105.594 230.642L112.372 257.739L111.9 231.786L105.594 230.642Z" fill="black"/>
</g>
</svg>
