<svg width="412" height="383" viewBox="0 0 412 383" fill="none" xmlns="http://www.w3.org/2000/svg">
<path d="M370.718 356.803H343.427V357.062H370.718V356.803Z" fill="#EBEBEB"/>
<path d="M272.925 359.628H265.765V359.888H272.925V359.628Z" fill="#EBEBEB"/>
<path d="M342.603 347.163H326.79V347.423H342.603V347.163Z" fill="#EBEBEB"/>
<path d="M78.8151 348.908H43.2266V349.168H78.8151V348.908Z" fill="#EBEBEB"/>
<path d="M91.3731 348.908H86.1572V349.168H91.3731V348.908Z" fill="#EBEBEB"/>
<path d="M185.523 353.292H108.331V353.551H185.523V353.292Z" fill="#EBEBEB"/>
<path d="M196.442 293.76H37.3271C36.0793 293.76 34.8825 293.136 34.0001 292.023C33.1178 290.911 32.6221 289.402 32.6221 287.829V5.87936C32.6329 4.3153 33.1334 2.81996 34.0146 1.71884C34.8958 0.61771 36.0864 -5.99632e-05 37.3271 4.36542e-09H196.442C197.059 4.36543e-09 197.671 0.153416 198.242 0.451492C198.813 0.749568 199.332 1.18647 199.768 1.73724C200.205 2.28801 200.552 2.94187 200.788 3.66149C201.025 4.38111 201.147 5.15239 201.147 5.9313V287.829C201.147 288.608 201.025 289.379 200.788 290.099C200.552 290.819 200.205 291.472 199.768 292.023C199.332 292.574 198.813 293.011 198.242 293.309C197.671 293.607 197.059 293.76 196.442 293.76ZM37.3271 0.207752C36.1346 0.210498 34.9915 0.808922 34.1482 1.87196C33.305 2.935 32.8302 4.376 32.8281 5.87936V287.829C32.8302 289.332 33.305 290.773 34.1482 291.836C34.9915 292.9 36.1346 293.498 37.3271 293.501H196.442C197.634 293.498 198.777 292.9 199.62 291.836C200.464 290.773 200.938 289.332 200.941 287.829V5.87936C200.938 4.376 200.464 2.935 199.62 1.87196C198.777 0.808922 197.634 0.210498 196.442 0.207752H37.3271Z" fill="#EBEBEB"/>
<path d="M374.673 293.76H215.559C214.311 293.76 213.114 293.136 212.232 292.023C211.349 290.911 210.854 289.402 210.854 287.829V5.87936C210.864 4.3153 211.365 2.81996 212.246 1.71884C213.127 0.61771 214.318 -5.99632e-05 215.559 4.36542e-09H374.673C375.921 4.36544e-09 377.118 0.624903 378 1.73724C378.882 2.84957 379.378 4.35822 379.378 5.9313V287.829C379.378 289.402 378.882 290.911 378 292.023C377.118 293.136 375.921 293.76 374.673 293.76ZM215.559 0.207752C214.366 0.210498 213.223 0.808922 212.38 1.87196C211.536 2.935 211.062 4.376 211.06 5.87936V287.829C211.062 289.332 211.536 290.773 212.38 291.836C213.223 292.9 214.366 293.498 215.559 293.501H374.673C375.866 293.498 377.009 292.9 377.852 291.836C378.695 290.773 379.17 289.332 379.172 287.829V5.87936C379.17 4.376 378.695 2.935 377.852 1.87196C377.009 0.808922 375.866 0.210498 374.673 0.207752H215.559Z" fill="#EBEBEB"/>
<path d="M412 340.089H0V340.349H412V340.089Z" fill="#EBEBEB"/>
<path d="M333.233 37.7383H311.076C304.05 37.7383 298.354 44.9189 298.354 53.7767V81.7089C298.354 90.5666 304.05 97.7473 311.076 97.7473H333.233C340.26 97.7473 345.956 90.5666 345.956 81.7089V53.7767C345.956 44.9189 340.26 37.7383 333.233 37.7383Z" fill="#F0F0F0"/>
<path d="M328.076 59.2612C328.076 64.3719 326.016 68.5061 321.962 68.5061C317.908 68.5061 315.848 64.3511 315.848 59.2612C315.848 54.1713 317.908 50.0059 321.962 50.0059C326.016 50.0059 328.076 54.1505 328.076 59.2612Z" fill="#FAFAFA"/>
<path d="M321.962 85.4692H333.275V76.993C333.275 72.3082 328.208 68.5063 321.962 68.5063C315.716 68.5063 310.648 72.3082 310.648 76.993V85.4692H321.962Z" fill="#FAFAFA"/>
<path d="M124.828 57.8589H109.353C104.448 57.8589 100.471 62.8723 100.471 69.0567V88.5645C100.471 94.7489 104.448 99.7623 109.353 99.7623H124.828C129.734 99.7623 133.711 94.7489 133.711 88.5645V69.0567C133.711 62.8723 129.734 57.8589 124.828 57.8589Z" fill="#E6E6E6"/>
<path d="M116.415 81.0749C116.914 80.2007 117.492 79.4025 118.137 78.6961C118.577 78.2055 118.985 77.6705 119.356 77.0964C119.611 76.6718 119.747 76.1534 119.744 75.6214C119.753 75.2581 119.69 74.8977 119.56 74.573C119.431 74.2483 119.239 73.9695 119.002 73.762C118.419 73.28 117.729 73.0436 117.033 73.0868C116.303 73.0651 115.58 73.2759 114.931 73.6997C114.317 74.117 113.787 74.707 113.382 75.424L110.342 73.1803C111.049 71.8337 112.035 70.7562 113.193 70.064C114.528 69.283 115.989 68.9026 117.461 68.9526C119.097 68.8553 120.717 69.3957 122.1 70.5003C122.655 70.9715 123.106 71.612 123.411 72.3621C123.717 73.1122 123.867 73.9476 123.847 74.7904C123.861 75.5744 123.743 76.3531 123.501 77.0757C123.301 77.6832 123.023 78.2448 122.677 78.7377C122.347 79.1947 121.927 79.7141 121.408 80.3062C120.911 80.8388 120.456 81.4301 120.049 82.0721C119.756 82.5697 119.605 83.1772 119.62 83.7964H115.821C115.791 82.8337 115.998 81.8828 116.415 81.0749ZM116.011 90.9119C115.785 90.648 115.606 90.326 115.486 89.9677C115.367 89.6093 115.31 89.2229 115.319 88.8344C115.312 88.458 115.37 88.0841 115.488 87.7383C115.606 87.3924 115.781 87.0825 116.003 86.8296C116.485 86.3067 117.101 86.0192 117.737 86.0192C118.374 86.0192 118.989 86.3067 119.472 86.8296C119.691 87.0834 119.866 87.3937 119.982 87.7396C120.099 88.0854 120.155 88.4587 120.147 88.8344C120.156 89.2229 120.099 89.6093 119.98 89.9677C119.86 90.326 119.682 90.648 119.455 90.9119C118.985 91.4535 118.37 91.7538 117.733 91.7538C117.096 91.7538 116.482 91.4535 116.011 90.9119Z" fill="#FAFAFA"/>
<path d="M330.951 201.301H342.924C344.749 201.301 346.499 202.215 347.789 203.841C349.079 205.468 349.804 207.674 349.804 209.974V225.068C349.804 227.365 349.08 229.569 347.792 231.193C346.503 232.818 344.755 233.731 342.932 233.731H330.951C329.129 233.731 327.381 232.818 326.092 231.193C324.803 229.569 324.079 227.365 324.079 225.068V209.974C324.079 207.677 324.803 205.473 326.092 203.849C327.381 202.224 329.129 201.311 330.951 201.311V201.301Z" fill="#EBEBEB"/>
<path d="M336.407 219.271C336.794 218.595 337.242 217.978 337.742 217.433C338.085 217.051 338.402 216.634 338.689 216.186C338.886 215.861 338.99 215.462 338.986 215.054C338.995 214.773 338.946 214.493 338.845 214.243C338.744 213.992 338.594 213.778 338.409 213.62C337.959 213.242 337.425 213.056 336.885 213.091C336.332 213.07 335.785 213.225 335.293 213.54C334.8 213.856 334.379 214.323 334.067 214.898L331.71 213.163C332.254 212.112 333.019 211.271 333.918 210.733C334.95 210.13 336.078 209.835 337.214 209.87C338.482 209.793 339.737 210.214 340.807 211.075C341.238 211.441 341.588 211.939 341.824 212.522C342.061 213.106 342.176 213.755 342.158 214.41C342.168 215.015 342.078 215.616 341.895 216.176C341.739 216.648 341.522 217.083 341.252 217.464C340.943 217.892 340.616 218.297 340.271 218.679C339.889 219.094 339.537 219.549 339.217 220.04C338.995 220.43 338.88 220.9 338.887 221.38H335.954C335.928 220.635 336.086 219.898 336.407 219.271ZM336.094 226.885C335.922 226.684 335.786 226.44 335.695 226.167C335.604 225.895 335.56 225.602 335.566 225.306C335.561 225.015 335.605 224.726 335.694 224.458C335.784 224.189 335.917 223.948 336.085 223.748C336.46 223.345 336.936 223.124 337.429 223.124C337.921 223.124 338.397 223.345 338.772 223.748C338.941 223.947 339.076 224.188 339.167 224.456C339.258 224.725 339.303 225.014 339.299 225.306C339.304 225.602 339.259 225.896 339.167 226.169C339.074 226.441 338.937 226.685 338.763 226.885C338.587 227.102 338.378 227.272 338.149 227.384C337.92 227.496 337.675 227.549 337.429 227.54C337.183 227.547 336.938 227.493 336.709 227.381C336.48 227.268 336.271 227.1 336.094 226.885Z" fill="#FAFAFA"/>
<path d="M96.4981 120.704H81.0233C76.1176 120.704 72.1406 125.717 72.1406 131.901V151.409C72.1406 157.594 76.1176 162.607 81.0233 162.607H96.4981C101.404 162.607 105.381 157.594 105.381 151.409V131.901C105.381 125.717 101.404 120.704 96.4981 120.704Z" fill="#EBEBEB"/>
<path d="M88.761 129.845C87.7734 129.845 86.7955 130.09 85.8833 130.567C84.971 131.044 84.1422 131.742 83.4442 132.623C82.7463 133.504 82.1929 134.549 81.8158 135.7C81.4386 136.851 81.245 138.084 81.2461 139.329C81.2461 144.522 84.608 157.112 88.761 157.112C92.9139 157.112 96.2759 144.554 96.2759 139.329C96.2769 138.084 96.0834 136.851 95.7062 135.7C95.329 134.549 94.7757 133.504 94.0777 132.623C93.3798 131.742 92.551 131.044 91.6387 130.567C90.7264 130.09 89.7485 129.845 88.761 129.845ZM88.761 142.185C88.3128 142.185 87.8747 142.018 87.5021 141.704C87.1294 141.39 86.839 140.944 86.6675 140.422C86.496 139.9 86.4511 139.325 86.5385 138.771C86.626 138.217 86.8418 137.708 87.1587 137.309C87.4756 136.909 87.8793 136.637 88.3189 136.527C88.7585 136.417 89.2141 136.473 89.6281 136.689C90.0422 136.906 90.3961 137.272 90.6451 137.742C90.8941 138.211 91.027 138.764 91.027 139.329C91.0183 140.079 90.7758 140.795 90.3517 141.322C89.9277 141.848 89.3563 142.144 88.761 142.144V142.185Z" fill="#FAFAFA"/>
<path d="M92.0823 198.86C92.3241 196.936 92.3241 194.977 92.0823 193.053L89.7669 192.669C89.5801 191.596 89.3039 190.552 88.9429 189.552L90.6403 187.527C89.9345 185.795 89.02 184.211 87.9293 182.832L85.8693 184.244C85.2325 183.517 84.5365 182.876 83.7929 182.333L84.2213 179.435C82.8528 178.547 81.3817 177.937 79.8624 177.627L78.8653 180.276C78.4451 180.224 78.0413 180.193 77.5799 180.193C77.1185 180.193 76.7065 180.193 76.2862 180.276L75.2892 177.627C73.7618 177.931 72.2822 178.537 70.9055 179.424L71.334 182.323C70.5903 182.866 69.8943 183.506 69.2575 184.234L67.1975 182.821C66.1068 184.2 65.1923 185.784 64.4865 187.516L66.184 189.542C65.823 190.541 65.5468 191.586 65.36 192.658L63.0528 193.043C62.8001 194.965 62.8001 196.927 63.0528 198.849L65.36 199.234C65.5468 200.306 65.823 201.351 66.184 202.35L64.4865 204.375C65.1907 206.109 66.1054 207.693 67.1975 209.071L69.2575 207.658C69.8943 208.385 70.5903 209.026 71.334 209.569L70.9055 212.467C72.2822 213.355 73.7618 213.961 75.2892 214.264L76.2862 211.616C76.7065 211.667 77.1102 211.699 77.5799 211.699C78.0496 211.699 78.4039 211.699 78.8653 211.616L79.8624 214.264C81.3897 213.961 82.8693 213.355 84.2461 212.467L83.8176 209.569C84.5612 209.026 85.2573 208.385 85.8941 207.658L87.9541 209.071C89.0447 207.692 89.9593 206.108 90.665 204.375L88.9923 202.329C89.3523 201.329 89.6284 200.285 89.8163 199.213L92.0823 198.86ZM77.5799 202.423C76.5639 202.425 75.5702 202.047 74.7248 201.336C73.8793 200.626 73.2201 199.615 72.8305 198.432C72.4409 197.25 72.3386 195.947 72.5364 194.691C72.7342 193.435 73.2233 192.281 73.9417 191.375C74.6601 190.469 75.5756 189.853 76.5722 189.604C77.5688 189.354 78.6016 189.483 79.54 189.974C80.4783 190.465 81.28 191.296 81.8435 192.362C82.4069 193.428 82.7068 194.681 82.7052 195.961C82.703 197.674 82.1623 199.316 81.2016 200.527C80.2409 201.738 78.9385 202.42 77.5799 202.423Z" fill="#EBEBEB"/>
<path d="M99.5148 219.759C99.574 219.278 99.6043 218.792 99.6055 218.305C99.6049 217.818 99.5746 217.332 99.5148 216.851L98.353 216.664C98.2649 216.132 98.1323 215.613 97.9575 215.116L98.7815 214.077C98.4289 213.207 97.9701 212.411 97.4219 211.719L96.3919 212.426C96.0719 212.065 95.7241 211.744 95.3536 211.47L95.5679 210.026C94.88 209.58 94.1401 209.275 93.376 209.123L92.8816 210.452C92.6674 210.452 92.4532 210.452 92.2389 210.452C92.0247 210.452 91.8022 210.452 91.588 210.452L91.0936 209.123C90.3295 209.275 89.5896 209.58 88.9017 210.026L89.116 211.47C88.7455 211.744 88.3977 212.065 88.0777 212.426L87.0477 211.719C86.4995 212.411 86.0407 213.207 85.6881 214.077L86.5121 215.116C86.3373 215.613 86.2047 216.132 86.1166 216.664L84.963 216.851C84.899 217.331 84.8687 217.818 84.8724 218.305C84.8695 218.792 84.8998 219.279 84.963 219.759L86.1166 219.946C86.2047 220.475 86.3373 220.99 86.5121 221.484L85.6881 222.523C86.0415 223.39 86.5002 224.182 87.0477 224.87L88.0777 224.164C88.3935 224.532 88.7419 224.852 89.116 225.119L88.9017 226.563C89.5896 227.009 90.3295 227.314 91.0936 227.467L91.588 226.137C92.0181 226.193 92.4515 226.193 92.8816 226.137L93.376 227.467C94.1401 227.314 94.88 227.009 95.5679 226.563L95.3536 225.119C95.7277 224.852 96.0761 224.532 96.3919 224.164L97.4219 224.87C97.9694 224.182 98.4281 223.39 98.7815 222.523L97.9575 221.484C98.1323 220.99 98.2649 220.475 98.353 219.946L99.5148 219.759ZM92.2636 221.536C91.7568 221.536 91.2613 221.346 90.8399 220.991C90.4185 220.636 90.09 220.132 89.8961 219.541C89.7021 218.951 89.6514 218.302 89.7502 217.675C89.8491 217.048 90.0932 216.473 90.4516 216.021C90.81 215.569 91.2666 215.261 91.7637 215.137C92.2608 215.012 92.7761 215.076 93.2443 215.321C93.7126 215.565 94.1128 215.979 94.3944 216.51C94.676 217.042 94.8263 217.666 94.8263 218.305C94.8242 219.156 94.5569 219.971 94.0821 220.576C93.6073 221.18 92.9631 221.525 92.2884 221.536H92.2636Z" fill="#E0E0E0"/>
<path d="M354.106 198.797C354.416 198.509 354.711 198.193 354.987 197.852C355.26 197.507 355.51 197.135 355.737 196.741L355.028 195.577C355.263 195.125 355.456 194.64 355.605 194.133H356.775C357.015 193.208 357.138 192.24 357.138 191.266L356.009 190.851C355.992 190.31 355.926 189.773 355.811 189.251L356.775 188.42C356.542 187.491 356.188 186.617 355.729 185.834L354.633 186.322C354.499 186.112 354.356 185.91 354.204 185.719C354.048 185.522 353.891 185.346 353.726 185.169L354.114 183.787C353.487 183.218 352.795 182.773 352.062 182.468L351.403 183.684C350.984 183.549 350.557 183.466 350.126 183.434L349.796 182.022C349.023 182.019 348.255 182.173 347.522 182.479V183.943C347.121 184.139 346.737 184.386 346.376 184.681L345.445 183.787C344.814 184.369 344.258 185.069 343.797 185.865L344.506 187.028C344.274 187.488 344.078 187.975 343.921 188.483H342.759C342.521 189.409 342.398 190.376 342.396 191.35L343.517 191.765C343.542 192.305 343.608 192.841 343.715 193.365L342.751 194.206C342.993 195.131 343.346 196.003 343.797 196.793L344.893 196.294C345.033 196.502 345.173 196.71 345.33 196.907C345.486 197.104 345.643 197.281 345.808 197.447L345.421 198.829C346.042 199.408 346.735 199.854 347.472 200.148L348.132 198.932C348.545 199.077 348.971 199.161 349.4 199.182L349.73 200.605C350.505 200.604 351.275 200.45 352.013 200.148V198.673C352.413 198.481 352.797 198.237 353.158 197.946L354.106 198.797ZM347.983 193.604C347.625 193.152 347.381 192.576 347.282 191.95C347.184 191.323 347.235 190.674 347.429 190.083C347.623 189.493 347.951 188.989 348.372 188.634C348.794 188.279 349.289 188.09 349.796 188.09C350.303 188.09 350.798 188.279 351.22 188.634C351.641 188.989 351.969 189.493 352.163 190.083C352.357 190.674 352.408 191.323 352.31 191.95C352.211 192.576 351.967 193.152 351.609 193.604C351.371 193.905 351.088 194.143 350.777 194.305C350.465 194.468 350.131 194.551 349.794 194.55C349.457 194.549 349.124 194.464 348.813 194.3C348.502 194.136 348.22 193.895 347.983 193.593V193.604Z" fill="#F0F0F0"/>
<path d="M206 383C294.236 383 365.765 377.735 365.765 371.241C365.765 364.747 294.236 359.482 206 359.482C117.764 359.482 46.2344 364.747 46.2344 371.241C46.2344 377.735 117.764 383 206 383Z" fill="#F5F5F5"/>
<path d="M235.302 61.0381V44.8543L241.614 43.7324V59.9163L235.302 61.0381Z" fill="#263238"/>
<path d="M214.315 70.0547L209.585 60.5605L213.614 56.9248L218.336 66.4087L214.315 70.0547Z" fill="#263238"/>
<path d="M258.571 59.2725L263.301 48.1162L267.322 50.3288L262.601 61.4954L258.571 59.2725Z" fill="#263238"/>
<g opacity="0.5">
<path d="M235.302 61.0381V44.8543L241.614 43.7324V59.9163L235.302 61.0381Z" fill="white"/>
<path d="M214.315 70.0547L209.585 60.5605L213.614 56.9248L218.336 66.4087L214.315 70.0547Z" fill="white"/>
<path d="M258.572 59.2725L263.302 48.1162L267.323 50.3288L262.602 61.4954L258.572 59.2725Z" fill="white"/>
</g>
<path d="M242.512 46.3397L234.404 47.7836C234.11 47.8521 233.807 47.8366 233.518 47.7381C233.229 47.6396 232.961 47.4607 232.734 47.2146C232.507 46.9684 232.327 46.6613 232.207 46.3157C232.087 45.9702 232.029 45.595 232.039 45.2178C232.058 44.3931 232.304 43.6024 232.736 42.9822C233.168 42.3621 233.758 41.9514 234.404 41.8211L242.512 40.3876C242.806 40.3193 243.108 40.3346 243.396 40.4325C243.685 40.5304 243.952 40.7084 244.179 40.9534C244.405 41.1984 244.586 41.5042 244.707 41.8485C244.828 42.1927 244.886 42.5667 244.877 42.943C244.857 43.7671 244.61 44.5568 244.178 45.1765C243.747 45.7963 243.158 46.2075 242.512 46.3397Z" fill="#263238"/>
<path d="M214.925 56.6651L208.918 62.1082C208.793 62.2398 208.648 62.3377 208.492 62.3956C208.335 62.4536 208.172 62.4704 208.01 62.4451C207.848 62.4197 207.693 62.3528 207.553 62.2484C207.413 62.1439 207.291 62.0043 207.195 61.8381C207.037 61.4571 206.996 61.0155 207.082 60.599C207.167 60.1825 207.372 59.8207 207.657 59.584L213.672 54.1513C213.796 54.0184 213.94 53.9195 214.096 53.8607C214.251 53.802 214.415 53.7848 214.576 53.8102C214.738 53.8356 214.893 53.9031 215.032 54.0083C215.172 54.1135 215.292 54.2542 215.386 54.4214C215.544 54.8008 215.584 55.2408 215.499 55.6556C215.414 56.0703 215.209 56.4302 214.925 56.6651Z" fill="#263238"/>
<path d="M267.999 51.6374L261.983 48.3342C261.84 48.2423 261.713 48.1139 261.611 47.9571C261.509 47.8003 261.434 47.6185 261.391 47.4232C261.347 47.2279 261.337 47.0234 261.359 46.8226C261.382 46.6217 261.437 46.429 261.522 46.2567C261.672 45.8679 261.931 45.5628 262.249 45.3998C262.567 45.2369 262.921 45.2276 263.244 45.3737L269.251 48.6874C269.396 48.7767 269.525 48.9039 269.628 49.0604C269.732 49.217 269.808 49.3993 269.852 49.5956C269.895 49.7918 269.905 49.9975 269.881 50.199C269.857 50.4005 269.8 50.5934 269.713 50.7649C269.562 51.151 269.304 51.4536 268.988 51.6146C268.672 51.7756 268.319 51.7837 267.999 51.6374Z" fill="#263238"/>
<path opacity="0.7" d="M242.512 46.3397L234.404 47.7836C234.11 47.8521 233.807 47.8366 233.518 47.7381C233.229 47.6396 232.961 47.4607 232.734 47.2146C232.507 46.9684 232.327 46.6613 232.207 46.3157C232.087 45.9702 232.029 45.595 232.039 45.2178C232.058 44.3931 232.304 43.6024 232.736 42.9822C233.168 42.3621 233.758 41.9514 234.404 41.8211L242.512 40.3876C242.806 40.3193 243.108 40.3346 243.396 40.4325C243.685 40.5304 243.952 40.7084 244.179 40.9534C244.405 41.1984 244.586 41.5042 244.707 41.8485C244.828 42.1927 244.886 42.5667 244.877 42.943C244.857 43.7671 244.61 44.5568 244.178 45.1765C243.747 45.7963 243.158 46.2075 242.512 46.3397Z" fill="white"/>
<path opacity="0.7" d="M214.925 56.6651L208.918 62.1082C208.793 62.2398 208.648 62.3377 208.492 62.3956C208.335 62.4536 208.172 62.4704 208.01 62.4451C207.848 62.4197 207.693 62.3528 207.553 62.2484C207.413 62.1439 207.291 62.0043 207.195 61.8381C207.037 61.4571 206.996 61.0155 207.082 60.599C207.167 60.1825 207.372 59.8207 207.657 59.584L213.672 54.1513C213.796 54.0184 213.94 53.9195 214.096 53.8607C214.251 53.802 214.415 53.7848 214.576 53.8102C214.738 53.8356 214.893 53.9031 215.032 54.0083C215.172 54.1135 215.292 54.2542 215.386 54.4214C215.544 54.8008 215.584 55.2408 215.499 55.6556C215.414 56.0703 215.209 56.4302 214.925 56.6651Z" fill="white"/>
<path opacity="0.7" d="M267.999 51.6374L261.983 48.3342C261.84 48.2423 261.713 48.1139 261.611 47.9571C261.509 47.8003 261.434 47.6185 261.391 47.4232C261.347 47.2279 261.337 47.0234 261.359 46.8226C261.382 46.6217 261.437 46.429 261.522 46.2567C261.672 45.8679 261.931 45.5628 262.249 45.3998C262.567 45.2369 262.921 45.2276 263.244 45.3737L269.251 48.6874C269.396 48.7767 269.525 48.9039 269.628 49.0604C269.732 49.217 269.808 49.3993 269.852 49.5956C269.895 49.7918 269.905 49.9975 269.881 50.199C269.857 50.4005 269.8 50.5934 269.713 50.7649C269.562 51.151 269.304 51.4536 268.988 51.6146C268.672 51.7756 268.319 51.7837 267.999 51.6374Z" fill="white"/>
<path d="M238.458 162.358C216.515 166.243 198.725 146.974 198.725 119.312C198.725 91.6502 216.515 66.0656 238.458 62.1807C260.401 58.2957 278.191 77.5647 278.191 105.227L283.613 104.271C283.613 72.8279 263.392 50.9309 238.458 55.3456C213.524 59.7604 193.303 88.8352 193.303 120.268C193.303 151.701 213.515 173.608 238.458 169.193V162.358Z" fill="#2D485C"/>
<path d="M222.67 147.75L219.705 154.75L220.868 155.533L223.833 148.533L222.67 147.75Z" fill="#263238"/>
<path d="M256.032 68.9969L253.066 75.9976L254.229 76.7804L257.195 69.7797L256.032 68.9969Z" fill="#263238"/>
<path d="M207.25 94.1658L206.723 95.689L211.858 98.5157L212.385 96.9926L207.25 94.1658Z" fill="#263238"/>
<path d="M221.363 76.3911L220.242 77.272L223.199 83.2495L224.319 82.3686L221.363 76.3911Z" fill="#263238"/>
<path d="M211.751 135.439L206.609 140.09L207.378 141.44L212.52 136.789L211.751 135.439Z" fill="#263238"/>
<path d="M269.534 83.128L264.393 87.7788L265.161 89.1292L270.303 84.4784L269.534 83.128Z" fill="#263238"/>
<path d="M209.858 115.659L201.951 117.06L202.318 120.351L210.225 118.95L209.858 115.659Z" fill="#263238"/>
<path d="M239.776 66.481H237.14V76.453H239.776V66.481Z" fill="#263238"/>
<path d="M239.776 148.086H237.14V158.058H239.776V148.086Z" fill="#263238"/>
<path d="M228.249 101.467C227.942 101.856 227.77 102.382 227.77 102.931C227.77 103.48 227.942 104.007 228.249 104.396L237.098 113.973L239.414 110.639L230.572 101.051C230.399 100.884 230.201 100.762 229.989 100.693C229.778 100.623 229.558 100.607 229.342 100.646C229.125 100.685 228.917 100.777 228.73 100.918C228.542 101.059 228.379 101.245 228.249 101.467Z" fill="#2D485C"/>
<path opacity="0.4" d="M228.249 101.467C227.942 101.856 227.77 102.382 227.77 102.931C227.77 103.48 227.942 104.007 228.249 104.396L237.098 113.973L239.414 110.639L230.572 101.051C230.399 100.884 230.201 100.762 229.989 100.693C229.778 100.623 229.558 100.607 229.342 100.646C229.125 100.685 228.917 100.777 228.73 100.918C228.542 101.059 228.379 101.245 228.249 101.467Z" fill="white"/>
<path d="M287.477 102.755L280.877 113.901L274.285 105.092L287.477 102.755Z" fill="#2D485C"/>
<path d="M253.513 90.3098C253.339 90.1429 253.141 90.0211 252.93 89.9516C252.718 89.8821 252.498 89.8662 252.282 89.9049C252.066 89.9435 251.858 90.036 251.67 90.1768C251.483 90.3177 251.319 90.5041 251.189 90.7253L239.208 107.948C238.566 107.846 237.915 107.947 237.312 108.243C236.709 108.539 236.174 109.019 235.756 109.641C234.404 111.594 234.404 114.367 235.756 115.874C237.107 117.38 239.315 116.912 240.7 115.001C241.127 114.402 241.426 113.676 241.57 112.891C241.714 112.106 241.698 111.288 241.524 110.514L253.505 93.2807C253.662 93.0879 253.788 92.8574 253.873 92.6027C253.959 92.348 254.004 92.0742 254.005 91.7974C254.005 91.5207 253.962 91.2465 253.878 90.9911C253.793 90.7356 253.669 90.504 253.513 90.3098Z" fill="#2D485C"/>
<path d="M255.678 152.967L265.978 151.139L265.064 157.133L246.499 160.426L247.241 155.658L258.414 142.642C259.465 141.444 260.41 140.107 261.232 138.653C261.744 137.739 262.03 136.655 262.056 135.537C262.078 135.084 262.004 134.632 261.842 134.227C261.68 133.822 261.435 133.478 261.133 133.231C260.312 132.683 259.362 132.525 258.455 132.784C257.442 132.966 256.472 133.423 255.612 134.124C254.686 134.862 253.878 135.813 253.231 136.929L249.416 134.114C250.483 132.125 251.891 130.463 253.536 129.253C255.301 127.92 257.264 127.058 259.304 126.718C260.801 126.402 262.335 126.49 263.803 126.978C264.983 127.363 266.036 128.211 266.811 129.398C267.534 130.568 267.913 132.018 267.882 133.501C267.867 135.479 267.432 137.416 266.621 139.11C265.412 141.476 263.938 143.61 262.246 145.447L255.678 152.967Z" fill="#263238"/>
<path d="M290.526 146.133L286.505 146.85L285.483 153.518L279.954 154.495L280.984 147.816L267.8 150.163L268.533 145.219L282.961 123.052L289.166 121.961L275.71 142.933L282.162 141.791L283.069 135.839L288.359 134.904L287.444 140.846L291.473 140.139L290.526 146.133Z" fill="#263238"/>
<path d="M306.708 112.581L311.825 111.667L293.821 156.458L288.745 157.351L306.708 112.581Z" fill="#263238"/>
<path d="M330.069 114.71L329.336 119.478L316.234 148.065L309.931 149.187L322.505 121.878L314.553 123.291L313.729 128.484L308.687 129.378L310.4 118.211L330.069 114.71Z" fill="#263238"/>
<path d="M249.318 191.132C248.536 191.022 247.78 190.719 247.093 190.238L248.296 187.122C248.906 187.571 249.576 187.874 250.273 188.015C251.018 188.166 251.778 188.166 252.523 188.015C253.213 187.928 253.876 187.636 254.459 187.164C254.668 187.007 254.842 186.788 254.966 186.525C255.09 186.261 255.159 185.963 255.168 185.657C255.177 185.43 255.126 185.205 255.023 185.017C254.92 184.829 254.772 184.689 254.599 184.619C254.014 184.371 253.409 184.204 252.795 184.12C252.112 183.993 251.435 183.817 250.768 183.59C250.248 183.399 249.777 183.041 249.4 182.552C248.992 181.954 248.788 181.178 248.831 180.391C248.828 179.323 249.077 178.277 249.548 177.389C250.072 176.428 250.777 175.646 251.6 175.114C252.559 174.481 253.6 174.069 254.674 173.899C255.492 173.744 256.322 173.719 257.146 173.826C257.832 173.897 258.502 174.126 259.123 174.501L258.011 177.555C257.512 177.214 256.967 176.992 256.404 176.901C255.783 176.797 255.154 176.797 254.533 176.901C253.822 176.994 253.14 177.308 252.548 177.815C252.333 177.975 252.153 178.201 252.025 178.471C251.897 178.742 251.825 179.048 251.814 179.363C251.808 179.523 251.833 179.683 251.887 179.828C251.942 179.973 252.025 180.099 252.127 180.194C252.358 180.415 252.626 180.568 252.91 180.64C253.223 180.723 253.668 180.817 254.245 180.921C254.924 181.016 255.596 181.176 256.256 181.399C256.767 181.593 257.23 181.951 257.599 182.437C257.796 182.72 257.947 183.049 258.042 183.406C258.137 183.762 258.174 184.14 258.151 184.515C258.159 185.592 257.906 186.647 257.426 187.538C256.892 188.495 256.182 189.275 255.357 189.813C254.385 190.486 253.324 190.933 252.226 191.132C251.262 191.308 250.282 191.308 249.318 191.132Z" fill="#263238"/>
<path d="M264.454 175.55L263.902 179.154L269.843 178.116L269.39 181.107L263.433 182.146L262.847 185.989L269.827 184.753L269.332 187.87L259.444 189.625L261.999 173.005L271.673 171.291L271.178 174.407L264.454 175.55Z" fill="#263238"/>
<path d="M283.496 178.095C282.824 179.313 281.893 180.267 280.81 180.847L283.035 185.428L279.912 185.989L277.901 181.834L275.38 182.281L274.663 186.924L271.688 187.454L274.243 170.834L279.459 169.909C280.71 169.559 282.019 169.796 283.142 170.574C283.584 170.951 283.939 171.468 284.171 172.074C284.402 172.68 284.502 173.352 284.46 174.023C284.482 175.473 284.145 176.896 283.496 178.095ZM280.654 177.513C280.925 177.177 281.139 176.774 281.281 176.329C281.423 175.883 281.49 175.406 281.478 174.926C281.502 174.612 281.457 174.296 281.348 174.012C281.239 173.728 281.07 173.487 280.86 173.316C280.31 172.978 279.686 172.883 279.088 173.046L276.748 173.462L275.85 179.227L278.371 178.78C279.219 178.674 280.019 178.23 280.654 177.513Z" fill="#263238"/>
<path d="M299.976 166.305L291.885 183.86L288.976 184.369L285.993 168.788L289.05 168.248L291.11 179.373L296.878 166.845L299.976 166.305Z" fill="#263238"/>
<path d="M301.031 166.118L304.014 165.588L301.459 182.208L298.477 182.738L301.031 166.118Z" fill="#263238"/>
<path d="M307.845 180.442C306.947 180.078 306.17 179.347 305.637 178.365C305.107 177.311 304.84 176.081 304.871 174.833C304.864 173.052 305.206 171.297 305.868 169.723C306.535 168.132 307.499 166.77 308.677 165.754C309.906 164.686 311.318 163.999 312.797 163.75C313.808 163.539 314.843 163.609 315.83 163.957C316.639 164.229 317.346 164.855 317.824 165.723L315.681 168.31C315.324 167.737 314.844 167.305 314.297 167.068C313.751 166.83 313.161 166.796 312.6 166.97C311.704 167.121 310.853 167.557 310.128 168.237C309.427 168.914 308.862 169.789 308.48 170.792C308.084 171.814 307.881 172.938 307.886 174.075C307.856 174.601 307.925 175.129 308.088 175.615C308.252 176.101 308.504 176.531 308.826 176.869C309.209 177.197 309.642 177.422 310.097 177.529C310.552 177.636 311.02 177.624 311.471 177.492C312.813 177.259 314.031 176.376 314.866 175.031L316.621 176.973C315.966 178.024 315.15 178.898 314.221 179.542C313.292 180.186 312.27 180.588 311.215 180.723C310.09 180.97 308.935 180.874 307.845 180.442Z" fill="#263238"/>
<path d="M322.892 165.245L322.34 168.84L328.281 167.801L327.828 170.782L321.87 171.821L321.285 175.654L328.264 174.418L327.77 177.534L317.882 179.289L320.444 162.669L330.094 161.007L329.599 164.124L322.892 165.245Z" fill="#263238"/>
<path d="M161.891 92.938C153.082 92.938 145.946 99.4925 145.946 107.574C145.946 113.443 149.728 118.502 155.175 120.829C154.591 124.199 153.587 127.432 152.2 130.406C154.177 130.035 156.061 129.103 157.71 127.679C159.358 126.256 160.729 124.379 161.718 122.189H161.891C170.699 122.189 177.835 115.645 177.835 107.564C177.835 99.4822 170.699 92.938 161.891 92.938Z" fill="#2D485C"/>
<path opacity="0.7" d="M161.891 92.938C153.082 92.938 145.946 99.4925 145.946 107.574C145.946 113.443 149.728 118.502 155.175 120.829C154.591 124.199 153.587 127.432 152.2 130.406C154.177 130.035 156.061 129.103 157.71 127.679C159.358 126.256 160.729 124.379 161.718 122.189H161.891C170.699 122.189 177.835 115.645 177.835 107.564C177.835 99.4822 170.699 92.938 161.891 92.938Z" fill="white"/>
<path d="M154.862 110.389C155.758 110.389 156.485 109.473 156.485 108.343C156.485 107.213 155.758 106.296 154.862 106.296C153.965 106.296 153.238 107.213 153.238 108.343C153.238 109.473 153.965 110.389 154.862 110.389Z" fill="#263238"/>
<path d="M163.406 108.343C163.406 108.754 163.31 109.155 163.129 109.497C162.948 109.839 162.69 110.105 162.389 110.262C162.088 110.419 161.757 110.46 161.437 110.38C161.117 110.3 160.824 110.102 160.593 109.812C160.363 109.521 160.206 109.151 160.142 108.748C160.078 108.345 160.111 107.927 160.236 107.548C160.361 107.168 160.572 106.844 160.843 106.615C161.114 106.387 161.432 106.265 161.758 106.265C162.195 106.265 162.615 106.484 162.924 106.874C163.233 107.263 163.406 107.792 163.406 108.343Z" fill="#263238"/>
<path d="M168.705 110.389C169.602 110.389 170.329 109.473 170.329 108.343C170.329 107.213 169.602 106.296 168.705 106.296C167.809 106.296 167.082 107.213 167.082 108.343C167.082 109.473 167.809 110.389 168.705 110.389Z" fill="#263238"/>
<path d="M306.527 316.872C306.527 316.872 306.634 303.005 302.63 304.833C298.625 306.661 306.527 316.872 306.527 316.872Z" fill="#2D485C"/>
<path d="M310.829 304.033C310.829 304.033 316.135 292.939 311.34 291.35C306.544 289.761 310.829 304.033 310.829 304.033Z" fill="#2D485C"/>
<path d="M331.8 296.201C331.8 296.201 342.817 295.484 340.328 290.28C337.84 285.076 331.8 296.201 331.8 296.201Z" fill="#2D485C"/>
<path d="M314.372 299.888C314.372 299.888 325.908 296.606 323.749 304.771C321.59 312.935 314.372 299.888 314.372 299.888Z" fill="#2D485C"/>
<path d="M305.992 329.41C305.992 329.41 301.583 316.82 299.111 321.297C296.639 325.774 305.992 329.41 305.992 329.41Z" fill="#2D485C"/>
<path d="M318.566 297.271C318.566 297.271 330.317 293.386 326.658 287.922C323 282.458 318.566 297.271 318.566 297.271Z" fill="#2D485C"/>
<path d="M327.449 295.744C327.449 295.744 336.744 301.499 332.459 305.259C328.174 309.019 327.449 295.744 327.449 295.744Z" fill="#2D485C"/>
<path d="M307.689 311.294C307.689 311.294 314.125 301.53 316.111 308.625C318.097 315.719 307.689 311.294 307.689 311.294Z" fill="#2D485C"/>
<g opacity="0.4">
<path d="M305.992 329.411C305.992 329.411 301.583 316.821 299.111 321.298C296.639 325.775 305.992 329.411 305.992 329.411Z" fill="white"/>
<path d="M318.565 297.272C318.565 297.272 330.316 293.387 326.657 287.923C322.999 282.459 318.565 297.272 318.565 297.272Z" fill="white"/>
<path d="M327.449 295.745C327.449 295.745 336.744 301.499 332.459 305.26C328.174 309.02 327.449 295.745 327.449 295.745Z" fill="white"/>
<path d="M307.689 311.295C307.689 311.295 314.125 301.531 316.111 308.626C318.097 315.72 307.689 311.295 307.689 311.295Z" fill="white"/>
</g>
<path d="M305.926 323.967C305.926 323.967 310.54 311.502 314.256 317.786C317.973 324.071 305.926 323.967 305.926 323.967Z" fill="#2D485C"/>
<path d="M306.001 337.076C304.602 328.953 304.803 320.522 306.586 312.52C310.36 296.939 321.937 293.272 333.638 295.63C334.569 295.817 334.157 297.583 333.234 297.396C327.021 296.149 320.05 296.025 314.636 300.761C310.763 304.179 308.571 309.612 307.517 315.304C306.28 322.323 306.249 329.594 307.426 336.63C307.616 337.793 306.198 338.25 306.001 337.087V337.076Z" fill="#2D485C"/>
<g opacity="0.3">
<path d="M306.001 337.077C304.602 328.954 304.803 320.523 306.586 312.521C310.36 296.939 321.937 293.272 333.638 295.63C334.569 295.817 334.157 297.583 333.234 297.396C327.021 296.15 320.05 296.025 314.636 300.762C310.763 304.179 308.571 309.612 307.517 315.304C306.28 322.323 306.249 329.595 307.426 336.63C307.616 337.794 306.198 338.251 306.001 337.087V337.077Z" fill="black"/>
</g>
<path d="M296.829 312.666C296.829 312.666 291.061 295.713 287.32 300.138C283.579 304.563 296.829 312.666 296.829 312.666Z" fill="#2D485C"/>
<path d="M296.334 294.633C296.334 294.633 297.702 278.21 291.572 278.916C285.441 279.623 296.334 294.633 296.334 294.633Z" fill="#2D485C"/>
<path d="M316.927 273.567C316.927 273.567 329.163 266.638 324.137 261.673C319.11 256.708 316.927 273.567 316.927 273.567Z" fill="#2D485C"/>
<path d="M298.625 287.642C298.625 287.642 310.4 277.254 311.364 288.431C312.328 299.608 298.625 287.642 298.625 287.642Z" fill="#2D485C"/>
<path d="M301.526 328.184C301.526 328.184 291.152 315.325 290.22 322.118C289.289 328.912 301.526 328.184 301.526 328.184Z" fill="#2D485C"/>
<path d="M302.292 282.147C302.292 282.147 314.043 270.949 307.566 266.306C301.089 261.663 302.292 282.147 302.292 282.147Z" fill="#2D485C"/>
<path d="M311.776 275.405C311.776 275.405 324.787 277.306 321.483 284.235C318.179 291.163 311.776 275.405 311.776 275.405Z" fill="#2D485C"/>
<path d="M295.815 305.197C295.815 305.197 299.029 289.771 304.286 297.323C309.543 304.875 295.815 305.197 295.815 305.197Z" fill="#2D485C"/>
<g opacity="0.4">
<path d="M301.526 328.185C301.526 328.185 291.152 315.325 290.22 322.119C289.289 328.912 301.526 328.185 301.526 328.185Z" fill="white"/>
<path d="M302.292 282.147C302.292 282.147 314.043 270.949 307.566 266.306C301.089 261.663 302.292 282.147 302.292 282.147Z" fill="white"/>
<path d="M311.776 275.406C311.776 275.406 324.787 277.307 321.483 284.235C318.179 291.164 311.776 275.406 311.776 275.406Z" fill="white"/>
<path d="M295.815 305.197C295.815 305.197 299.029 289.771 304.286 297.323C309.543 304.875 295.815 305.197 295.815 305.197Z" fill="white"/>
</g>
<path d="M299.161 321.599C299.161 321.599 299.161 303.867 306.033 309.487C312.905 315.106 299.161 321.599 299.161 321.599Z" fill="#2D485C"/>
<path d="M304.755 337.513C299.927 328.61 296.202 317.776 295.082 307.305C292.824 286.281 304.442 275.426 318.772 271.853C319.909 271.572 320.181 273.93 319.06 274.242C311.455 276.132 303.404 279.841 299.284 288.566C296.309 294.851 296.095 302.673 297.29 310.172C298.88 319.476 301.897 328.298 306.173 336.141C306.242 336.26 306.292 336.395 306.32 336.538C306.348 336.681 306.353 336.829 306.336 336.975C306.318 337.121 306.278 337.261 306.217 337.387C306.157 337.513 306.077 337.623 305.983 337.71C305.889 337.797 305.782 337.86 305.669 337.896C305.555 337.931 305.437 337.937 305.322 337.915C305.206 337.893 305.095 337.842 304.995 337.766C304.895 337.69 304.808 337.59 304.739 337.471L304.755 337.513Z" fill="#2D485C"/>
<g opacity="0.3">
<path d="M304.755 337.513C299.927 328.61 296.202 317.776 295.082 307.305C292.824 286.281 304.442 275.426 318.772 271.853C319.909 271.572 320.181 273.93 319.06 274.242C311.455 276.132 303.404 279.841 299.284 288.566C296.309 294.851 296.095 302.673 297.29 310.172C298.88 319.476 301.897 328.298 306.173 336.141C306.242 336.26 306.292 336.395 306.32 336.538C306.348 336.681 306.353 336.829 306.336 336.975C306.318 337.121 306.278 337.261 306.217 337.387C306.157 337.513 306.077 337.623 305.983 337.71C305.889 337.797 305.782 337.86 305.669 337.896C305.555 337.931 305.437 337.937 305.322 337.915C305.206 337.893 305.095 337.842 304.995 337.766C304.895 337.69 304.808 337.59 304.739 337.471L304.755 337.513Z" fill="black"/>
</g>
<path d="M295.461 317.122C295.461 317.122 298.197 305.623 301.13 308.428C304.064 311.232 295.461 317.122 295.461 317.122Z" fill="#2D485C"/>
<path d="M294.505 305.113C294.505 305.113 292.387 294.217 296.672 294.466C300.957 294.715 294.505 305.113 294.505 305.113Z" fill="#2D485C"/>
<path d="M278.775 291.89C278.775 291.89 269.818 287.735 272.941 284.235C276.064 280.734 278.775 291.89 278.775 291.89Z" fill="#2D485C"/>
<path d="M292.429 300.533C292.429 300.533 283.546 294.082 283.686 301.572C283.826 309.061 292.429 300.533 292.429 300.533Z" fill="#2D485C"/>
<path d="M293.344 327.644C293.344 327.644 299.59 318.701 300.719 323.188C301.847 327.675 293.344 327.644 293.344 327.644Z" fill="#2D485C"/>
<path d="M289.495 297.012C289.495 297.012 280.58 289.99 284.716 286.624C288.853 283.259 289.495 297.012 289.495 297.012Z" fill="#2D485C"/>
<path d="M282.459 292.929C282.459 292.929 273.609 294.674 276.386 299.161C279.163 303.649 282.459 292.929 282.459 292.929Z" fill="#2D485C"/>
<path d="M295.626 312.125C295.626 312.125 292.33 301.966 289.207 307.191C286.084 312.416 295.626 312.125 295.626 312.125Z" fill="#2D485C"/>
<g opacity="0.4">
<path d="M293.344 327.644C293.344 327.644 299.59 318.701 300.719 323.188C301.847 327.675 293.344 327.644 293.344 327.644Z" fill="white"/>
<path d="M289.495 297.011C289.495 297.011 280.58 289.989 284.716 286.624C288.853 283.258 289.495 297.011 289.495 297.011Z" fill="white"/>
<path d="M282.459 292.929C282.459 292.929 273.609 294.674 276.386 299.161C279.163 303.649 282.459 292.929 282.459 292.929Z" fill="white"/>
<path d="M295.627 312.125C295.627 312.125 292.331 301.966 289.208 307.191C286.085 312.416 295.627 312.125 295.627 312.125Z" fill="white"/>
</g>
<path d="M294.489 323.167C294.489 323.167 293.229 311.357 288.87 315.356C284.511 319.355 294.489 323.167 294.489 323.167Z" fill="#2D485C"/>
<path d="M291.761 333.97C294.574 327.715 296.124 320.684 296.276 313.496C296.334 299.411 287.526 292.617 277.374 290.768C276.55 290.623 276.55 292.222 277.374 292.368C282.763 293.344 288.572 295.484 292.049 301.176C294.521 305.248 295.263 310.453 294.975 315.491C294.565 321.694 293.107 327.715 290.698 333.149C290.302 334.043 291.382 334.884 291.786 333.98L291.761 333.97Z" fill="#2D485C"/>
<g opacity="0.3">
<path d="M291.761 333.97C294.574 327.715 296.124 320.684 296.276 313.496C296.334 299.411 287.526 292.617 277.374 290.768C276.55 290.623 276.55 292.222 277.374 292.368C282.763 293.344 288.572 295.484 292.049 301.176C294.521 305.248 295.263 310.453 294.975 315.491C294.565 321.694 293.107 327.715 290.698 333.149C290.302 334.043 291.382 334.884 291.786 333.98L291.761 333.97Z" fill="black"/>
</g>
<path d="M317.405 331.051L314.216 361.373C314.016 363.258 313.28 364.988 312.145 366.241C311.01 367.495 309.553 368.186 308.044 368.187H288.21C286.701 368.186 285.244 367.495 284.109 366.241C282.974 364.988 282.238 363.258 282.038 361.373L278.85 331.051H317.405Z" fill="#2D485C"/>
<path opacity="0.3" d="M317.405 331.051L314.216 361.373C314.016 363.258 313.28 364.988 312.145 366.241C311.01 367.495 309.553 368.186 308.044 368.187H288.21C286.701 368.186 285.244 367.495 284.109 366.241C282.974 364.988 282.238 363.258 282.038 361.373L278.85 331.051H317.405Z" fill="white"/>
<path d="M138.326 272.809H132.912V317.662H138.326V272.809Z" fill="#263238"/>
<path opacity="0.5" d="M138.326 272.809H132.912V317.662H138.326V272.809Z" fill="white"/>
<path d="M152.07 351.256L139.388 348.368V316.27C139.39 316.034 139.353 315.8 139.282 315.581C139.211 315.362 139.106 315.164 138.973 314.996C138.841 314.829 138.683 314.697 138.51 314.607C138.336 314.517 138.15 314.472 137.963 314.473H133.274C133.087 314.472 132.9 314.517 132.726 314.607C132.552 314.697 132.394 314.829 132.261 314.996C132.128 315.163 132.022 315.361 131.95 315.58C131.878 315.799 131.841 316.033 131.841 316.27V348.368L119.168 351.256C118.278 351.456 117.472 352.044 116.892 352.918C116.312 353.791 115.995 354.895 115.995 356.034L135.615 353.801L155.242 356.034C155.241 354.895 154.923 353.793 154.343 352.92C153.763 352.046 152.959 351.458 152.07 351.256Z" fill="#263238"/>
<path d="M120.115 360.885C120.115 361.912 119.873 362.916 119.421 363.77C118.968 364.624 118.324 365.29 117.572 365.683C116.819 366.076 115.99 366.179 115.191 365.979C114.392 365.778 113.658 365.284 113.082 364.557C112.506 363.831 112.113 362.905 111.954 361.898C111.795 360.89 111.877 359.846 112.189 358.897C112.5 357.948 113.029 357.137 113.706 356.566C114.384 355.996 115.18 355.691 115.995 355.691C117.088 355.691 118.136 356.238 118.908 357.212C119.681 358.186 120.115 359.507 120.115 360.885Z" fill="#2D485C"/>
<path d="M159.362 360.885C159.362 361.912 159.12 362.916 158.668 363.77C158.215 364.624 157.572 365.29 156.819 365.683C156.066 366.076 155.237 366.179 154.438 365.979C153.639 365.778 152.905 365.284 152.329 364.557C151.753 363.831 151.36 362.905 151.201 361.898C151.042 360.89 151.124 359.846 151.436 358.897C151.748 357.948 152.276 357.137 152.953 356.566C153.631 355.996 154.427 355.691 155.242 355.691C155.783 355.691 156.319 355.825 156.819 356.086C157.319 356.347 157.773 356.73 158.155 357.212C158.538 357.694 158.841 358.267 159.048 358.897C159.255 359.527 159.362 360.203 159.362 360.885Z" fill="#2D485C"/>
<path d="M138.837 360.885C138.837 363.752 137.897 366.078 135.615 366.078C133.332 366.078 132.401 363.752 132.401 360.885C132.401 358.018 133.341 355.691 135.615 355.691C137.889 355.691 138.837 358.018 138.837 360.885Z" fill="#2D485C"/>
<g opacity="0.5">
<path d="M139.512 348.389V354.247L141.044 354.424V348.742L139.512 348.389Z" fill="black"/>
<path d="M130.226 348.731V354.413L131.758 354.247V348.389L130.226 348.731Z" fill="black"/>
</g>
<path d="M100.273 231.955C99.9317 231.955 99.5944 232.05 99.2852 232.233C98.976 232.416 98.7025 232.683 98.4839 233.014C98.2654 233.345 98.1073 233.732 98.0206 234.149C97.934 234.565 97.921 235.001 97.9825 235.424L103.009 269.568C103.236 271.12 103.887 272.522 104.849 273.531C105.811 274.541 107.023 275.094 108.274 275.094H187.485C187.952 275.094 188.415 274.978 188.846 274.752C189.278 274.527 189.67 274.196 190 273.779C190.329 273.362 190.591 272.868 190.769 272.323C190.947 271.779 191.038 271.196 191.037 270.607C191.037 268.918 190.505 267.298 189.557 266.104C188.61 264.91 187.325 264.239 185.986 264.239H140.789C139.591 264.24 138.428 263.735 137.484 262.805C136.54 261.875 135.871 260.573 135.582 259.108L131.536 238.52C131.168 236.647 130.313 234.983 129.108 233.793C127.903 232.603 126.417 231.956 124.886 231.955H100.273Z" fill="#263238"/>
<path d="M110.969 259.108L106.923 238.52C106.555 236.647 105.7 234.983 104.495 233.793C103.29 232.603 101.804 231.956 100.273 231.955C99.9317 231.955 99.5944 232.05 99.2852 232.233C98.976 232.416 98.7025 232.683 98.4839 233.014C98.2654 233.345 98.1073 233.732 98.0206 234.149C97.934 234.565 97.921 235.001 97.9825 235.424L103.009 269.568C103.236 271.12 103.887 272.522 104.849 273.531C105.811 274.541 107.023 275.094 108.274 275.094H162.864C163.332 275.096 163.795 274.98 164.228 274.755C164.66 274.53 165.053 274.2 165.384 273.783C165.715 273.366 165.977 272.871 166.155 272.326C166.334 271.781 166.425 271.196 166.424 270.607C166.422 268.919 165.889 267.301 164.942 266.107C163.995 264.914 162.712 264.242 161.373 264.239H116.185C114.985 264.244 113.819 263.741 112.873 262.81C111.927 261.88 111.257 260.576 110.969 259.108Z" fill="#263238"/>
<path opacity="0.2" d="M110.969 259.108L106.923 238.52C106.555 236.647 105.7 234.983 104.495 233.793C103.29 232.603 101.804 231.956 100.273 231.955C99.9317 231.955 99.5944 232.05 99.2852 232.233C98.976 232.416 98.7025 232.683 98.4839 233.014C98.2654 233.345 98.1073 233.732 98.0206 234.149C97.934 234.565 97.921 235.001 97.9825 235.424L103.009 269.568C103.236 271.12 103.887 272.522 104.849 273.531C105.811 274.541 107.023 275.094 108.274 275.094H162.864C163.332 275.096 163.795 274.98 164.228 274.755C164.66 274.53 165.053 274.2 165.384 273.783C165.715 273.366 165.977 272.871 166.155 272.326C166.334 271.781 166.425 271.196 166.424 270.607C166.422 268.919 165.889 267.301 164.942 266.107C163.995 264.914 162.712 264.242 161.373 264.239H116.185C114.985 264.244 113.819 263.741 112.873 262.81C111.927 261.88 111.257 260.576 110.969 259.108Z" fill="white"/>
<path d="M144.432 134.259C144.432 134.259 153.446 137.646 149.236 146.049L145.322 138.861L144.432 134.259Z" fill="#263238"/>
<path d="M176.905 177.575L180.836 170.304L184.725 171.862L185.434 173.836L180.589 182.572L176.905 177.575Z" fill="#DBB178"/>
<path d="M182.731 179.476C178.792 187.267 172.579 198.631 170.206 197.956C163.235 195.993 153.652 187.672 148.733 178.531C147.99 177.152 147.685 175.472 147.879 173.823C148.073 172.174 148.751 170.677 149.779 169.629V169.567C150.315 169.015 150.933 168.601 151.596 168.351C152.259 168.1 152.955 168.016 153.644 168.105C154.333 168.194 155.001 168.453 155.611 168.868C156.22 169.283 156.758 169.845 157.195 170.522C157.286 170.657 157.368 170.803 157.45 170.948C161.809 178.832 167.338 186.311 168.245 186.945C169.308 187.714 172.068 184.421 177.91 175.114L182.731 179.476Z" fill="#2D485C"/>
<path opacity="0.6" d="M182.731 179.476C178.792 187.267 172.579 198.631 170.206 197.956C163.235 195.993 153.652 187.672 148.733 178.531C147.99 177.152 147.685 175.472 147.879 173.823C148.073 172.174 148.751 170.677 149.779 169.629V169.567C150.315 169.015 150.933 168.601 151.596 168.351C152.259 168.1 152.955 168.016 153.644 168.105C154.333 168.194 155.001 168.453 155.611 168.868C156.22 169.283 156.758 169.845 157.195 170.522C157.286 170.657 157.368 170.803 157.45 170.948C161.809 178.832 167.338 186.311 168.245 186.945C169.308 187.714 172.068 184.421 177.91 175.114L182.731 179.476Z" fill="white"/>
<path d="M182.822 173.192L190.609 175.114L186.983 166.887C186.983 166.887 182.27 166.887 180.836 170.304L182.822 173.192Z" fill="#DBB178"/>
<path opacity="0.2" d="M160.269 192.274C154.624 187.412 153.874 176.007 153.874 176.007L150.677 174.168L149.145 179.299C152.207 184.428 155.975 188.822 160.269 192.274Z" fill="black"/>
<path d="M196.113 171.592L192.784 164.902L186.991 166.886L190.609 175.113L196.113 171.592Z" fill="#DBB178"/>
<path d="M152.869 217.246L125.248 219.531C125.248 219.531 125.051 210.182 124.087 201.571C123.787 198.574 123.314 195.609 122.669 192.7C121.952 189.729 121.021 186.394 119.95 182.52C119.81 182.042 119.67 181.564 119.513 181.066C119.151 179.861 118.78 178.604 118.36 177.295V177.233C117.987 175.954 118.027 174.541 118.473 173.299C118.918 172.058 119.733 171.086 120.741 170.595C120.931 170.502 121.127 170.429 121.326 170.377C123.081 169.909 124.853 169.484 126.649 169.13L128.198 168.839C132.334 168.063 136.502 167.591 140.682 167.427C142.849 167.427 145.165 167.51 147.142 167.624L148.79 167.728C150.883 167.884 152.333 168.05 152.333 168.05C152.333 168.05 153.24 168.279 153.775 174.397C153.787 174.745 153.815 175.092 153.858 175.436C153.924 176.703 153.981 178.303 154.006 180.224C154.088 188.077 153.718 201.259 152.869 217.246Z" fill="#2D485C"/>
<path opacity="0.6" d="M152.869 217.246L125.248 219.531C125.248 219.531 125.051 210.182 124.087 201.571C123.787 198.574 123.314 195.609 122.669 192.7C121.952 189.729 121.021 186.394 119.95 182.52C119.81 182.042 119.67 181.564 119.513 181.066C119.151 179.861 118.78 178.604 118.36 177.295V177.233C117.987 175.954 118.027 174.541 118.473 173.299C118.918 172.058 119.733 171.086 120.741 170.595C120.931 170.502 121.127 170.429 121.326 170.377C123.081 169.909 124.853 169.484 126.649 169.13L128.198 168.839C132.334 168.063 136.502 167.591 140.682 167.427C142.849 167.427 145.165 167.51 147.142 167.624L148.79 167.728C150.883 167.884 152.333 168.05 152.333 168.05C152.333 168.05 153.24 168.279 153.775 174.397C153.787 174.745 153.815 175.092 153.858 175.436C153.924 176.703 153.981 178.303 154.006 180.224C154.088 188.077 153.718 201.259 152.869 217.246Z" fill="white"/>
<path d="M129.162 168.673L136.051 180.245L140.995 174.906L147.422 178.811L143.945 167.479C142.873 167.479 141.769 167.479 140.706 167.479C136.844 167.61 132.99 168.009 129.162 168.673Z" fill="#2D485C"/>
<path opacity="0.9" d="M129.162 168.673L136.051 180.245L140.995 174.906L147.422 178.811L143.945 167.479C142.873 167.479 141.769 167.479 140.706 167.479C136.844 167.61 132.99 168.009 129.162 168.673Z" fill="white"/>
<path d="M190.13 356.885H184.255L186.933 300.979H197.925L190.13 356.885Z" fill="#DBB178"/>
<path d="M183.604 356.179C183.538 355.473 190.55 354.808 190.55 354.808C190.55 354.808 195.428 359.545 199.713 360.002C203.998 360.459 202.029 364.043 197.389 364.853L185.911 366.93C182.615 367.543 184.28 363.565 183.604 356.179Z" fill="#263238"/>
<path d="M194.07 356.481C193.175 356.414 192.292 356.201 191.441 355.847C191.407 355.837 191.376 355.815 191.35 355.785C191.334 355.713 191.334 355.638 191.35 355.567C191.35 355.473 191.738 353.281 192.636 352.637C192.77 352.534 192.921 352.468 193.077 352.445C193.234 352.422 193.392 352.441 193.542 352.502C193.979 352.668 194.094 352.98 194.103 353.198C194.103 353.645 193.765 354.143 193.279 354.6C193.747 354.434 194.244 354.434 194.712 354.6C194.814 354.649 194.908 354.723 194.987 354.817C195.066 354.912 195.13 355.025 195.174 355.151C195.243 355.315 195.272 355.5 195.259 355.684C195.246 355.869 195.19 356.044 195.1 356.19C194.8 356.453 194.43 356.558 194.07 356.481ZM192.183 355.546C193.237 355.889 194.473 356.117 194.745 355.743C194.811 355.67 194.795 355.515 194.745 355.328C194.725 355.267 194.695 355.212 194.657 355.167C194.618 355.122 194.573 355.088 194.523 355.068C193.723 354.948 192.912 355.114 192.183 355.546ZM193.139 352.949C193.016 352.949 192.896 352.992 192.792 353.073C192.323 353.589 191.992 354.275 191.845 355.037C192.751 354.382 193.658 353.562 193.658 353.209C193.658 353.146 193.559 353.063 193.402 352.99C193.316 352.961 193.228 352.947 193.139 352.949Z" fill="#2D485C"/>
<path opacity="0.2" d="M186.464 310.754L196.508 311.139L197.926 300.979H186.934L186.464 310.754Z" fill="black"/>
<path d="M161.933 357.831L156.305 356.885L165.212 294.986L176.32 298.985L161.933 357.831Z" fill="#DBB178"/>
<path d="M155.572 355.899C155.572 355.172 162.592 355.899 162.592 355.899C162.592 355.899 166.852 361.498 171.03 362.755C175.208 364.012 172.843 367.201 168.162 367.117L156.561 366.941C153.207 366.899 155.349 363.357 155.572 355.899Z" fill="#263238"/>
<path d="M166.284 358.205C165.258 358.045 164.262 357.658 163.342 357.062L163.284 357C163.281 356.988 163.279 356.976 163.279 356.963C163.279 356.951 163.281 356.939 163.284 356.927C163.272 356.895 163.266 356.859 163.266 356.823C163.266 356.787 163.272 356.752 163.284 356.719C163.284 356.636 163.927 354.559 164.932 354.07C165.075 353.988 165.229 353.946 165.386 353.946C165.542 353.946 165.697 353.988 165.839 354.07C166.251 354.33 166.325 354.642 166.309 354.86C166.309 355.307 165.864 355.732 165.344 356.086C165.828 356.011 166.319 356.108 166.762 356.366C166.857 356.43 166.94 356.518 167.005 356.626C167.07 356.733 167.117 356.857 167.141 356.989C167.194 357.158 167.204 357.344 167.17 357.521C167.136 357.697 167.06 357.856 166.951 357.976C166.758 358.151 166.521 358.232 166.284 358.205ZM164.084 356.875C165.089 357.415 166.284 357.914 166.556 357.561C166.622 357.498 166.638 357.353 166.556 357.145C166.543 357.083 166.521 357.026 166.489 356.976C166.458 356.926 166.419 356.884 166.374 356.854C165.623 356.609 164.833 356.616 164.084 356.875ZM165.237 354.486C165.147 354.49 165.057 354.515 164.974 354.559C164.455 354.973 164.049 355.579 163.812 356.293C164.817 355.826 165.765 355.151 165.781 354.818C165.781 354.756 165.699 354.652 165.559 354.569C165.471 354.514 165.376 354.479 165.279 354.465L165.237 354.486Z" fill="#2D485C"/>
<path opacity="0.2" d="M176.321 298.985L165.213 294.986L163.458 307.191L173.742 309.528L176.321 298.985Z" fill="black"/>
<path d="M184.025 305.779L198.156 306.714C201.774 285.71 205.383 262.556 204.666 257.477C203.306 247.743 192.817 237.834 152.095 229.43L133.143 265.33C133.143 265.33 160.862 263.699 186.126 263.699C186.118 263.72 184.708 283.705 184.025 305.779Z" fill="#2D485C"/>
<path opacity="0.1" d="M184.025 305.779L198.156 306.714C201.774 285.71 205.383 262.556 204.666 257.477C203.306 247.743 192.817 237.834 152.095 229.43L133.143 265.33C133.143 265.33 160.862 263.699 186.126 263.699C186.118 263.72 184.708 283.705 184.025 305.779Z" fill="black"/>
<path d="M183.077 302.984L183.497 307.648L198.98 308.313L199.738 304.023L183.077 302.984Z" fill="#2D485C"/>
<path d="M143.072 167.458H140.682C137.254 167.593 133.835 167.946 130.432 168.496C131.915 170.73 136.537 174.209 139.636 174.209C143.962 174.168 142.998 170.117 143.072 167.458Z" fill="#DBB178"/>
<path d="M162.057 302.164L176.502 305.124C182.369 284.422 188.236 262.39 188.137 257.425C187.939 247.536 186.217 242.404 157.846 234.427C157.846 234.427 156.339 231.653 152.902 217.287L125.249 219.572C125.249 219.572 112.634 248.865 122.398 261.372C124.557 264.156 128.8 265.402 133.11 265.35C133.11 265.35 143.08 265.413 167.718 263.958C167.726 263.958 164.801 281.68 162.057 302.164Z" fill="#2D485C"/>
<path d="M161.479 298.985L178.215 302.548L176.625 306.984L161.405 303.836L161.479 298.985Z" fill="#2D485C"/>
<path opacity="0.1" d="M183.077 302.984L183.497 307.648L198.98 308.313L199.738 304.023L183.077 302.984Z" fill="black"/>
<path d="M140.978 164.456C140.661 167.021 140.744 169.639 141.226 172.164L133.653 170.761C133.49 170.731 133.335 170.654 133.199 170.535C133.064 170.417 132.952 170.26 132.872 170.078C132.792 169.896 132.747 169.694 132.739 169.486C132.732 169.278 132.763 169.071 132.829 168.881C133.867 165.91 134.279 159.927 134.535 157.174C134.675 155.512 134.733 153.996 134.741 152.936C134.749 151.877 134.741 151.482 134.741 151.482L138.127 153.435L143.656 156.624C142.382 159 141.473 161.657 140.978 164.456Z" fill="#DBB178"/>
<path opacity="0.2" d="M143.673 156.623C142.386 158.997 141.464 161.654 140.954 164.456C138.191 163.074 135.909 160.496 134.519 157.184C134.667 155.522 134.725 154.006 134.733 152.946C135.936 153.102 137.056 153.258 138.128 153.445L143.673 156.623Z" fill="black"/>
<path d="M144.077 149.809C143.854 152.998 145.148 155.574 146.961 155.574C148.773 155.574 150.43 152.998 150.652 149.809C150.875 146.62 149.581 144.034 147.768 144.034C145.955 144.034 144.299 146.62 144.077 149.809Z" fill="#2D485C"/>
<path opacity="0.5" d="M143.755 149.809C143.533 152.998 144.827 155.574 146.639 155.574C148.452 155.574 150.1 152.998 150.323 149.809C150.545 146.62 149.251 144.034 147.439 144.034C145.626 144.034 143.97 146.62 143.755 149.809Z" fill="black"/>
<path d="M131.074 144.2C132.426 152.012 132.895 156.665 136.554 160.228C137.733 161.409 139.147 162.16 140.641 162.399C142.135 162.638 143.653 162.356 145.029 161.584C146.405 160.812 147.587 159.579 148.446 158.02C149.305 156.461 149.809 154.634 149.903 152.739C150.389 145.468 148.098 133.906 141.572 131.694C140.169 131.166 138.681 131.113 137.257 131.54C135.833 131.967 134.523 132.859 133.459 134.126C132.395 135.394 131.614 136.992 131.196 138.761C130.777 140.529 130.735 142.405 131.074 144.2Z" fill="#DBB178"/>
<path d="M129.64 152.354C130.644 153.881 132.035 154.924 133.579 155.304C135.532 155.72 135.977 153.445 134.98 151.232C134.09 149.248 131.988 146.641 130.242 147.223C128.495 147.805 128.379 150.433 129.64 152.354Z" fill="#DBB178"/>
<path d="M140.855 144.969C140.938 145.613 141.267 146.09 141.605 146.007C141.943 145.924 142.141 145.395 142.067 144.761C141.992 144.127 141.655 143.639 141.317 143.722C140.979 143.805 140.781 144.325 140.855 144.969Z" fill="#263238"/>
<path d="M146.672 144.107C146.746 144.751 147.084 145.228 147.414 145.145C147.744 145.062 147.958 144.533 147.884 143.888C147.809 143.244 147.463 142.777 147.134 142.85C146.804 142.922 146.549 143.463 146.672 144.107Z" fill="#263238"/>
<path d="M144.835 144.699C145.688 146.57 146.732 148.292 147.941 149.82C147.626 150.186 147.251 150.459 146.842 150.621C146.433 150.782 146.001 150.828 145.577 150.755L144.835 144.699Z" fill="#C0854B"/>
<path d="M138.787 142.901C138.738 142.915 138.688 142.915 138.639 142.901C138.604 142.878 138.573 142.845 138.548 142.806C138.523 142.766 138.504 142.721 138.493 142.673C138.483 142.624 138.48 142.573 138.485 142.524C138.49 142.474 138.503 142.425 138.523 142.382C138.745 141.852 139.067 141.399 139.461 141.064C139.855 140.729 140.308 140.521 140.781 140.46C140.82 140.456 140.86 140.462 140.897 140.478C140.935 140.493 140.969 140.519 140.998 140.552C141.028 140.585 141.051 140.625 141.068 140.67C141.084 140.715 141.093 140.764 141.094 140.814C141.098 140.863 141.093 140.914 141.081 140.961C141.068 141.009 141.049 141.053 141.022 141.091C140.996 141.129 140.964 141.159 140.929 141.181C140.893 141.203 140.854 141.216 140.814 141.219C140.442 141.271 140.087 141.44 139.779 141.708C139.471 141.976 139.221 142.336 139.051 142.756C139.02 142.806 138.979 142.845 138.933 142.87C138.887 142.896 138.837 142.906 138.787 142.901Z" fill="#263238"/>
<path d="M148.806 141.271C148.757 141.273 148.709 141.259 148.665 141.229C148.622 141.2 148.585 141.157 148.559 141.105C148.35 140.694 148.069 140.349 147.738 140.097C147.406 139.845 147.033 139.692 146.648 139.65C146.576 139.635 146.512 139.589 146.465 139.52C146.418 139.45 146.393 139.362 146.393 139.271C146.393 139.18 146.418 139.092 146.465 139.023C146.512 138.953 146.576 138.907 146.648 138.892C147.131 138.933 147.601 139.115 148.019 139.425C148.437 139.736 148.791 140.165 149.054 140.679C149.099 140.762 149.116 140.864 149.102 140.963C149.088 141.062 149.044 141.15 148.979 141.209C148.927 141.248 148.867 141.27 148.806 141.271Z" fill="#263238"/>
<path d="M132.286 154.473C132.286 154.473 136.224 149.394 134.296 136.929C134.296 136.929 137.468 140.326 144.835 137.812C144.835 137.812 140.476 138.352 138.482 135.734C138.482 135.734 142.544 138.113 149.112 135.734C149.112 135.734 147.942 127.351 140.872 126.926C140.872 126.926 143.154 124.505 145.354 124.973C145.354 124.973 143.105 122.532 137.394 127.279L135.137 128.442C135.137 128.442 128.775 125.554 125.249 132.348C122.439 137.718 123.848 154.629 132.286 154.473Z" fill="#263238"/>
<path d="M146.73 152.178C146.73 152.178 144.736 151.544 139.116 151.388C139.742 153.538 140.937 155.315 143.821 155.356C144.181 155.407 144.544 155.363 144.89 155.227C145.235 155.092 145.554 154.868 145.827 154.569C146.101 154.271 146.322 153.904 146.477 153.492C146.632 153.081 146.719 152.633 146.73 152.178Z" fill="#263238"/>
<path d="M142.553 153.642C143.661 153.591 144.753 153.98 145.676 154.754C145.137 155.189 144.502 155.396 143.863 155.346C142.76 155.404 141.671 155.015 140.757 154.235C141.291 153.804 141.92 153.597 142.553 153.642Z" fill="#A02724"/>
<path d="M146.475 152.115C146.416 152.376 146.301 152.612 146.142 152.795C145.984 152.978 145.788 153.103 145.576 153.154C143.917 153.106 142.263 152.883 140.632 152.489C140.372 152.46 140.121 152.35 139.902 152.169C139.684 151.987 139.504 151.741 139.38 151.451C141.755 151.441 144.127 151.663 146.475 152.115Z" fill="white"/>
<path d="M129.229 146.89V138.507C129.228 136.026 129.863 133.611 131.039 131.622C132.215 129.632 133.869 128.175 135.755 127.465L137.979 126.967C136.046 127.694 134.35 129.189 133.144 131.229C131.939 133.269 131.288 135.745 131.289 138.289V146.89H129.229Z" fill="#2D485C"/>
<path d="M134.395 150.952C134.618 154.141 133.324 156.717 131.511 156.717C129.698 156.717 128.042 154.141 127.828 150.952C127.614 147.763 128.899 145.177 130.712 145.177C132.525 145.177 134.173 147.763 134.395 150.952Z" fill="#2D485C"/>
<path opacity="0.5" d="M134.395 150.952C134.618 154.141 133.324 156.717 131.511 156.717C129.698 156.717 128.042 154.141 127.828 150.952C127.614 147.763 128.899 145.177 130.712 145.177C132.525 145.177 134.173 147.763 134.395 150.952Z" fill="black"/>
<path d="M133.299 150.952C133.513 154.141 132.227 156.717 130.406 156.717C128.585 156.717 126.946 154.141 126.723 150.952C126.501 147.763 127.794 145.177 129.607 145.177C131.42 145.177 133.076 147.763 133.299 150.952Z" fill="#2D485C"/>
<path opacity="0.3" d="M131.016 151.793L130.868 150.11H131.123C130.794 148.459 129.871 147.223 128.857 147.223C127.844 147.223 127.102 148.459 126.995 150.11H127.168L127.316 151.793H127.119C127.448 153.445 128.371 154.671 129.376 154.671C130.382 154.671 131.14 153.445 131.239 151.793H131.016Z" fill="white"/>
<path d="M119.176 151.658L122.777 142.725L125.685 151.388C125.685 151.388 122.768 156.063 119.761 155.388L119.176 151.658Z" fill="#DBB178"/>
<path d="M128.371 139.432L130.489 146.859L125.677 151.388L122.776 142.725L128.371 139.432Z" fill="#DBB178"/>
<path d="M120.123 161.277L123.584 153.933L123.221 150.941L120.173 149.581L115.83 158.098L120.123 161.277Z" fill="#DBB178"/>
<path d="M122.621 156.707L116.3 174.241C116.3 174.241 119.374 170.761 121.071 170.262C123.774 169.463 131.932 172.568 123.667 183.88C123.667 183.88 107.302 196.771 103.965 191.775C101.37 187.89 112.395 164.279 117.446 153.933L122.621 156.707Z" fill="#2D485C"/>
<path opacity="0.6" d="M122.621 156.707L116.3 174.241C116.3 174.241 119.374 170.761 121.071 170.262C123.774 169.463 131.932 172.568 123.667 183.88C123.667 183.88 107.302 196.771 103.965 191.775C101.37 187.89 112.395 164.279 117.446 153.933L122.621 156.707Z" fill="white"/>
<path opacity="0.2" d="M116.299 174.241L114.536 181.086L119.711 171.052C118.504 171.991 117.363 173.058 116.299 174.241Z" fill="black"/>
<path d="M139.973 158.691C139.282 158.713 138.589 158.657 137.905 158.525C136.142 157.725 134.435 156.738 132.805 155.575L133.134 154.827C134.718 155.947 136.371 156.902 138.078 157.683C139.833 157.866 141.597 157.866 143.352 157.683L143.401 158.545C143.269 158.545 141.539 158.691 139.973 158.691Z" fill="#2D485C"/>
<path d="M140.715 158.868L144.011 158.556C144.011 158.556 143.92 157.268 142.363 157.32C140.805 157.372 140.715 158.868 140.715 158.868Z" fill="#2D485C"/>
<g opacity="0.5">
<path d="M139.973 158.691C139.282 158.713 138.589 158.657 137.905 158.525C136.142 157.725 134.435 156.738 132.805 155.575L133.134 154.827C134.718 155.947 136.371 156.902 138.078 157.683C139.833 157.866 141.597 157.866 143.352 157.683L143.401 158.545C143.269 158.545 141.539 158.691 139.973 158.691Z" fill="black"/>
<path d="M140.715 158.867L144.011 158.556C144.011 158.556 143.92 157.267 142.363 157.319C140.805 157.371 140.715 158.867 140.715 158.867Z" fill="black"/>
</g>
<path d="M271.969 367.243C271.796 367.251 271.623 367.216 271.46 367.14C271.298 367.064 271.149 366.949 271.022 366.8C270.895 366.652 270.792 366.473 270.72 366.274C270.648 366.076 270.607 365.861 270.601 365.643L262.361 245.376C262.347 244.338 262.025 243.345 261.459 242.592C260.894 241.838 260.125 241.379 259.304 241.304H220.378C219.557 241.379 218.789 241.838 218.223 242.592C217.657 243.345 217.335 244.338 217.321 245.376L209.081 365.643C209.08 365.866 209.044 366.086 208.974 366.29C208.904 366.495 208.802 366.68 208.675 366.834C208.547 366.988 208.396 367.108 208.231 367.187C208.066 367.266 207.89 367.303 207.713 367.294C207.357 367.204 207.042 366.944 206.834 366.569C206.625 366.194 206.539 365.732 206.593 365.279L214.833 245.002C215.121 240.795 217.502 237.626 220.378 237.626H259.304C262.18 237.626 264.561 240.795 264.85 245.002L273.09 365.279C273.143 365.732 273.057 366.194 272.848 366.569C272.64 366.944 272.325 367.204 271.969 367.294V367.243Z" fill="#2D485C"/>
<g opacity="0.4">
<path d="M271.969 367.243C271.796 367.251 271.623 367.217 271.46 367.141C271.298 367.065 271.149 366.949 271.022 366.801C270.895 366.652 270.792 366.473 270.72 366.275C270.648 366.076 270.607 365.862 270.601 365.643L262.361 245.376C262.347 244.339 262.025 243.346 261.459 242.592C260.894 241.839 260.125 241.379 259.304 241.304H220.378C219.557 241.379 218.789 241.839 218.223 242.592C217.657 243.346 217.335 244.339 217.321 245.376L209.081 365.643C209.08 365.866 209.044 366.086 208.974 366.291C208.904 366.495 208.802 366.68 208.675 366.834C208.547 366.988 208.396 367.109 208.231 367.188C208.066 367.267 207.89 367.303 207.713 367.295C207.357 367.204 207.042 366.944 206.834 366.569C206.625 366.194 206.539 365.733 206.593 365.28L214.833 245.002C215.121 240.795 217.502 237.627 220.378 237.627H259.304C262.18 237.627 264.561 240.795 264.85 245.002L273.09 365.28C273.143 365.733 273.057 366.194 272.848 366.569C272.64 366.944 272.325 367.204 271.969 367.295V367.243Z" fill="black"/>
</g>
<path d="M271.425 232.422H165.615C164.691 232.422 163.942 233.366 163.942 234.531V241.366C163.942 242.53 164.691 243.474 165.615 243.474H271.425C272.349 243.474 273.098 242.53 273.098 241.366V234.531C273.098 233.366 272.349 232.422 271.425 232.422Z" fill="#263238"/>
<path opacity="0.2" d="M225.198 232.422H271.425C271.862 232.422 272.281 232.641 272.59 233.03C272.899 233.42 273.073 233.948 273.073 234.499V241.334C273.073 241.885 272.899 242.414 272.59 242.803C272.281 243.193 271.862 243.412 271.425 243.412H225.198V232.422Z" fill="white"/>
<path d="M229.336 367.242C229.158 367.252 228.981 367.217 228.815 367.138C228.649 367.06 228.497 366.94 228.369 366.786C228.24 366.631 228.138 366.446 228.067 366.241C227.997 366.035 227.96 365.814 227.959 365.591L219.719 245.323C219.705 244.286 219.383 243.293 218.818 242.539C218.252 241.786 217.483 241.326 216.662 241.251H177.737C176.917 241.329 176.15 241.79 175.586 242.543C175.022 243.296 174.702 244.288 174.688 245.323L166.448 365.643C166.447 365.865 166.41 366.085 166.341 366.29C166.271 366.495 166.169 366.68 166.041 366.834C165.914 366.988 165.763 367.108 165.598 367.187C165.433 367.266 165.257 367.303 165.08 367.294C164.719 367.199 164.401 366.929 164.195 366.543C163.989 366.157 163.91 365.685 163.976 365.227L172.216 244.949C172.504 240.742 174.894 237.574 177.761 237.574H216.687C219.563 237.574 221.944 240.742 222.233 244.949L230.473 365.227C230.527 365.679 230.441 366.139 230.234 366.514C230.028 366.888 229.715 367.149 229.36 367.242H229.336Z" fill="#2D485C"/>
<g opacity="0.4">
<path d="M229.336 367.242C229.158 367.252 228.981 367.217 228.815 367.138C228.649 367.06 228.497 366.94 228.369 366.786C228.24 366.631 228.138 366.446 228.067 366.241C227.997 366.035 227.96 365.814 227.959 365.591L219.719 245.323C219.705 244.286 219.383 243.293 218.818 242.539C218.252 241.786 217.483 241.326 216.662 241.251H177.737C176.917 241.329 176.15 241.79 175.586 242.543C175.022 243.296 174.702 244.288 174.688 245.323L166.448 365.643C166.447 365.865 166.41 366.085 166.341 366.29C166.271 366.495 166.169 366.68 166.041 366.834C165.914 366.988 165.763 367.108 165.598 367.187C165.433 367.266 165.257 367.303 165.08 367.294C164.719 367.199 164.401 366.929 164.195 366.543C163.989 366.157 163.91 365.685 163.976 365.227L172.216 244.949C172.504 240.742 174.894 237.574 177.761 237.574H216.687C219.563 237.574 221.944 240.742 222.233 244.949L230.473 365.227C230.527 365.679 230.441 366.139 230.234 366.514C230.028 366.888 229.715 367.149 229.36 367.242H229.336Z" fill="black"/>
</g>
<path d="M198.855 226.979H229.393V230.605C229.393 231.087 229.241 231.549 228.971 231.89C228.7 232.231 228.333 232.423 227.951 232.423H200.297C199.915 232.423 199.548 232.231 199.278 231.89C199.007 231.549 198.855 231.087 198.855 230.605V227V226.979Z" fill="#263238"/>
<path opacity="0.2" d="M198.855 226.979H229.393V230.605C229.393 231.087 229.241 231.549 228.971 231.89C228.7 232.231 228.333 232.423 227.951 232.423H200.297C199.915 232.423 199.548 232.231 199.278 231.89C199.007 231.549 198.855 231.087 198.855 230.605V227V226.979Z" fill="white"/>
<path d="M177.259 226.979H207.796V230.605C207.796 231.087 207.644 231.549 207.374 231.89C207.103 232.231 206.737 232.423 206.354 232.423H178.701C178.318 232.423 177.952 232.231 177.681 231.89C177.411 231.549 177.259 231.087 177.259 230.605V227V226.979Z" fill="#263238"/>
<path opacity="0.6" d="M177.259 226.979H207.796V230.605C207.796 231.087 207.644 231.549 207.374 231.89C207.103 232.231 206.737 232.423 206.354 232.423H178.701C178.318 232.423 177.952 232.231 177.681 231.89C177.411 231.549 177.259 231.087 177.259 230.605V227V226.979Z" fill="white"/>
<path d="M204.261 229.046H201.427V230.334H204.261V229.046Z" fill="#263238"/>
<path d="M199.72 229.046H196.886V230.334H199.72V229.046Z" fill="#263238"/>
<path d="M231.543 232.422H233.001C233.4 232.412 233.784 232.225 234.085 231.895C234.386 231.564 234.586 231.112 234.649 230.615L239.593 192.295C239.632 191.991 239.619 191.68 239.555 191.383C239.49 191.085 239.376 190.809 239.22 190.572C239.064 190.335 238.87 190.142 238.65 190.008C238.43 189.873 238.19 189.8 237.945 189.792L214.239 189.74L207.828 232.329H209.287L231.543 232.422Z" fill="#263238"/>
<path opacity="0.6" d="M231.543 232.422H233.001C233.4 232.412 233.784 232.225 234.085 231.895C234.386 231.564 234.586 231.112 234.649 230.615L239.593 192.295C239.632 191.991 239.619 191.68 239.555 191.383C239.49 191.085 239.376 190.809 239.22 190.572C239.064 190.335 238.87 190.142 238.65 190.008C238.43 189.873 238.19 189.8 237.945 189.792L214.239 189.74L207.828 232.329H209.287L231.543 232.422Z" fill="white"/>
<path opacity="0.2" d="M208.199 229.649L207.787 232.37H209.246L231.494 232.422H232.952C233.351 232.412 233.735 232.225 234.036 231.895C234.337 231.565 234.537 231.112 234.6 230.615L234.715 229.711L208.199 229.649Z" fill="black"/>
<path d="M207.82 232.402H209.295C209.694 232.391 210.078 232.204 210.379 231.874C210.68 231.544 210.88 231.091 210.943 230.594L215.887 192.254C215.926 191.95 215.913 191.639 215.849 191.343C215.784 191.046 215.67 190.77 215.514 190.534C215.358 190.298 215.163 190.106 214.943 189.973C214.723 189.84 214.483 189.767 214.239 189.761L207.82 232.402Z" fill="#263238"/>
<path opacity="0.3" d="M207.82 232.402H209.295C209.694 232.391 210.078 232.204 210.379 231.874C210.68 231.544 210.88 231.091 210.943 230.594L215.887 192.254C215.926 191.95 215.913 191.639 215.849 191.343C215.784 191.046 215.67 190.77 215.514 190.534C215.358 190.298 215.163 190.106 214.943 189.973C214.723 189.84 214.483 189.767 214.239 189.761L207.82 232.402Z" fill="white"/>
</svg>
