<svg width="40" height="40" viewBox="0 0 40 40" fill="none" xmlns="http://www.w3.org/2000/svg">
<path d="M39.0999 26C38.5999 27.6 37.9 29.1 37 30.5C29.2 29.8 21.3 31.1 14.2 34.3L15 28.7C22.7 25.8 30.8999 24.9 39.0999 26ZM40 19.9C40 21.4 39.8999 22.7 39.5999 24.1C31.2999 23 22.9 24 15.2 27.1L15.9 22.2C23.6 19.5 31.9 18.7 40 19.9ZM39.2 14.4C39.5 15.6 39.8 16.8 39.9 18C31.9 16.8 23.7 17.7 16.1 20.6L16.7 16.4C23.9 13.9 31.6 13.2 39.2 14.2V14.4ZM36.4 8.5C37.2 9.7 37.9 10.9 38.5 12.3C31.2 11.4 23.7999 12.3 16.9 14.8L17.5 10.8C23.6 8.8 30 8.1 36.4 8.5ZM31.2 3.5C32.7 4.5 34 5.7 35.2 7C29.2 6.7 23.2999 7.6 17.6 9.4L18.1 5.5C22.4 4.3 26.8 3.6 31.2 3.5C31.2 3.5 31.2 3.4 31.2 3.5ZM20 0C23.2999 0 26.6 0.8 29.5 2.4C25.7 2.7 22 3.5 18.2999 4.6L18.7999 1.1C14.4999 1.4 10.4 3.2 7.19995 6.1C3.99995 9.1 1.99995 13 1.39995 17.3C0.799951 21.6 1.69995 26 3.99995 29.7C6.29995 33.4 9.69995 36.3 13.8 37.7L14.1 35.6C21 32.7 28.5999 31.4 36.0999 32C34 34.7 31.3 36.9 28.2 38.2C25.1 39.6 21.6999 40.1 18.2999 39.8C14.9 39.5 11.7 38.3 8.79995 36.4C5.99995 34.5 3.69995 31.9 2.19995 28.8C0.699951 25.8 -4.88311e-05 22.4 0.0999512 19C0.299951 15.6 1.29995 12.3 3.09995 9.4C4.89995 6.5 7.39995 4.1 10.4 2.5C13.2 0.9 16.6 0 20 0Z" fill="#003869"/>
</svg>
