<svg width="119" height="115" viewBox="0 0 119 115" fill="none" xmlns="http://www.w3.org/2000/svg">
<ellipse cx="59.5" cy="57.5" rx="59.5" ry="57.5" fill="#D9D9D9"/>
<ellipse cx="59.5" cy="57.5" rx="56.5" ry="54.5" fill="#2D485C"/>
<ellipse cx="59.5" cy="58" rx="52.5" ry="51" fill="#D9D9D9"/>
<ellipse cx="59.5" cy="58" rx="49.5" ry="47" fill="#2D485C"/>
<path d="M25.573 55.055C25.0524 55.055 24.6014 54.989 24.22 54.857C23.846 54.7177 23.5564 54.4977 23.351 54.197C23.1457 53.889 23.0284 53.4783 22.999 52.965L22.801 48.532H24.352L24.539 52.426C24.5537 52.7267 24.6014 52.9577 24.682 53.119C24.77 53.273 24.8947 53.3793 25.056 53.438C25.2174 53.4893 25.4264 53.515 25.683 53.515C25.9617 53.515 26.1597 53.5883 26.277 53.735C26.3944 53.8743 26.453 54.0503 26.453 54.263C26.453 54.4903 26.376 54.681 26.222 54.835C26.0754 54.9817 25.859 55.055 25.573 55.055ZM23.56 54.032C23.0687 54.142 22.5957 54.1933 22.141 54.186C21.6864 54.1713 21.2794 54.0907 20.92 53.944C20.5607 53.79 20.2747 53.57 20.062 53.284C19.8567 52.998 19.754 52.635 19.754 52.195C19.754 51.8063 19.8384 51.4543 20.007 51.139C20.183 50.8163 20.425 50.534 20.733 50.292C21.0484 50.05 21.415 49.8447 21.833 49.676C22.251 49.5073 22.7057 49.379 23.197 49.291L23.351 50.853C23.0357 50.8677 22.7497 50.9117 22.493 50.985C22.2437 51.051 22.0274 51.139 21.844 51.249C21.668 51.359 21.5324 51.4837 21.437 51.623C21.3417 51.755 21.294 51.898 21.294 52.052C21.294 52.1767 21.338 52.2793 21.426 52.36C21.514 52.4407 21.6314 52.5067 21.778 52.558C21.9247 52.602 22.0934 52.6277 22.284 52.635C22.4747 52.6423 22.669 52.6313 22.867 52.602C23.0724 52.5727 23.274 52.525 23.472 52.459L23.56 54.032ZM23.593 47.399C23.3804 47.399 23.197 47.3257 23.043 47.179C22.8964 47.025 22.823 46.8453 22.823 46.64C22.823 46.4273 22.8964 46.244 23.043 46.09C23.197 45.936 23.3804 45.859 23.593 45.859C23.7984 45.859 23.9744 45.936 24.121 46.09C24.2677 46.244 24.341 46.4273 24.341 46.64C24.341 46.8453 24.2677 47.025 24.121 47.179C23.9744 47.3257 23.7984 47.399 23.593 47.399ZM21.69 47.388C21.4774 47.388 21.294 47.3147 21.14 47.168C20.9934 47.014 20.92 46.8343 20.92 46.629C20.92 46.4163 20.9934 46.233 21.14 46.079C21.294 45.925 21.4774 45.848 21.69 45.848C21.8954 45.848 22.0714 45.925 22.218 46.079C22.3647 46.233 22.438 46.4163 22.438 46.629C22.438 46.8343 22.3647 47.014 22.218 47.168C22.0714 47.3147 21.8954 47.388 21.69 47.388ZM25.5693 55.055L25.6793 53.515C25.9433 53.515 26.1707 53.4893 26.3613 53.438C26.552 53.3867 26.7133 53.284 26.8453 53.13C26.9773 52.9687 27.0873 52.734 27.1753 52.426C27.2707 52.118 27.355 51.7073 27.4283 51.194L28.8693 51.436C28.8547 51.546 28.8327 51.6743 28.8033 51.821C28.7813 51.9677 28.7593 52.118 28.7373 52.272C28.7227 52.4187 28.7153 52.558 28.7153 52.69C28.7153 52.822 28.741 52.9393 28.7923 53.042C28.8437 53.1447 28.9243 53.2327 29.0343 53.306C29.1517 53.372 29.302 53.4233 29.4853 53.46C29.676 53.4967 29.907 53.515 30.1783 53.515C30.457 53.515 30.655 53.5883 30.7723 53.735C30.8897 53.8743 30.9483 54.0503 30.9483 54.263C30.9483 54.4903 30.8713 54.681 30.7173 54.835C30.5707 54.9817 30.3543 55.055 30.0683 55.055C29.7383 55.055 29.4377 55.0293 29.1663 54.978C28.9023 54.9267 28.6713 54.8423 28.4733 54.725C28.2827 54.6003 28.125 54.439 28.0003 54.241C27.883 54.0357 27.8097 53.7863 27.7803 53.493H28.3083C28.1763 53.845 28.0077 54.1273 27.8023 54.34C27.6043 54.5453 27.3807 54.6993 27.1313 54.802C26.882 54.9047 26.6217 54.9707 26.3503 55C26.0863 55.0367 25.826 55.055 25.5693 55.055ZM28.6383 57.607C28.4257 57.607 28.2423 57.53 28.0883 57.376C27.9417 57.2293 27.8683 57.0533 27.8683 56.848C27.8683 56.6353 27.9417 56.452 28.0883 56.298C28.2423 56.144 28.4257 56.067 28.6383 56.067C28.8437 56.067 29.0197 56.144 29.1663 56.298C29.313 56.452 29.3863 56.6353 29.3863 56.848C29.3863 57.0533 29.313 57.2293 29.1663 57.376C29.0197 57.53 28.8437 57.607 28.6383 57.607ZM26.7353 57.607C26.5227 57.607 26.3393 57.53 26.1853 57.376C26.0387 57.2293 25.9653 57.0533 25.9653 56.848C25.9653 56.6353 26.0387 56.452 26.1853 56.298C26.3393 56.144 26.5227 56.067 26.7353 56.067C26.9407 56.067 27.1167 56.144 27.2633 56.298C27.41 56.452 27.4833 56.6353 27.4833 56.848C27.4833 57.0533 27.41 57.2293 27.2633 57.376C27.1167 57.53 26.9407 57.607 26.7353 57.607ZM30.0703 55.055L30.1803 53.515H31.7533C31.9073 53.515 32.043 53.5077 32.1603 53.493C32.2776 53.471 32.373 53.438 32.4463 53.394C32.527 53.35 32.5856 53.295 32.6223 53.229C32.659 53.163 32.6773 53.086 32.6773 52.998C32.6773 52.91 32.6296 52.7707 32.5343 52.58C32.4463 52.382 32.252 52.1437 31.9513 51.865C31.79 51.7183 31.614 51.5643 31.4233 51.403C31.24 51.2343 31.064 51.0767 30.8953 50.93C30.7266 50.776 30.5873 50.6403 30.4773 50.523C30.3673 50.4057 30.3123 50.3213 30.3123 50.27C30.3123 50.16 30.3196 50.039 30.3343 49.907C30.349 49.775 30.371 49.654 30.4003 49.544C30.437 49.434 30.4846 49.3533 30.5433 49.302C30.668 49.1847 30.8513 49.049 31.0933 48.895C31.3426 48.7337 31.6396 48.5613 31.9843 48.378C32.329 48.1873 32.714 47.9893 33.1393 47.784C33.572 47.5713 34.034 47.3587 34.5253 47.146L35.1523 48.488C34.749 48.664 34.3676 48.8363 34.0083 49.005C33.649 49.1663 33.3116 49.3277 32.9963 49.489C32.6883 49.643 32.4023 49.797 32.1383 49.951C31.8816 50.0977 31.6543 50.2443 31.4563 50.391L31.5993 49.577C32.2226 50.0537 32.7176 50.4827 33.0843 50.864C33.4583 51.2453 33.737 51.5863 33.9203 51.887C34.1036 52.1803 34.2246 52.4443 34.2833 52.679C34.342 52.9063 34.3713 53.108 34.3713 53.284C34.3713 53.46 34.3273 53.6507 34.2393 53.856C34.1586 54.054 34.0083 54.2447 33.7883 54.428C33.5756 54.6113 33.275 54.7617 32.8863 54.879C32.4976 54.9963 31.999 55.055 31.3903 55.055H30.0703ZM37.4634 53.515C37.7934 53.515 38.0464 53.4857 38.2224 53.427C38.3984 53.3683 38.5194 53.2913 38.5854 53.196C38.6514 53.1007 38.6844 52.998 38.6844 52.888C38.6844 52.712 38.6331 52.5067 38.5304 52.272C38.4351 52.0373 38.3141 51.7917 38.1674 51.535C38.0208 51.2783 37.8668 51.0327 37.7054 50.798C37.5514 50.5633 37.4121 50.358 37.2874 50.182L38.5964 49.313C38.9118 49.7383 39.1831 50.16 39.4104 50.578C39.6378 50.9887 39.8211 51.37 39.9604 51.722C40.1071 52.074 40.2098 52.3747 40.2684 52.624C40.3271 52.8587 40.4151 53.042 40.5324 53.174C40.6571 53.2987 40.8001 53.3867 40.9614 53.438C41.1228 53.4893 41.2841 53.515 41.4454 53.515C41.7241 53.515 41.9221 53.5883 42.0394 53.735C42.1641 53.8743 42.2264 54.0503 42.2264 54.263C42.2264 54.4903 42.1494 54.681 41.9954 54.835C41.8488 54.9817 41.6288 55.055 41.3354 55.055C41.0128 55.055 40.7304 55.011 40.4884 54.923C40.2464 54.835 40.0411 54.6957 39.8724 54.505C39.7038 54.3143 39.5608 54.0723 39.4434 53.779L40.1144 53.922C40.0558 54.1273 39.9201 54.318 39.7074 54.494C39.5021 54.6627 39.2271 54.802 38.8824 54.912C38.5451 55.0147 38.1454 55.066 37.6834 55.066C37.4634 55.066 37.2178 55.0477 36.9464 55.011C36.6824 54.9743 36.4184 54.9193 36.1544 54.846C35.8978 54.7727 35.6631 54.6773 35.4504 54.56L35.9894 53.163C36.2608 53.2803 36.5211 53.3683 36.7704 53.427C37.0271 53.4857 37.2581 53.515 37.4634 53.515ZM37.5294 48.477C37.3021 48.477 37.1078 48.4 36.9464 48.246C36.7924 48.092 36.7154 47.9013 36.7154 47.674C36.7154 47.4467 36.7924 47.2523 36.9464 47.091C37.1078 46.9297 37.3021 46.849 37.5294 46.849C37.7494 46.849 37.9364 46.9297 38.0904 47.091C38.2518 47.2523 38.3324 47.4467 38.3324 47.674C38.3324 47.9013 38.2518 48.092 38.0904 48.246C37.9364 48.4 37.7494 48.477 37.5294 48.477ZM41.3496 55.055L41.4596 53.515C41.7969 53.515 42.0389 53.482 42.1856 53.416C42.3323 53.3427 42.4203 53.2107 42.4496 53.02C42.4789 52.822 42.4863 52.536 42.4716 52.162L42.2736 46.948H43.8246L44.0446 52.272C44.0593 52.6973 44.0409 53.0823 43.9896 53.427C43.9456 53.7643 43.8319 54.054 43.6486 54.296C43.4726 54.538 43.1976 54.725 42.8236 54.857C42.4569 54.989 41.9656 55.055 41.3496 55.055ZM45.4952 55L45.2642 46.948H46.8042L47.0352 55H45.4952ZM52.6219 55.033C52.2113 55.033 51.8409 54.9633 51.5109 54.824C51.1883 54.6773 50.9316 54.461 50.7409 54.175C50.5576 53.8817 50.4659 53.5187 50.4659 53.086C50.4659 52.6533 50.6126 52.173 50.9059 51.645C51.1993 51.1097 51.6906 50.5743 52.3799 50.039L52.2699 51.051L51.2799 50.281L52.3139 49.016C52.8713 49.4413 53.3479 49.8557 53.7439 50.259C54.1473 50.655 54.4553 51.062 54.6679 51.48C54.8806 51.898 54.9869 52.3417 54.9869 52.811C54.9869 53.0383 54.9503 53.284 54.8769 53.548C54.8036 53.8047 54.6789 54.0467 54.5029 54.274C54.3269 54.494 54.0849 54.6773 53.7769 54.824C53.4763 54.9633 53.0913 55.033 52.6219 55.033ZM52.7429 53.515C52.9263 53.515 53.0729 53.4783 53.1829 53.405C53.3003 53.3317 53.3883 53.2363 53.4469 53.119C53.5056 53.0017 53.5349 52.877 53.5349 52.745C53.5349 52.613 53.5056 52.47 53.4469 52.316C53.3883 52.162 53.2746 51.9897 53.1059 51.799C52.9373 51.6083 52.6879 51.3883 52.3579 51.139L53.1939 51.029C52.8933 51.2343 52.6513 51.4433 52.4679 51.656C52.2846 51.8687 52.1526 52.074 52.0719 52.272C51.9986 52.4627 51.9619 52.6387 51.9619 52.8C51.9619 53.0347 52.0389 53.2143 52.1929 53.339C52.3469 53.4563 52.5303 53.515 52.7429 53.515ZM53.6449 48.191C53.4323 48.191 53.2489 48.1177 53.0949 47.971C52.9483 47.817 52.8749 47.6373 52.8749 47.432C52.8749 47.2193 52.9483 47.036 53.0949 46.882C53.2489 46.728 53.4323 46.651 53.6449 46.651C53.8503 46.651 54.0263 46.728 54.1729 46.882C54.3196 47.036 54.3929 47.2193 54.3929 47.432C54.3929 47.6373 54.3196 47.817 54.1729 47.971C54.0263 48.1177 53.8503 48.191 53.6449 48.191ZM51.7419 48.18C51.5293 48.18 51.3459 48.1067 51.1919 47.96C51.0453 47.806 50.9719 47.6263 50.9719 47.421C50.9719 47.2083 51.0453 47.025 51.1919 46.871C51.3459 46.717 51.5293 46.64 51.7419 46.64C51.9473 46.64 52.1233 46.717 52.2699 46.871C52.4166 47.025 52.4899 47.2083 52.4899 47.421C52.4899 47.6263 52.4166 47.806 52.2699 47.96C52.1233 48.1067 51.9473 48.18 51.7419 48.18ZM55.0823 57.53L54.5212 56.122C55.1519 55.902 55.6616 55.66 56.0503 55.396C56.4463 55.132 56.7359 54.8497 56.9193 54.549C57.1099 54.2483 57.2053 53.9367 57.2053 53.614C57.2053 53.4087 57.1759 53.196 57.1173 52.976C57.0586 52.7487 56.9743 52.5103 56.8643 52.261C56.7616 52.0117 56.6369 51.7513 56.4903 51.48L57.9313 50.787C58.1879 51.2783 58.3859 51.7477 58.5253 52.195C58.6719 52.6423 58.7453 53.0603 58.7453 53.449C58.7453 53.8083 58.6976 54.153 58.6023 54.483C58.5143 54.813 58.3749 55.121 58.1843 55.407C58.0009 55.7003 57.7626 55.9753 57.4693 56.232C57.1759 56.4887 56.8313 56.7233 56.4353 56.936C56.0393 57.156 55.5883 57.354 55.0823 57.53ZM60.2872 55L60.0562 46.948H61.5962L61.8272 55H60.2872ZM62.8 54.56L63.339 53.163C63.6104 53.2803 63.8707 53.3683 64.12 53.427C64.3694 53.4857 64.6187 53.515 64.868 53.515C65.1247 53.515 65.3374 53.493 65.506 53.449C65.682 53.3977 65.814 53.3243 65.902 53.229C65.99 53.1337 66.034 53.02 66.034 52.888C66.034 52.7633 65.9937 52.591 65.913 52.371C65.8397 52.151 65.704 51.865 65.506 51.513C65.308 51.1537 65.0184 50.71 64.637 50.182L65.946 49.313C66.298 49.8117 66.6024 50.2993 66.859 50.776C67.1157 51.2453 67.3137 51.6853 67.453 52.096C67.5997 52.4993 67.673 52.855 67.673 53.163C67.673 53.5443 67.5704 53.878 67.365 54.164C67.167 54.4427 66.87 54.6627 66.474 54.824C66.0854 54.9853 65.605 55.066 65.033 55.066C64.8204 55.066 64.582 55.0477 64.318 55.011C64.054 54.9743 63.7864 54.9193 63.515 54.846C63.251 54.7727 63.0127 54.6773 62.8 54.56ZM72.4317 49.104C72.4317 48.862 72.417 48.62 72.3877 48.378C72.3657 48.136 72.3363 47.9087 72.2997 47.696C72.263 47.476 72.23 47.2853 72.2007 47.124L73.7407 46.904C73.77 47.0507 73.7993 47.245 73.8287 47.487C73.858 47.729 73.8837 47.9857 73.9057 48.257C73.9277 48.521 73.9387 48.774 73.9387 49.016C73.9387 49.3973 73.9057 49.7567 73.8397 50.094C73.7737 50.4313 73.6747 50.7503 73.5427 51.051C73.4107 51.3443 73.2457 51.6267 73.0477 51.898L72.8497 52.162C72.659 52.3967 72.4353 52.6277 72.1787 52.855C71.9293 53.0823 71.6543 53.3023 71.3537 53.515H72.0687C72.318 53.515 72.5087 53.5003 72.6407 53.471C72.7727 53.4417 72.8607 53.4013 72.9047 53.35C72.956 53.2913 72.9817 53.2253 72.9817 53.152C72.9817 53.02 72.868 52.8257 72.6407 52.569C72.4133 52.305 72.098 52.0043 71.6947 51.667C71.2913 51.3223 70.8183 50.9593 70.2757 50.578C69.7403 50.1893 69.161 49.8007 68.5377 49.412L69.3407 48.235C70.206 48.7703 70.9357 49.2617 71.5297 49.709C72.131 50.1563 72.6223 50.5633 73.0037 50.93C73.3923 51.2967 73.693 51.6303 73.9057 51.931C74.1183 52.2317 74.265 52.503 74.3457 52.745C74.4263 52.9797 74.4667 53.1923 74.4667 53.383C74.4667 53.5957 74.4337 53.801 74.3677 53.999C74.3017 54.1897 74.1953 54.362 74.0487 54.516C73.902 54.6627 73.7113 54.78 73.4767 54.868C73.242 54.956 72.9523 55 72.6077 55H69.3737V53.526C70.129 52.9833 70.7267 52.47 71.1667 51.986C71.614 51.502 71.9367 51.0253 72.1347 50.556C72.3327 50.0867 72.4317 49.6027 72.4317 49.104ZM69.2197 58.399L69.0327 57.629C69.2893 57.585 69.48 57.5483 69.6047 57.519C69.7367 57.4897 69.876 57.4567 70.0227 57.42L69.9127 57.695C69.722 57.629 69.5387 57.497 69.3627 57.299C69.194 57.1083 69.1097 56.8883 69.1097 56.639C69.1097 56.375 69.1683 56.1623 69.2857 56.001C69.403 55.8397 69.5533 55.7223 69.7367 55.649C69.92 55.5757 70.1107 55.539 70.3087 55.539C70.4187 55.539 70.5213 55.5463 70.6167 55.561C70.7193 55.5757 70.811 55.5977 70.8917 55.627L70.8037 56.419C70.7303 56.4043 70.657 56.3897 70.5837 56.375C70.5103 56.3603 70.4297 56.353 70.3417 56.353C70.2463 56.353 70.1583 56.3823 70.0777 56.441C70.0043 56.507 69.9677 56.584 69.9677 56.672C69.9677 56.7967 70.0117 56.9067 70.0997 57.002C70.1877 57.0973 70.2903 57.1707 70.4077 57.222C70.5323 57.2807 70.635 57.3137 70.7157 57.321L70.1107 57.387C70.3087 57.3357 70.4957 57.2807 70.6717 57.222C70.8477 57.1707 71.0127 57.1157 71.1667 57.057L71.3867 57.794C71.2033 57.86 70.987 57.9297 70.7377 58.003C70.4957 58.0837 70.2427 58.157 69.9787 58.223C69.722 58.289 69.469 58.3477 69.2197 58.399ZM75.9279 55L75.6969 46.948H77.2369L77.4679 55H75.9279ZM81.3716 59.323C81.2396 58.8097 81.1259 58.3293 81.0306 57.882C80.9426 57.442 80.8766 57.0423 80.8326 56.683C80.7886 56.331 80.7666 56.0303 80.7666 55.781C80.7666 55.2677 80.8509 54.8387 81.0196 54.494C81.1956 54.1493 81.4266 53.8743 81.7126 53.669C82.0059 53.4563 82.3249 53.306 82.6696 53.218C83.0142 53.1227 83.3589 53.075 83.7036 53.075C84.0556 53.075 84.3782 53.1043 84.6716 53.163C84.6862 52.9357 84.6679 52.7303 84.6166 52.547C84.5726 52.3637 84.5029 52.206 84.4076 52.074C84.3196 51.942 84.2096 51.8393 84.0776 51.766C83.9529 51.6927 83.8172 51.656 83.6706 51.656C83.5312 51.656 83.3919 51.6927 83.2526 51.766C83.1132 51.832 82.9812 51.931 82.8566 52.063C82.7392 52.195 82.6256 52.3637 82.5156 52.569L81.3166 51.909C81.5146 51.4617 81.7492 51.1097 82.0206 50.853C82.2919 50.589 82.5742 50.402 82.8676 50.292C83.1682 50.1747 83.4616 50.116 83.7476 50.116C84.1876 50.116 84.5652 50.2113 84.8806 50.402C85.2032 50.5853 85.4636 50.8273 85.6616 51.128C85.8596 51.4213 86.0062 51.7367 86.1016 52.074C86.1969 52.4113 86.2446 52.734 86.2446 53.042C86.2446 53.2767 86.2189 53.5113 86.1676 53.746C86.1236 53.9733 86.0686 54.1787 86.0026 54.362C85.9439 54.5453 85.8852 54.6883 85.8266 54.791C85.4232 54.681 85.0419 54.6003 84.6826 54.549C84.3232 54.4977 83.9969 54.483 83.7036 54.505C83.4176 54.5197 83.1682 54.5783 82.9556 54.681C82.7502 54.7763 82.5889 54.9193 82.4716 55.11C82.3616 55.3007 82.3066 55.5427 82.3066 55.836C82.3066 56.1073 82.3286 56.4153 82.3726 56.76C82.4166 57.112 82.4789 57.475 82.5596 57.849C82.6402 58.223 82.7319 58.5933 82.8346 58.96L81.3716 59.323ZM90.1149 55.055C89.4329 55.055 88.9049 54.9853 88.5309 54.846C88.1643 54.7067 87.9076 54.4903 87.7609 54.197C87.6143 53.8963 87.5299 53.5187 87.5079 53.064L87.2769 46.948H88.8169L89.0479 52.327C89.0626 52.6643 89.0993 52.9173 89.1579 53.086C89.2166 53.2547 89.3266 53.3683 89.4879 53.427C89.6566 53.4857 89.9023 53.515 90.2249 53.515C90.5036 53.515 90.7016 53.5883 90.8189 53.735C90.9436 53.8743 91.0059 54.0503 91.0059 54.263C91.0059 54.4903 90.9289 54.681 90.7749 54.835C90.6209 54.9817 90.4009 55.055 90.1149 55.055ZM98.5009 55.055C98.1269 55.055 97.7675 55.022 97.4229 54.956C97.0782 54.8827 96.7665 54.7873 96.4879 54.67C96.2165 54.5527 95.9929 54.4207 95.8169 54.274L96.8069 53.207C97.0709 53.317 97.3422 53.3977 97.6209 53.449C97.8995 53.493 98.2295 53.515 98.6109 53.515C98.8895 53.515 99.0875 53.5883 99.2049 53.735C99.3296 53.8743 99.3919 54.0503 99.3919 54.263C99.3919 54.4903 99.3149 54.681 99.1609 54.835C99.0069 54.9817 98.7869 55.055 98.5009 55.055ZM90.1299 55.055L90.2399 53.515H92.7039C93.3932 53.515 93.9652 53.4893 94.4199 53.438C94.8819 53.3867 95.2485 53.3133 95.5199 53.218C95.7912 53.1153 95.9819 52.998 96.0919 52.866C96.2092 52.734 96.2679 52.591 96.2679 52.437C96.2679 52.2977 96.2349 52.1657 96.1689 52.041C96.1029 51.909 96.0039 51.8027 95.8719 51.722C95.7399 51.6413 95.5675 51.601 95.3549 51.601C95.0835 51.601 94.8122 51.667 94.5409 51.799C94.2695 51.9237 94.0055 52.096 93.7489 52.316C93.4922 52.5287 93.2465 52.767 93.0119 53.031C92.7845 53.295 92.5755 53.5627 92.3849 53.834L90.7239 53.603C91.0319 53.1263 91.3655 52.6753 91.7249 52.25C92.0915 51.8173 92.4765 51.4397 92.8799 51.117C93.2905 50.787 93.7122 50.5303 94.1449 50.347C94.5849 50.1563 95.0322 50.061 95.4869 50.061C95.9709 50.061 96.3852 50.16 96.7299 50.358C97.0745 50.556 97.3385 50.8273 97.5219 51.172C97.7125 51.5167 97.8079 51.9163 97.8079 52.371C97.8079 52.8477 97.6722 53.2767 97.4009 53.658C97.1369 54.0393 96.6859 54.3547 96.0479 54.604C95.7765 54.7067 95.4832 54.791 95.1679 54.857C94.8525 54.923 94.4822 54.9707 94.0569 55C93.6315 55.0367 93.1219 55.055 92.5279 55.055H90.1299ZM91.2739 53.933L91.0429 46.948H92.5829L92.7809 52.228L91.2739 53.933ZM95.1679 49.038C94.9405 49.038 94.7462 48.961 94.5849 48.807C94.4309 48.653 94.3539 48.4623 94.3539 48.235C94.3539 48.0077 94.4309 47.8133 94.5849 47.652C94.7462 47.4907 94.9405 47.41 95.1679 47.41C95.3879 47.41 95.5749 47.4907 95.7289 47.652C95.8902 47.8133 95.9709 48.0077 95.9709 48.235C95.9709 48.4623 95.8902 48.653 95.7289 48.807C95.5749 48.961 95.3879 49.038 95.1679 49.038ZM98.5088 55.055L98.6188 53.515C98.9415 53.515 99.1945 53.493 99.3778 53.449C99.5685 53.405 99.7041 53.3243 99.7848 53.207C99.8655 53.0823 99.9058 52.9063 99.9058 52.679C99.9058 52.4737 99.8765 52.228 99.8178 51.942C99.7665 51.656 99.6968 51.359 99.6088 51.051C99.5208 50.743 99.4328 50.4607 99.3448 50.204L100.863 49.786C100.951 50.0353 101.039 50.325 101.127 50.655C101.215 50.985 101.288 51.326 101.347 51.678C101.413 52.0227 101.446 52.3563 101.446 52.679C101.446 53.0823 101.394 53.4233 101.292 53.702C101.189 53.9733 101.046 54.2007 100.863 54.384C100.687 54.56 100.474 54.6993 100.225 54.802C99.9828 54.8973 99.7151 54.9633 99.4218 55C99.1285 55.0367 98.8241 55.055 98.5088 55.055ZM100.093 48.873C99.8655 48.873 99.6711 48.796 99.5098 48.642C99.3558 48.488 99.2788 48.2973 99.2788 48.07C99.2788 47.8427 99.3558 47.6483 99.5098 47.487C99.6711 47.3257 99.8655 47.245 100.093 47.245C100.313 47.245 100.5 47.3257 100.654 47.487C100.815 47.6483 100.896 47.8427 100.896 48.07C100.896 48.2973 100.815 48.488 100.654 48.642C100.5 48.796 100.313 48.873 100.093 48.873ZM22.0281 68.055C21.5074 68.055 21.0564 67.989 20.6751 67.857C20.3011 67.7177 20.0114 67.4977 19.8061 67.197C19.6008 66.889 19.4834 66.4783 19.4541 65.965L19.2561 61.532H20.8071L20.9941 65.426C21.0088 65.7267 21.0564 65.9577 21.1371 66.119C21.2251 66.273 21.3498 66.3793 21.5111 66.438C21.6724 66.4893 21.8814 66.515 22.1381 66.515C22.4168 66.515 22.6148 66.5883 22.7321 66.735C22.8494 66.8743 22.9081 67.0503 22.9081 67.263C22.9081 67.4903 22.8311 67.681 22.6771 67.835C22.5304 67.9817 22.3141 68.055 22.0281 68.055ZM20.0151 67.032C19.5238 67.142 19.0508 67.1933 18.5961 67.186C18.1414 67.1713 17.7344 67.0907 17.3751 66.944C17.0158 66.79 16.7298 66.57 16.5171 66.284C16.3118 65.998 16.2091 65.635 16.2091 65.195C16.2091 64.8063 16.2934 64.4543 16.4621 64.139C16.6381 63.8163 16.8801 63.534 17.1881 63.292C17.5034 63.05 17.8701 62.8447 18.2881 62.676C18.7061 62.5073 19.1608 62.379 19.6521 62.291L19.8061 63.853C19.4908 63.8677 19.2048 63.9117 18.9481 63.985C18.6988 64.051 18.4824 64.139 18.2991 64.249C18.1231 64.359 17.9874 64.4837 17.8921 64.623C17.7968 64.755 17.7491 64.898 17.7491 65.052C17.7491 65.1767 17.7931 65.2793 17.8811 65.36C17.9691 65.4407 18.0864 65.5067 18.2331 65.558C18.3798 65.602 18.5484 65.6277 18.7391 65.635C18.9298 65.6423 19.1241 65.6313 19.3221 65.602C19.5274 65.5727 19.7291 65.525 19.9271 65.459L20.0151 67.032ZM20.0481 60.399C19.8354 60.399 19.6521 60.3257 19.4981 60.179C19.3514 60.025 19.2781 59.8453 19.2781 59.64C19.2781 59.4273 19.3514 59.244 19.4981 59.09C19.6521 58.936 19.8354 58.859 20.0481 58.859C20.2534 58.859 20.4294 58.936 20.5761 59.09C20.7228 59.244 20.7961 59.4273 20.7961 59.64C20.7961 59.8453 20.7228 60.025 20.5761 60.179C20.4294 60.3257 20.2534 60.399 20.0481 60.399ZM18.1451 60.388C17.9324 60.388 17.7491 60.3147 17.5951 60.168C17.4484 60.014 17.3751 59.8343 17.3751 59.629C17.3751 59.4163 17.4484 59.233 17.5951 59.079C17.7491 58.925 17.9324 58.848 18.1451 58.848C18.3504 58.848 18.5264 58.925 18.6731 59.079C18.8198 59.233 18.8931 59.4163 18.8931 59.629C18.8931 59.8343 18.8198 60.014 18.6731 60.168C18.5264 60.3147 18.3504 60.388 18.1451 60.388ZM22.0244 68.055L22.1344 66.515C22.3984 66.515 22.6257 66.4893 22.8164 66.438C23.0071 66.3867 23.1684 66.284 23.3004 66.13C23.4324 65.9687 23.5424 65.734 23.6304 65.426C23.7257 65.118 23.8101 64.7073 23.8834 64.194L25.3244 64.436C25.3097 64.546 25.2877 64.6743 25.2584 64.821C25.2364 64.9677 25.2144 65.118 25.1924 65.272C25.1777 65.4187 25.1704 65.558 25.1704 65.69C25.1704 65.822 25.1961 65.9393 25.2474 66.042C25.2987 66.1447 25.3794 66.2327 25.4894 66.306C25.6067 66.372 25.7571 66.4233 25.9404 66.46C26.1311 66.4967 26.3621 66.515 26.6334 66.515C26.9121 66.515 27.1101 66.5883 27.2274 66.735C27.3447 66.8743 27.4034 67.0503 27.4034 67.263C27.4034 67.4903 27.3264 67.681 27.1724 67.835C27.0257 67.9817 26.8094 68.055 26.5234 68.055C26.1934 68.055 25.8927 68.0293 25.6214 67.978C25.3574 67.9267 25.1264 67.8423 24.9284 67.725C24.7377 67.6003 24.5801 67.439 24.4554 67.241C24.3381 67.0357 24.2647 66.7863 24.2354 66.493H24.7634C24.6314 66.845 24.4627 67.1273 24.2574 67.34C24.0594 67.5453 23.8357 67.6993 23.5864 67.802C23.3371 67.9047 23.0767 67.9707 22.8054 68C22.5414 68.0367 22.2811 68.055 22.0244 68.055ZM25.0934 70.607C24.8807 70.607 24.6974 70.53 24.5434 70.376C24.3967 70.2293 24.3234 70.0533 24.3234 69.848C24.3234 69.6353 24.3967 69.452 24.5434 69.298C24.6974 69.144 24.8807 69.067 25.0934 69.067C25.2987 69.067 25.4747 69.144 25.6214 69.298C25.7681 69.452 25.8414 69.6353 25.8414 69.848C25.8414 70.0533 25.7681 70.2293 25.6214 70.376C25.4747 70.53 25.2987 70.607 25.0934 70.607ZM23.1904 70.607C22.9777 70.607 22.7944 70.53 22.6404 70.376C22.4937 70.2293 22.4204 70.0533 22.4204 69.848C22.4204 69.6353 22.4937 69.452 22.6404 69.298C22.7944 69.144 22.9777 69.067 23.1904 69.067C23.3957 69.067 23.5717 69.144 23.7184 69.298C23.8651 69.452 23.9384 69.6353 23.9384 69.848C23.9384 70.0533 23.8651 70.2293 23.7184 70.376C23.5717 70.53 23.3957 70.607 23.1904 70.607ZM26.5254 68.055L26.6354 66.515C26.8041 66.515 26.9471 66.4747 27.0644 66.394C27.1891 66.306 27.3174 66.163 27.4494 65.965C27.5814 65.7597 27.7354 65.4847 27.9114 65.14C28.1314 64.7 28.3587 64.3553 28.5934 64.106C28.8354 63.8567 29.0811 63.6807 29.3304 63.578C29.5871 63.468 29.8437 63.413 30.1004 63.413C30.4231 63.413 30.7237 63.4827 31.0024 63.622C31.2811 63.7613 31.5231 63.952 31.7284 64.194C31.9337 64.4287 32.0914 64.7 32.2014 65.008C32.3187 65.3087 32.3774 65.6203 32.3774 65.943C32.3774 66.3317 32.2931 66.6837 32.1244 66.999C31.9631 67.307 31.7357 67.5527 31.4424 67.736C31.1564 67.912 30.8264 68 30.4524 68C30.1371 68 29.7704 67.945 29.3524 67.835C28.9344 67.725 28.4944 67.494 28.0324 67.142L28.5934 65.811C28.9234 66.0383 29.2314 66.2033 29.5174 66.306C29.8107 66.4087 30.0527 66.46 30.2434 66.46C30.3901 66.46 30.5111 66.4453 30.6064 66.416C30.7017 66.3867 30.7714 66.339 30.8154 66.273C30.8594 66.207 30.8814 66.119 30.8814 66.009C30.8814 65.855 30.8447 65.6973 30.7714 65.536C30.6981 65.3747 30.5991 65.239 30.4744 65.129C30.3571 65.0117 30.2177 64.953 30.0564 64.953C29.9024 64.953 29.7704 65.0117 29.6604 65.129C29.5577 65.239 29.4551 65.4003 29.3524 65.613C29.2571 65.8183 29.1397 66.0603 29.0004 66.339C28.8317 66.6763 28.6667 66.9587 28.5054 67.186C28.3441 67.406 28.1717 67.582 27.9884 67.714C27.8124 67.8387 27.6034 67.9267 27.3614 67.978C27.1267 68.0293 26.8481 68.055 26.5254 68.055ZM33.5547 70.53L33.2357 68.99C33.7564 68.924 34.2111 68.8433 34.5997 68.748C34.9884 68.66 35.3147 68.5353 35.5787 68.374C35.8427 68.2127 36.0407 67.9927 36.1727 67.714C36.3047 67.428 36.3707 67.0613 36.3707 66.614C36.3707 66.1813 36.3047 65.8367 36.1727 65.58C36.0407 65.3233 35.8647 65.195 35.6447 65.195C35.4907 65.195 35.3624 65.25 35.2597 65.36C35.1571 65.4627 35.0801 65.5873 35.0287 65.734C34.9847 65.8733 34.9627 65.998 34.9627 66.108C34.9627 66.174 34.9811 66.2437 35.0177 66.317C35.0544 66.3903 35.1351 66.4527 35.2597 66.504C35.3844 66.5553 35.5787 66.5847 35.8427 66.592C36.1141 66.5993 36.4807 66.5737 36.9427 66.515H38.7907C39.0694 66.515 39.2674 66.5883 39.3847 66.735C39.5094 66.8743 39.5717 67.0503 39.5717 67.263C39.5717 67.4903 39.4947 67.681 39.3407 67.835C39.1867 67.9817 38.9667 68.055 38.6807 68.055H35.6557C35.1937 68.055 34.7977 68 34.4677 67.89C34.1377 67.78 33.8847 67.604 33.7087 67.362C33.5327 67.1127 33.4447 66.7827 33.4447 66.372C33.4447 66.042 33.4997 65.712 33.6097 65.382C33.7271 65.052 33.8884 64.7513 34.0937 64.48C34.2991 64.2013 34.5374 63.9813 34.8087 63.82C35.0874 63.6513 35.3881 63.567 35.7107 63.567C36.1507 63.567 36.5357 63.7027 36.8657 63.974C37.1957 64.2453 37.4524 64.6047 37.6357 65.052C37.8264 65.4993 37.9217 65.987 37.9217 66.515C37.9217 67.3437 37.7457 68.0477 37.3937 68.627C37.0417 69.2063 36.5394 69.6537 35.8867 69.969C35.2341 70.2917 34.4567 70.4787 33.5547 70.53ZM38.6963 68.055L38.8063 66.515H40.3463C40.603 66.515 40.7973 66.5003 40.9293 66.471C41.0686 66.4417 41.164 66.3977 41.2153 66.339C41.2666 66.273 41.2923 66.196 41.2923 66.108C41.2923 65.976 41.2336 65.822 41.1163 65.646C41.0063 65.47 40.8596 65.2867 40.6763 65.096C40.5003 64.9053 40.3133 64.7147 40.1153 64.524C39.9173 64.326 39.7266 64.1427 39.5433 63.974C39.3673 63.8053 39.2206 63.6587 39.1033 63.534C38.9933 63.402 38.9383 63.3067 38.9383 63.248C38.9383 63.0427 38.9493 62.8813 38.9713 62.764C38.9933 62.6393 39.0226 62.5403 39.0593 62.467C39.1033 62.3937 39.151 62.3313 39.2023 62.28C39.327 62.1553 39.514 62.016 39.7633 61.862C40.0126 61.7007 40.306 61.532 40.6433 61.356C40.988 61.1727 41.373 60.982 41.7983 60.784C42.2236 60.5787 42.6746 60.366 43.1513 60.146L43.7783 61.488C43.2943 61.7007 42.8616 61.8987 42.4803 62.082C42.1063 62.258 41.769 62.423 41.4683 62.577C41.175 62.7237 40.911 62.863 40.6763 62.995C40.449 63.127 40.2436 63.2517 40.0603 63.369L40.1703 62.555C40.4856 62.8263 40.7716 63.083 41.0283 63.325C41.285 63.567 41.5233 63.809 41.7433 64.051C41.9633 64.293 42.1686 64.5423 42.3593 64.799C42.5573 65.0557 42.748 65.3343 42.9313 65.635C43.0926 65.8917 43.2576 66.0823 43.4263 66.207C43.6023 66.3317 43.771 66.416 43.9323 66.46C44.101 66.4967 44.2513 66.515 44.3833 66.515C44.662 66.515 44.86 66.5883 44.9773 66.735C45.102 66.8743 45.1643 67.0503 45.1643 67.263C45.1643 67.4903 45.0873 67.681 44.9333 67.835C44.7793 67.9817 44.5593 68.055 44.2733 68.055C44.0313 68.055 43.771 68.0147 43.4923 67.934C43.2136 67.846 42.9533 67.7067 42.7113 67.516C42.4693 67.3253 42.286 67.065 42.1613 66.735L42.7553 66.779C42.6453 67.0137 42.5133 67.2153 42.3593 67.384C42.2126 67.5453 42.0366 67.6773 41.8313 67.78C41.626 67.8753 41.3913 67.945 41.1273 67.989C40.8633 68.033 40.5663 68.055 40.2363 68.055H38.6963ZM51.4762 68.055C51.1389 68.055 50.8236 68.0293 50.5302 67.978C50.2442 67.9267 49.9802 67.8387 49.7382 67.714C49.4962 67.582 49.2799 67.4023 49.0892 67.175C48.9059 66.9477 48.7519 66.6617 48.6272 66.317L49.4962 65.624C49.6282 65.8587 49.7896 66.042 49.9802 66.174C50.1709 66.2987 50.3982 66.3867 50.6622 66.438C50.9262 66.4893 51.2342 66.515 51.5862 66.515C51.8649 66.515 52.0629 66.5883 52.1802 66.735C52.2976 66.8743 52.3562 67.0503 52.3562 67.263C52.3562 67.4903 52.2792 67.681 52.1252 67.835C51.9786 67.9817 51.7622 68.055 51.4762 68.055ZM44.2822 68.055L44.3922 66.515C44.7882 66.515 45.1806 66.493 45.5692 66.449C45.9579 66.405 46.3356 66.339 46.7022 66.251C47.0689 66.163 47.4172 66.0493 47.7472 65.91C48.0846 65.7707 48.3999 65.602 48.6932 65.404C48.4732 65.272 48.2349 65.1583 47.9782 65.063C47.7216 64.9677 47.4466 64.898 47.1532 64.854C46.8672 64.8027 46.5629 64.777 46.2402 64.777C46.1229 64.777 45.9982 64.7807 45.8662 64.788C45.7416 64.7953 45.6132 64.81 45.4812 64.832C45.3492 64.8467 45.2172 64.8687 45.0852 64.898L44.8652 63.391C45.0779 63.3323 45.3016 63.292 45.5362 63.27C45.7782 63.2407 45.9909 63.226 46.1742 63.226C46.5702 63.226 46.9332 63.27 47.2632 63.358C47.6006 63.446 47.9086 63.556 48.1872 63.688C48.4732 63.82 48.7372 63.952 48.9792 64.084C49.2286 64.216 49.4632 64.326 49.6832 64.414C49.9106 64.502 50.1306 64.546 50.3432 64.546H50.7502L50.9262 66.009C50.6109 66.0237 50.3139 66.086 50.0352 66.196C49.7639 66.2987 49.4926 66.4307 49.2212 66.592C48.9572 66.746 48.6712 66.9073 48.3632 67.076C48.0626 67.2447 47.7216 67.4023 47.3402 67.549C46.9589 67.6957 46.5189 67.8167 46.0202 67.912C45.5216 68.0073 44.9422 68.055 44.2822 68.055ZM51.4795 68.055L51.5895 66.515C51.9268 66.515 52.1688 66.482 52.3155 66.416C52.4622 66.3427 52.5502 66.2107 52.5795 66.02C52.6088 65.822 52.6162 65.536 52.6015 65.162L52.4035 59.948H53.9545L54.1745 65.272C54.1892 65.6973 54.1708 66.0823 54.1195 66.427C54.0755 66.7643 53.9618 67.054 53.7785 67.296C53.6025 67.538 53.3275 67.725 52.9535 67.857C52.5868 67.989 52.0955 68.055 51.4795 68.055ZM55.6251 68L55.3941 59.948H56.9341L57.1651 68H55.6251ZM64.9738 68.231L65.2598 66.691C65.9712 66.691 66.5908 66.6727 67.1188 66.636C67.6468 66.592 68.0832 66.5297 68.4278 66.449C68.7798 66.361 69.0402 66.2473 69.2088 66.108C69.3848 65.9687 69.4728 65.8 69.4728 65.602C69.4728 65.338 69.4288 65.0227 69.3408 64.656C69.2528 64.282 69.1392 63.9043 68.9998 63.523L70.4408 63.105C70.5362 63.3543 70.6278 63.6293 70.7158 63.93C70.8038 64.2233 70.8735 64.5203 70.9248 64.821C70.9835 65.1143 71.0128 65.3893 71.0128 65.646C71.0128 66.1007 70.9138 66.493 70.7158 66.823C70.5178 67.1457 70.1878 67.4133 69.7258 67.626C69.2712 67.8313 68.6552 67.9817 67.8778 68.077C67.1005 68.1797 66.1325 68.231 64.9738 68.231ZM64.9628 68.231C64.1708 68.231 63.4998 68.1687 62.9498 68.044C62.4072 67.9267 61.9635 67.758 61.6188 67.538C61.2815 67.3107 61.0358 67.0467 60.8818 66.746C60.7278 66.4453 60.6508 66.1153 60.6508 65.756C60.6508 65.5213 60.6692 65.2867 60.7058 65.052C60.7498 64.81 60.8012 64.5753 60.8598 64.348C60.9258 64.1207 60.9845 63.9153 61.0358 63.732L62.4108 64.051C62.3815 64.183 62.3485 64.326 62.3118 64.48C62.2752 64.634 62.2458 64.7843 62.2238 64.931C62.2018 65.0703 62.1908 65.1987 62.1908 65.316C62.1908 65.5873 62.2862 65.8293 62.4768 66.042C62.6748 66.2473 62.9975 66.4087 63.4448 66.526C63.8922 66.636 64.4935 66.691 65.2488 66.691L65.4688 67.879L64.9628 68.231ZM66.7778 63.204C66.5652 63.204 66.3818 63.1307 66.2278 62.984C66.0812 62.83 66.0078 62.6503 66.0078 62.445C66.0078 62.2323 66.0812 62.049 66.2278 61.895C66.3818 61.741 66.5652 61.664 66.7778 61.664C66.9832 61.664 67.1592 61.741 67.3058 61.895C67.4525 62.049 67.5258 62.2323 67.5258 62.445C67.5258 62.6503 67.4525 62.83 67.3058 62.984C67.1592 63.1307 66.9832 63.204 66.7778 63.204ZM64.8748 63.193C64.6622 63.193 64.4788 63.1197 64.3248 62.973C64.1782 62.819 64.1048 62.6393 64.1048 62.434C64.1048 62.2213 64.1782 62.038 64.3248 61.884C64.4788 61.73 64.6622 61.653 64.8748 61.653C65.0802 61.653 65.2562 61.73 65.4028 61.884C65.5495 62.038 65.6228 62.2213 65.6228 62.434C65.6228 62.6393 65.5495 62.819 65.4028 62.973C65.2562 63.1197 65.0802 63.193 64.8748 63.193ZM75.0544 68.055C74.3724 68.055 73.8444 67.9853 73.4704 67.846C73.1037 67.7067 72.847 67.4903 72.7004 67.197C72.5537 66.8963 72.4694 66.5187 72.4474 66.064L72.2164 59.948H73.7564L73.9874 65.327C74.002 65.6643 74.0387 65.9173 74.0974 66.086C74.156 66.2547 74.266 66.3683 74.4274 66.427C74.596 66.4857 74.8417 66.515 75.1644 66.515C75.443 66.515 75.641 66.5883 75.7584 66.735C75.883 66.8743 75.9454 67.0503 75.9454 67.263C75.9454 67.4903 75.8684 67.681 75.7144 67.835C75.5604 67.9817 75.3404 68.055 75.0544 68.055ZM75.0693 68.055L75.1793 66.515C75.348 66.515 75.491 66.4747 75.6083 66.394C75.733 66.306 75.8613 66.163 75.9933 65.965C76.1253 65.7597 76.2793 65.4847 76.4553 65.14C76.6753 64.7 76.9027 64.3553 77.1373 64.106C77.3793 63.8567 77.625 63.6807 77.8743 63.578C78.131 63.468 78.3877 63.413 78.6443 63.413C78.967 63.413 79.2677 63.4827 79.5463 63.622C79.825 63.7613 80.067 63.952 80.2723 64.194C80.4777 64.4287 80.6353 64.7 80.7453 65.008C80.8627 65.3087 80.9213 65.6203 80.9213 65.943C80.9213 66.3317 80.837 66.6837 80.6683 66.999C80.507 67.307 80.2797 67.5527 79.9863 67.736C79.7003 67.912 79.3703 68 78.9963 68C78.681 68 78.3143 67.945 77.8963 67.835C77.4783 67.725 77.0383 67.494 76.5763 67.142L77.1373 65.811C77.4673 66.0383 77.7753 66.2033 78.0613 66.306C78.3547 66.4087 78.5967 66.46 78.7873 66.46C78.934 66.46 79.055 66.4453 79.1503 66.416C79.2457 66.3867 79.3153 66.339 79.3593 66.273C79.4033 66.207 79.4253 66.119 79.4253 66.009C79.4253 65.855 79.3887 65.6973 79.3153 65.536C79.242 65.3747 79.143 65.239 79.0183 65.129C78.901 65.0117 78.7617 64.953 78.6003 64.953C78.4463 64.953 78.3143 65.0117 78.2043 65.129C78.1017 65.239 77.999 65.4003 77.8963 65.613C77.801 65.8183 77.6837 66.0603 77.5443 66.339C77.3757 66.6763 77.2107 66.9587 77.0493 67.186C76.888 67.406 76.7157 67.582 76.5323 67.714C76.3563 67.8387 76.1473 67.9267 75.9053 67.978C75.6707 68.0293 75.392 68.055 75.0693 68.055ZM83.8697 66.515C84.1997 66.515 84.4527 66.4857 84.6287 66.427C84.8047 66.3683 84.9257 66.2913 84.9917 66.196C85.0577 66.1007 85.0907 65.998 85.0907 65.888C85.0907 65.712 85.0393 65.5067 84.9367 65.272C84.8413 65.0373 84.7203 64.7917 84.5737 64.535C84.427 64.2783 84.273 64.0327 84.1117 63.798C83.9577 63.5633 83.8183 63.358 83.6937 63.182L85.0027 62.313C85.318 62.7383 85.5893 63.16 85.8167 63.578C86.044 63.9887 86.2273 64.37 86.3667 64.722C86.5133 65.074 86.616 65.3747 86.6747 65.624C86.7333 65.8587 86.8213 66.042 86.9387 66.174C87.0633 66.2987 87.2063 66.3867 87.3677 66.438C87.529 66.4893 87.6903 66.515 87.8517 66.515C88.1303 66.515 88.3283 66.5883 88.4457 66.735C88.5703 66.8743 88.6327 67.0503 88.6327 67.263C88.6327 67.4903 88.5557 67.681 88.4017 67.835C88.255 67.9817 88.035 68.055 87.7417 68.055C87.419 68.055 87.1367 68.011 86.8947 67.923C86.6527 67.835 86.4473 67.6957 86.2787 67.505C86.11 67.3143 85.967 67.0723 85.8497 66.779L86.5207 66.922C86.462 67.1273 86.3263 67.318 86.1137 67.494C85.9083 67.6627 85.6333 67.802 85.2887 67.912C84.9513 68.0147 84.5517 68.066 84.0897 68.066C83.8697 68.066 83.624 68.0477 83.3527 68.011C83.0887 67.9743 82.8247 67.9193 82.5607 67.846C82.304 67.7727 82.0693 67.6773 81.8567 67.56L82.3957 66.163C82.667 66.2803 82.9273 66.3683 83.1767 66.427C83.4333 66.4857 83.6643 66.515 83.8697 66.515ZM94.9499 68.055C94.6125 68.055 94.2972 68.0293 94.0039 67.978C93.7179 67.9267 93.4539 67.8387 93.2119 67.714C92.9699 67.582 92.7535 67.4023 92.5629 67.175C92.3795 66.9477 92.2255 66.6617 92.1009 66.317L92.9699 65.624C93.1019 65.8587 93.2632 66.042 93.4539 66.174C93.6445 66.2987 93.8719 66.3867 94.1359 66.438C94.3999 66.4893 94.7079 66.515 95.0599 66.515C95.3385 66.515 95.5365 66.5883 95.6539 66.735C95.7712 66.8743 95.8299 67.0503 95.8299 67.263C95.8299 67.4903 95.7529 67.681 95.5989 67.835C95.4522 67.9817 95.2359 68.055 94.9499 68.055ZM87.7559 68.055L87.8659 66.515C88.2619 66.515 88.6542 66.493 89.0429 66.449C89.4315 66.405 89.8092 66.339 90.1759 66.251C90.5425 66.163 90.8909 66.0493 91.2209 65.91C91.5582 65.7707 91.8735 65.602 92.1669 65.404C91.9469 65.272 91.7085 65.1583 91.4519 65.063C91.1952 64.9677 90.9202 64.898 90.6269 64.854C90.3409 64.8027 90.0365 64.777 89.7139 64.777C89.5965 64.777 89.4719 64.7807 89.3399 64.788C89.2152 64.7953 89.0869 64.81 88.9549 64.832C88.8229 64.8467 88.6909 64.8687 88.5589 64.898L88.3389 63.391C88.5515 63.3323 88.7752 63.292 89.0099 63.27C89.2519 63.2407 89.4645 63.226 89.6479 63.226C90.0439 63.226 90.4069 63.27 90.7369 63.358C91.0742 63.446 91.3822 63.556 91.6609 63.688C91.9469 63.82 92.2109 63.952 92.4529 64.084C92.7022 64.216 92.9369 64.326 93.1569 64.414C93.3842 64.502 93.6042 64.546 93.8169 64.546H94.2239L94.3999 66.009C94.0845 66.0237 93.7875 66.086 93.5089 66.196C93.2375 66.2987 92.9662 66.4307 92.6949 66.592C92.4309 66.746 92.1449 66.9073 91.8369 67.076C91.5362 67.2447 91.1952 67.4023 90.8139 67.549C90.4325 67.6957 89.9925 67.8167 89.4939 67.912C88.9952 68.0073 88.4159 68.055 87.7559 68.055ZM89.6479 62.093C89.4205 62.093 89.2262 62.016 89.0649 61.862C88.9109 61.708 88.8339 61.5173 88.8339 61.29C88.8339 61.0627 88.9109 60.8683 89.0649 60.707C89.2262 60.5457 89.4205 60.465 89.6479 60.465C89.8679 60.465 90.0549 60.5457 90.2089 60.707C90.3702 60.8683 90.4509 61.0627 90.4509 61.29C90.4509 61.5173 90.3702 61.708 90.2089 61.862C90.0549 62.016 89.8679 62.093 89.6479 62.093ZM94.9531 68.055L95.0631 66.515C95.4078 66.515 95.6498 66.482 95.7891 66.416C95.9358 66.3427 96.0238 66.2107 96.0531 66.02C96.0825 65.822 96.0898 65.536 96.0751 65.162L95.8991 59.948H97.4611L97.6481 65.151C97.6628 65.5177 97.7068 65.8 97.7801 65.998C97.8535 66.196 97.9745 66.3317 98.1431 66.405C98.3191 66.4783 98.5538 66.515 98.8471 66.515C99.1258 66.515 99.3238 66.5883 99.4411 66.735C99.5585 66.8743 99.6171 67.0503 99.6171 67.263C99.6171 67.4903 99.5401 67.681 99.3861 67.835C99.2321 67.9817 99.0158 68.055 98.7371 68.055C98.4145 68.055 98.1138 68.0183 97.8351 67.945C97.5565 67.8717 97.3255 67.7323 97.1421 67.527C96.9588 67.3217 96.8378 67.0247 96.7791 66.636L97.2631 66.647C97.1385 67.0283 96.9771 67.3217 96.7791 67.527C96.5811 67.725 96.3318 67.8643 96.0311 67.945C95.7378 68.0183 95.3785 68.055 94.9531 68.055ZM98.7344 68.055L98.8444 66.515C99.1817 66.515 99.4237 66.482 99.5704 66.416C99.717 66.3427 99.805 66.2107 99.8344 66.02C99.8637 65.822 99.871 65.536 99.8564 65.162L99.6584 59.948H101.209L101.429 65.272C101.444 65.6973 101.426 66.0823 101.374 66.427C101.33 66.7643 101.217 67.054 101.033 67.296C100.857 67.538 100.582 67.725 100.208 67.857C99.8417 67.989 99.3504 68.055 98.7344 68.055Z" fill="white"/>
</svg>
