<svg width="28" height="26" viewBox="0 0 28 26" fill="none" xmlns="http://www.w3.org/2000/svg">
<path d="M25.3337 20.7916C25.8794 20.7919 26.4041 21.0021 26.799 21.3787C27.194 21.7553 27.4289 22.2694 27.4552 22.8145C27.4814 23.3596 27.2969 23.8938 26.9399 24.3066C26.5829 24.7194 26.0808 24.979 25.5377 25.0317L25.3337 25.0416H2.66699C2.12127 25.0413 1.59657 24.8311 1.20161 24.4545C0.806656 24.0779 0.571725 23.5638 0.545499 23.0187C0.519274 22.4736 0.703764 21.9393 1.06074 21.5266C1.41772 21.1138 1.91981 20.8542 2.46299 20.8015L2.66699 20.7916H25.3337ZM25.3337 10.8749C25.8972 10.8749 26.4377 11.0988 26.8363 11.4973C27.2348 11.8958 27.4587 12.4363 27.4587 12.9999C27.4587 13.5635 27.2348 14.104 26.8363 14.5025C26.4377 14.901 25.8972 15.1249 25.3337 15.1249H2.66699C2.10341 15.1249 1.56291 14.901 1.16439 14.5025C0.765876 14.104 0.541992 13.5635 0.541992 12.9999C0.541992 12.4363 0.765876 11.8958 1.16439 11.4973C1.56291 11.0988 2.10341 10.8749 2.66699 10.8749H25.3337ZM25.3337 0.958252C25.8972 0.958252 26.4377 1.18214 26.8363 1.58065C27.2348 1.97916 27.4587 2.51967 27.4587 3.08325C27.4587 3.64684 27.2348 4.18734 26.8363 4.58585C26.4377 4.98437 25.8972 5.20825 25.3337 5.20825H2.66699C2.10341 5.20825 1.56291 4.98437 1.16439 4.58585C0.765876 4.18734 0.541992 3.64684 0.541992 3.08325C0.541992 2.51967 0.765876 1.97916 1.16439 1.58065C1.56291 1.18214 2.10341 0.958252 2.66699 0.958252H25.3337Z" fill="white"/>
</svg>
